SplineFontDB: 3.0
FontName: Oswald-Bold
FullName: Oswald Bold
FamilyName: Oswald
Weight: Bold
Copyright: Copyright (c) 2010-13 by Vernon Adams
Version: 3.0
ItalicAngle: 0
UnderlinePosition: -173
UnderlineWidth: 90
Ascent: 1638
Descent: 410
sfntRevision: 0x00030000
LayerCount: 2
Layer: 0 1 "Back"  1
Layer: 1 1 "Fore"  0
XUID: [1021 653 12281407 3290384]
FSType: 0
OS2Version: 4
OS2_WeightWidthSlopeOnly: 0
OS2_UseTypoMetrics: 1
CreationTime: 1372385173
ModificationTime: 1372778333
PfmFamily: 17
TTFWeight: 700
TTFWidth: 5
LineGap: 0
VLineGap: 0
Panose: 2 0 8 3 0 0 0 0 0 0
OS2TypoAscent: 2233
OS2TypoAOffset: 0
OS2TypoDescent: -548
OS2TypoDOffset: 0
OS2TypoLinegap: 0
OS2WinAscent: 2233
OS2WinAOffset: 0
OS2WinDescent: 548
OS2WinDOffset: 0
HheadAscent: 2233
HheadAOffset: 0
HheadDescent: -548
HheadDOffset: 0
OS2SubXSize: 1331
OS2SubYSize: 1433
OS2SubXOff: 0
OS2SubYOff: 286
OS2SupXSize: 1331
OS2SupYSize: 1433
OS2SupXOff: 0
OS2SupYOff: 983
OS2StrikeYSize: 102
OS2StrikeYPos: 530
OS2Vendor: 'newt'
OS2CodePages: 20000097.00000000
OS2UnicodeRanges: a00002ef.4000204b.00000000.00000000
Lookup: 258 0 0 "'kern' Horizontal Kerning lookup 0"  {"'kern' Horizontal Kerning lookup 0 per glyph data 0"  "'kern' Horizontal Kerning lookup 0 kerning class 1"  } ['kern' ('DFLT' <'dflt' > 'cyrl' <'dflt' > 'latn' <'dflt' > ) ]
Lookup: 260 0 0 "'mark' Mark Positioning lookup 1"  {"'mark' Mark Positioning lookup 1 subtable"  } ['mark' ('DFLT' <'dflt' > 'cyrl' <'dflt' > 'grek' <'dflt' > 'latn' <'dflt' > ) ]
MarkAttachClasses: 1
DEI: 91125
KernClass2: 44 59 "'kern' Horizontal Kerning lookup 0 kerning class 1" 
 89 A Agrave Aacute Acircumflex Atilde Adieresis Aring Abreve Amacron Aogonek uni0200 uni0202
 9 B uni1E02
 16 D Dcaron uni1E0A
 94 E Egrave Eacute Ecircumflex Edieresis Ebreve Ecaron Edotaccent Emacron Eogonek uni0204 uni0206
 9 F uni1E1E
 52 G Gbreve Gcircumflex Gcommaaccent Gdotaccent uni01F4
 14 K Kcommaaccent
 28 L Lacute Lcaron Lcommaaccent
 9 P uni1E56

StartChar: exclam
Encoding: 33 33 1
Width: 524
GlyphClass: 2
Flags: W
LayerCount: 2
UndoRedoHistory
Layer: 1
Undoes
EndUndoes
Redoes
EndRedoes
EndUndoRedoHistory
Fore
SplineSet
195 421 m 1,0,-1
 99 1654 l 1,1,-1
 431 1654 l 1,2,-1
 311 421 l 1,3,-1
 195 421 l 1,0,-1
93 0 m 1,4,-1
 93 311 l 1,5,-1
 408 311 l 1,6,-1
 408 0 l 1,7,-1
 93 0 l 1,4,-1
EndSplineSet
EndChar

StartChar: quotedbl
Encoding: 34 34 2
Width: 730
GlyphClass: 2
Flags: W
LayerCount: 2
UndoRedoHistory
Layer: 1
Undoes
EndUndoes
Redoes
EndRedoes
EndUndoRedoHistory
Fore
SplineSet
439 1044 m 1,0,-1
 439 1658 l 1,1,-1
 724 1658 l 1,2,-1
 593 1044 l 1,3,-1
 439 1044 l 1,0,-1
58 1044 m 1,4,-1
 58 1658 l 1,5,-1
 343 1658 l 1,6,-1
 212 1044 l 1,7,-1
 58 1044 l 1,4,-1
EndSplineSet
EndChar

StartChar: numbersign
Encoding: 35 35 3
Width: 1093
GlyphClass: 2
Flags: W
LayerCount: 2
UndoRedoHistory
Layer: 1
Undoes
EndUndoes
Redoes
EndRedoes
EndUndoRedoHistory
Fore
SplineSet
452 761 m 1,0,-1
 613 761 l 1,1,-1
 640 993 l 1,2,-1
 480 993 l 1,3,-1
 452 761 l 1,0,-1
140 -1 m 1,4,-1
 205 552 l 1,5,-1
 94 552 l 1,6,-1
 99 761 l 1,7,-1
 235 761 l 1,8,-1
 261 993 l 1,9,-1
 101 993 l 1,10,-1
 106 1205 l 1,11,-1
 298 1205 l 1,12,-1
 350 1658 l 1,13,-1
 571 1658 l 1,14,-1
 518 1205 l 1,15,-1
 676 1205 l 1,16,-1
 728 1658 l 1,17,-1
 948 1658 l 1,18,-1
 894 1205 l 1,19,-1
 1000 1205 l 1,20,-1
 995 993 l 1,21,-1
 858 993 l 1,22,-1
 831 761 l 1,23,-1
 992 761 l 1,24,-1
 987 552 l 1,25,-1
 801 552 l 1,26,-1
 735 -1 l 1,27,-1
 518 -1 l 1,28,-1
 582 552 l 1,29,-1
 423 552 l 1,30,-1
 357 -1 l 1,31,-1
 140 -1 l 1,4,-1
EndSplineSet
EndChar

StartChar: dollar
Encoding: 36 36 4
Width: 997
GlyphClass: 2
Flags: W
LayerCount: 2
UndoRedoHistory
Layer: 1
Undoes
EndUndoes
Redoes
EndRedoes
EndUndoRedoHistory
Fore
SplineSet
477 -221 m 1,0,-1
 477 -22 l 1,1,2
 263 -12 263 -12 158 114.5 c 128,-1,3
 53 241 53 241 45 503 c 1,4,-1
 359 551 l 1,5,6
 361 395 361 395 396.5 324.5 c 128,-1,7
 432 254 432 254 503 254 c 0,8,9
 596 254 596 254 596 374 c 0,10,11
 596 441 596 441 572 497.5 c 128,-1,12
 548 554 548 554 513 594 c 128,-1,13
 478 634 478 634 415 688 c 2,14,-1
 268 815 l 2,15,16
 215 861 215 861 180 899 c 128,-1,17
 145 937 145 937 111.5 989.5 c 128,-1,18
 78 1042 78 1042 62 1106 c 128,-1,19
 46 1170 46 1170 46 1247 c 0,20,21
 46 1439 46 1439 156 1551 c 128,-1,22
 266 1663 266 1663 458 1679 c 1,23,-1
 458 1868 l 1,24,-1
 563 1868 l 1,25,-1
 563 1680 l 1,26,27
 628 1676 628 1676 681.5 1657 c 128,-1,28
 735 1638 735 1638 771 1611 c 128,-1,29
 807 1584 807 1584 835 1544.5 c 128,-1,30
 863 1505 863 1505 878.5 1467 c 128,-1,31
 894 1429 894 1429 904.5 1381 c 128,-1,32
 915 1333 915 1333 918.5 1295 c 128,-1,33
 922 1257 922 1257 924 1211 c 1,34,-1
 607 1170 l 1,35,36
 606 1212 606 1212 604.5 1239.5 c 128,-1,37
 603 1267 603 1267 599 1298 c 128,-1,38
 595 1329 595 1329 588 1348 c 128,-1,39
 581 1367 581 1367 569.5 1383.5 c 128,-1,40
 558 1400 558 1400 540.5 1407 c 128,-1,41
 523 1414 523 1414 499 1413 c 0,42,43
 451 1412 451 1412 425.5 1372.5 c 128,-1,44
 400 1333 400 1333 400 1284 c 0,45,46
 400 1237 400 1237 411.5 1198.5 c 128,-1,47
 423 1160 423 1160 451.5 1124 c 128,-1,48
 480 1088 480 1088 498 1070 c 128,-1,49
 516 1052 516 1052 558 1014 c 2,50,-1
 699 890 l 2,51,52
 757 838 757 838 799 790.5 c 128,-1,53
 841 743 841 743 879 682.5 c 128,-1,54
 917 622 917 622 936.5 549.5 c 128,-1,55
 956 477 956 477 956 394 c 0,56,57
 956 228 956 228 853.5 113 c 128,-1,58
 751 -2 751 -2 580 -20 c 1,59,-1
 580 -221 l 1,60,-1
 477 -221 l 1,0,-1
EndSplineSet
EndChar

StartChar: percent
Encoding: 37 37 5
Width: 2072
GlyphClass: 2
Flags: W
LayerCount: 2
UndoRedoHistory
Layer: 1
Undoes
EndUndoes
Redoes
EndRedoes
EndUndoRedoHistory
Fore
SplineSet
688 0 m 1,0,-1
 1192 1658 l 1,1,-1
 1381 1658 l 1,2,-1
 877 0 l 1,3,-1
 688 0 l 1,0,-1
1589 -3 m 0,4,5
 1381 -3 1381 -3 1290 105 c 128,-1,6
 1199 213 1199 213 1199 440 c 2,7,-1
 1199 510 l 2,8,9
 1199 740 1199 740 1287.5 841.5 c 128,-1,10
 1376 943 1376 943 1589 943 c 128,-1,11
 1802 943 1802 943 1891.5 842.5 c 128,-1,12
 1981 742 1981 742 1981 514 c 2,13,-1
 1981 438 l 2,14,15
 1981 212 1981 212 1889.5 104.5 c 128,-1,16
 1798 -3 1798 -3 1589 -3 c 0,4,5
1589 212 m 128,-1,18
 1620 212 1620 212 1641.5 223 c 128,-1,19
 1663 234 1663 234 1675 251.5 c 128,-1,20
 1687 269 1687 269 1693.5 302.5 c 128,-1,21
 1700 336 1700 336 1701.5 367.5 c 128,-1,22
 1703 399 1703 399 1703 452 c 2,23,-1
 1703 502 l 2,24,25
 1703 558 1703 558 1702 586 c 128,-1,26
 1701 614 1701 614 1695 646.5 c 128,-1,27
 1689 679 1689 679 1677 693 c 128,-1,28
 1665 707 1665 707 1643.5 716.5 c 128,-1,29
 1622 726 1622 726 1589 726 c 128,-1,30
 1556 726 1556 726 1534.5 716.5 c 128,-1,31
 1513 707 1513 707 1501 692.5 c 128,-1,32
 1489 678 1489 678 1483.5 646.5 c 128,-1,33
 1478 615 1478 615 1476.5 586 c 128,-1,34
 1475 557 1475 557 1475 503 c 2,35,-1
 1475 451 l 2,36,37
 1475 398 1475 398 1476.5 366.5 c 128,-1,38
 1478 335 1478 335 1484.5 301.5 c 128,-1,39
 1491 268 1491 268 1503 251 c 128,-1,40
 1515 234 1515 234 1536.5 223 c 128,-1,17
 1558 212 1558 212 1589 212 c 128,-1,18
481 715 m 128,-1,42
 272 715 272 715 181.5 823 c 128,-1,43
 91 931 91 931 91 1158 c 2,44,-1
 91 1228 l 2,45,46
 91 1458 91 1458 179.5 1559.5 c 128,-1,47
 268 1661 268 1661 481 1661 c 128,-1,48
 694 1661 694 1661 783.5 1560.5 c 128,-1,49
 873 1460 873 1460 873 1232 c 2,50,-1
 873 1156 l 2,51,52
 873 930 873 930 781.5 822.5 c 128,-1,41
 690 715 690 715 481 715 c 128,-1,42
481 930 m 128,-1,54
 512 930 512 930 533.5 941 c 128,-1,55
 555 952 555 952 567 969.5 c 128,-1,56
 579 987 579 987 585.5 1020.5 c 128,-1,57
 592 1054 592 1054 593.5 1085.5 c 128,-1,58
 595 1117 595 1117 595 1170 c 2,59,-1
 595 1220 l 2,60,61
 595 1276 595 1276 594 1304 c 128,-1,62
 593 1332 593 1332 587 1364.5 c 128,-1,63
 581 1397 581 1397 569 1411 c 128,-1,64
 557 1425 557 1425 535.5 1434.5 c 128,-1,65
 514 1444 514 1444 481 1444 c 128,-1,66
 448 1444 448 1444 426.5 1434.5 c 128,-1,67
 405 1425 405 1425 393 1410.5 c 128,-1,68
 381 1396 381 1396 375.5 1364.5 c 128,-1,69
 370 1333 370 1333 368.5 1304 c 128,-1,70
 367 1275 367 1275 367 1221 c 2,71,-1
 367 1169 l 2,72,73
 367 1116 367 1116 368.5 1084.5 c 128,-1,74
 370 1053 370 1053 376.5 1019.5 c 128,-1,75
 383 986 383 986 395 969 c 128,-1,76
 407 952 407 952 428.5 941 c 128,-1,53
 450 930 450 930 481 930 c 128,-1,54
EndSplineSet
EndChar

StartChar: ampersand
Encoding: 38 38 6
Width: 1169
GlyphClass: 2
Flags: W
LayerCount: 2
UndoRedoHistory
Layer: 1
Undoes
EndUndoes
Redoes
EndRedoes
EndUndoRedoHistory
Fore
SplineSet
498 1009 m 1,0,1
 610 1227 610 1227 610 1346 c 0,2,3
 610 1392 610 1392 582.5 1419 c 128,-1,4
 555 1446 555 1446 515 1446 c 0,5,6
 474 1446 474 1446 448 1413 c 128,-1,7
 422 1380 422 1380 422 1327 c 0,8,9
 422 1283 422 1283 436.5 1221 c 128,-1,10
 451 1159 451 1159 473 1090.5 c 128,-1,11
 495 1022 495 1022 498 1009 c 1,0,1
466 200 m 0,12,13
 561 200 561 200 616 274 c 1,14,15
 449 613 449 613 431 655 c 1,16,17
 348 519 348 519 348 387 c 0,18,19
 348 304 348 304 383.5 252 c 128,-1,20
 419 200 419 200 466 200 c 0,12,13
460 -26 m 0,21,22
 293 -26 293 -26 187.5 82.5 c 128,-1,23
 82 191 82 191 82 363 c 0,24,25
 82 505 82 505 149 643.5 c 128,-1,26
 216 782 216 782 315 880 c 1,27,28
 297 917 297 917 260 987 c 128,-1,29
 223 1057 223 1057 203 1098 c 128,-1,30
 183 1139 183 1139 165.5 1198.5 c 128,-1,31
 148 1258 148 1258 148 1312 c 0,32,33
 148 1470 148 1470 244.5 1576.5 c 128,-1,34
 341 1683 341 1683 501 1683 c 0,35,36
 662 1683 662 1683 766.5 1587.5 c 128,-1,37
 871 1492 871 1492 871 1330 c 0,38,39
 871 1282 871 1282 862.5 1237 c 128,-1,40
 854 1192 854 1192 834.5 1150.5 c 128,-1,41
 815 1109 815 1109 798 1077.5 c 128,-1,42
 781 1046 781 1046 748.5 1006.5 c 128,-1,43
 716 967 716 967 698 946.5 c 128,-1,44
 680 926 680 926 642.5 886.5 c 128,-1,45
 605 847 605 847 592 833 c 1,46,-1
 784 475 l 1,47,48
 808 517 808 517 824 619.5 c 128,-1,49
 840 722 840 722 843 816 c 1,50,-1
 1072 816 l 1,51,52
 1072 648 1072 648 1040.5 527 c 128,-1,53
 1009 406 1009 406 948 289 c 1,54,55
 968 264 968 264 1005.5 245.5 c 128,-1,56
 1043 227 1043 227 1083 223 c 1,57,-1
 1083 -22 l 1,58,59
 1049 -31 1049 -31 1025 -31 c 0,60,61
 1003 -31 1003 -31 982.5 -27 c 128,-1,62
 962 -23 962 -23 939.5 -11.5 c 128,-1,63
 917 0 917 0 903 7 c 128,-1,64
 889 14 889 14 865 33.5 c 128,-1,65
 841 53 841 53 833 59 c 128,-1,66
 825 65 825 65 799 89 c 128,-1,67
 773 113 773 113 771 115 c 1,68,69
 716 47 716 47 635 10.5 c 128,-1,70
 554 -26 554 -26 460 -26 c 0,21,22
EndSplineSet
EndChar

StartChar: quotesingle
Encoding: 39 39 7
Width: 480
GlyphClass: 2
Flags: W
LayerCount: 2
UndoRedoHistory
Layer: 1
Undoes
EndUndoes
Redoes
EndRedoes
EndUndoRedoHistory
Fore
SplineSet
89 1044 m 1,0,-1
 89 1658 l 1,1,-1
 363 1658 l 1,2,-1
 251 1044 l 1,3,-1
 89 1044 l 1,0,-1
EndSplineSet
EndChar

StartChar: parenleft
Encoding: 40 40 8
Width: 692
GlyphClass: 2
Flags: W
LayerCount: 2
UndoRedoHistory
Layer: 1
Undoes
EndUndoes
Redoes
EndRedoes
EndUndoRedoHistory
Fore
SplineSet
620 -370 m 1,0,1
 546 -370 546 -370 484 -352.5 c 128,-1,2
 422 -335 422 -335 375.5 -304 c 128,-1,3
 329 -273 329 -273 291.5 -224 c 128,-1,4
 254 -175 254 -175 228.5 -121 c 128,-1,5
 203 -67 203 -67 184.5 6 c 128,-1,6
 166 79 166 79 155 148 c 128,-1,7
 144 217 144 217 138 306.5 c 128,-1,8
 132 396 132 396 130 472 c 128,-1,9
 128 548 128 548 128 646 c 0,10,11
 128 782 128 782 131.5 881 c 128,-1,12
 135 980 135 980 146.5 1094.5 c 128,-1,13
 158 1209 158 1209 179 1289 c 128,-1,14
 200 1369 200 1369 236.5 1447.5 c 128,-1,15
 273 1526 273 1526 324.5 1573 c 128,-1,16
 376 1620 376 1620 450.5 1648.5 c 128,-1,17
 525 1677 525 1677 620 1677 c 1,18,-1
 620 1443 l 1,19,20
 511 1443 511 1443 473.5 1252 c 128,-1,21
 436 1061 436 1061 436 646 c 0,22,23
 436 237 436 237 475.5 50.5 c 128,-1,24
 515 -136 515 -136 620 -136 c 1,25,-1
 620 -370 l 1,0,1
EndSplineSet
EndChar

StartChar: parenright
Encoding: 41 41 9
Width: 668
GlyphClass: 2
Flags: W
LayerCount: 2
UndoRedoHistory
Layer: 1
Undoes
EndUndoes
Redoes
EndRedoes
EndUndoRedoHistory
Fore
SplineSet
72 -370 m 1,0,-1
 72 -136 l 1,1,2
 177 -136 177 -136 216.5 52 c 128,-1,3
 256 240 256 240 256 647 c 0,4,5
 256 1063 256 1063 218.5 1253.5 c 128,-1,6
 181 1444 181 1444 72 1444 c 1,7,-1
 72 1677 l 1,8,9
 139 1677 139 1677 195.5 1664 c 128,-1,10
 252 1651 252 1651 296.5 1624 c 128,-1,11
 341 1597 341 1597 377.5 1562 c 128,-1,12
 414 1527 414 1527 440.5 1476.5 c 128,-1,13
 467 1426 467 1426 487.5 1374 c 128,-1,14
 508 1322 508 1322 521 1252 c 128,-1,15
 534 1182 534 1182 543 1117.5 c 128,-1,16
 552 1053 552 1053 556.5 969.5 c 128,-1,17
 561 886 561 886 562.5 813 c 128,-1,18
 564 740 564 740 564 647 c 0,19,20
 564 549 564 549 562 473 c 128,-1,21
 560 397 560 397 554 307.5 c 128,-1,22
 548 218 548 218 537 149 c 128,-1,23
 526 80 526 80 507.5 6.5 c 128,-1,24
 489 -67 489 -67 463.5 -120.5 c 128,-1,25
 438 -174 438 -174 400.5 -223.5 c 128,-1,26
 363 -273 363 -273 316.5 -304 c 128,-1,27
 270 -335 270 -335 208 -352.5 c 128,-1,28
 146 -370 146 -370 72 -370 c 1,0,-1
EndSplineSet
EndChar

StartChar: asterisk
Encoding: 42 42 10
Width: 867
GlyphClass: 2
Flags: W
LayerCount: 2
UndoRedoHistory
Layer: 1
Undoes
EndUndoes
Redoes
EndRedoes
EndUndoRedoHistory
Fore
SplineSet
352 921 m 1,0,-1
 155 1037 l 1,1,-1
 301 1246 l 1,2,-1
 82 1330 l 1,3,-1
 157 1530 l 1,4,-1
 357 1420 l 1,5,-1
 330 1657 l 1,6,-1
 579 1657 l 1,7,-1
 554 1418 l 1,8,-1
 753 1530 l 1,9,-1
 827 1329 l 1,10,-1
 607 1244 l 1,11,-1
 756 1038 l 1,12,-1
 557 921 l 1,13,-1
 454 1140 l 1,14,-1
 352 921 l 1,0,-1
EndSplineSet
EndChar

StartChar: plus
Encoding: 43 43 11
Width: 921
GlyphClass: 2
Flags: W
LayerCount: 2
UndoRedoHistory
Layer: 1
Undoes
EndUndoes
Redoes
EndRedoes
EndUndoRedoHistory
Fore
SplineSet
348 423 m 1,0,-1
 348 751 l 1,1,-1
 53 751 l 1,2,-1
 53 948 l 1,3,-1
 348 948 l 1,4,-1
 348 1269 l 1,5,-1
 569 1269 l 1,6,-1
 569 948 l 1,7,-1
 867 948 l 1,8,-1
 867 751 l 1,9,-1
 569 751 l 1,10,-1
 569 423 l 1,11,-1
 348 423 l 1,0,-1
EndSplineSet
EndChar

StartChar: comma
Encoding: 44 44 12
Width: 486
GlyphClass: 2
Flags: W
LayerCount: 2
UndoRedoHistory
Layer: 1
Undoes
EndUndoes
Redoes
EndRedoes
EndUndoRedoHistory
Fore
SplineSet
137 -287 m 1,0,-1
 116 -178 l 1,1,2
 262 -144 262 -144 262 0 c 1,3,-1
 88 0 l 1,4,-1
 88 312 l 1,5,-1
 404 312 l 1,6,-1
 403 40 l 1,7,8
 403 -266 403 -266 137 -287 c 1,0,-1
EndSplineSet
EndChar

StartChar: hyphen
Encoding: 45 45 13
Width: 790
GlyphClass: 2
Flags: W
LayerCount: 2
UndoRedoHistory
Layer: 1
Undoes
EndUndoes
Redoes
EndRedoes
EndUndoRedoHistory
Fore
SplineSet
130 605 m 1,0,-1
 130 820 l 1,1,-1
 661 820 l 1,2,-1
 661 605 l 1,3,-1
 130 605 l 1,0,-1
EndSplineSet
EndChar

StartChar: period
Encoding: 46 46 14
Width: 497
GlyphClass: 2
Flags: W
LayerCount: 2
UndoRedoHistory
Layer: 1
Undoes
EndUndoes
Redoes
EndRedoes
EndUndoRedoHistory
Fore
SplineSet
93 0 m 1,0,-1
 93 314 l 1,1,-1
 410 314 l 1,2,-1
 410 0 l 1,3,-1
 93 0 l 1,0,-1
EndSplineSet
EndChar

StartChar: slash
Encoding: 47 47 15
Width: 865
GlyphClass: 2
Flags: W
LayerCount: 2
UndoRedoHistory
Layer: 1
Undoes
EndUndoes
Redoes
EndRedoes
EndUndoRedoHistory
Fore
SplineSet
88 0 m 1,0,-1
 593 1658 l 1,1,-1
 776 1658 l 1,2,-1
 271 0 l 1,3,-1
 88 0 l 1,0,-1
EndSplineSet
EndChar

StartChar: zero
Encoding: 48 48 16
Width: 1094
GlyphClass: 2
Flags: W
LayerCount: 2
UndoRedoHistory
Layer: 1
Undoes
EndUndoes
Redoes
EndRedoes
EndUndoRedoHistory
Fore
SplineSet
548 -30 m 0,0,1
 329 -30 329 -30 212 99 c 128,-1,2
 95 228 95 228 95 445 c 2,3,-1
 95 1197 l 2,4,5
 95 1423 95 1423 208.5 1553 c 128,-1,6
 322 1683 322 1683 548 1683 c 0,7,8
 772 1683 772 1683 885.5 1552.5 c 128,-1,9
 999 1422 999 1422 999 1197 c 2,10,-1
 999 445 l 2,11,12
 999 230 999 230 881 100 c 128,-1,13
 763 -30 763 -30 548 -30 c 0,0,1
548 274 m 128,-1,15
 650 274 650 274 650 454 c 2,16,-1
 650 1187 l 2,17,18
 650 1211 650 1211 649.5 1225.5 c 128,-1,19
 649 1240 649 1240 646.5 1266 c 128,-1,20
 644 1292 644 1292 637 1308.5 c 128,-1,21
 630 1325 630 1325 619.5 1342.5 c 128,-1,22
 609 1360 609 1360 590.5 1368.5 c 128,-1,23
 572 1377 572 1377 548 1377 c 0,24,25
 529 1377 529 1377 513.5 1372.5 c 128,-1,26
 498 1368 498 1368 487.5 1356.5 c 128,-1,27
 477 1345 477 1345 469.5 1335.5 c 128,-1,28
 462 1326 462 1326 457.5 1307 c 128,-1,29
 453 1288 453 1288 450.5 1278 c 128,-1,30
 448 1268 448 1268 447 1245 c 128,-1,31
 446 1222 446 1222 446 1215.5 c 128,-1,32
 446 1209 446 1209 446 1187 c 2,33,-1
 446 454 l 2,34,14
 446 274 446 274 548 274 c 128,-1,15
EndSplineSet
EndChar

StartChar: one
Encoding: 49 49 17
Width: 1086
GlyphClass: 2
Flags: W
LayerCount: 2
UndoRedoHistory
Layer: 1
Undoes
EndUndoes
Redoes
EndRedoes
EndUndoRedoHistory
Fore
SplineSet
426 0 m 1,0,-1
 426 1317 l 1,1,-1
 195 1221 l 1,2,-1
 195 1476 l 1,3,4
 273 1513 273 1513 369 1566.5 c 128,-1,5
 465 1620 465 1620 501 1658 c 1,6,-1
 770 1658 l 1,7,-1
 770 0 l 1,8,-1
 426 0 l 1,0,-1
EndSplineSet
EndChar

StartChar: two
Encoding: 50 50 18
Width: 1085
GlyphClass: 2
Flags: W
LayerCount: 2
UndoRedoHistory
Layer: 1
Undoes
EndUndoes
Redoes
EndRedoes
EndUndoRedoHistory
Fore
SplineSet
111 0 m 1,0,-1
 111 242 l 1,1,-1
 504 853 l 2,2,3
 514 869 514 869 543 912 c 128,-1,4
 572 955 572 955 585.5 977 c 128,-1,5
 599 999 599 999 621.5 1039.5 c 128,-1,6
 644 1080 644 1080 655 1109 c 128,-1,7
 666 1138 666 1138 675 1175.5 c 128,-1,8
 684 1213 684 1213 684 1248 c 0,9,10
 684 1326 684 1326 650 1364 c 0,11,12
 623 1394 623 1394 580 1393 c 0,13,14
 569 1393 569 1393 556 1391 c 1,15,16
 497 1383 497 1383 469.5 1328 c 128,-1,17
 442 1273 442 1273 442 1163 c 2,18,-1
 442 1083 l 1,19,-1
 110 1083 l 1,20,-1
 110 1169 l 2,21,22
 110 1282 110 1282 136 1373.5 c 128,-1,23
 162 1465 162 1465 216 1536 c 128,-1,24
 270 1607 270 1607 360.5 1645.5 c 128,-1,25
 451 1684 451 1684 572 1684 c 0,26,27
 793 1684 793 1684 908 1568.5 c 128,-1,28
 1023 1453 1023 1453 1023 1244 c 0,29,30
 1023 1213 1023 1213 1019 1181.5 c 128,-1,31
 1015 1150 1015 1150 1010.5 1124.5 c 128,-1,32
 1006 1099 1006 1099 994.5 1067 c 128,-1,33
 983 1035 983 1035 976 1015.5 c 128,-1,34
 969 996 969 996 951 962.5 c 128,-1,35
 933 929 933 929 925.5 914.5 c 128,-1,36
 918 900 918 900 895 864.5 c 128,-1,37
 872 829 872 829 865 818.5 c 128,-1,38
 858 808 858 808 831.5 769 c 128,-1,39
 805 730 805 730 799 722 c 2,40,-1
 496 269 l 1,41,-1
 977 269 l 1,42,-1
 977 0 l 1,43,-1
 111 0 l 1,0,-1
EndSplineSet
EndChar

StartChar: three
Encoding: 51 51 19
Width: 1078
GlyphClass: 2
Flags: W
LayerCount: 2
UndoRedoHistory
Layer: 1
Undoes
EndUndoes
Redoes
EndRedoes
EndUndoRedoHistory
Fore
SplineSet
555 -30 m 0,0,1
 428 -30 428 -30 337.5 6.5 c 128,-1,2
 247 43 247 43 195 114 c 128,-1,3
 143 185 143 185 119.5 276.5 c 128,-1,4
 96 368 96 368 96 489 c 2,5,-1
 96 548 l 1,6,-1
 439 548 l 1,7,-1
 439 490 l 1,8,9
 440 363 440 363 465 310.5 c 128,-1,10
 490 258 490 258 559 258 c 0,11,12
 626 258 626 258 648 309 c 128,-1,13
 670 360 670 360 670 479 c 0,14,15
 670 609 670 609 633.5 669 c 128,-1,16
 597 729 597 729 496 732 c 1,17,-1
 436 732 l 1,18,-1
 436 972 l 1,19,-1
 490 972 l 1,20,21
 594 973 594 973 632 1028.5 c 128,-1,22
 670 1084 670 1084 670 1212 c 0,23,24
 670 1313 670 1313 643.5 1361 c 128,-1,25
 617 1409 617 1409 551 1409 c 0,26,27
 486 1409 486 1409 463 1357.5 c 128,-1,28
 440 1306 440 1306 439 1205 c 1,29,-1
 439 1120 l 1,30,-1
 96 1120 l 1,31,-1
 96 1220 l 2,32,33
 96 1442 96 1442 216.5 1563 c 128,-1,34
 337 1684 337 1684 550 1684 c 0,35,36
 768 1684 768 1684 888 1568.5 c 128,-1,37
 1008 1453 1008 1453 1008 1234 c 0,38,39
 1008 1093 1008 1093 950.5 994 c 128,-1,40
 893 895 893 895 804 871 c 1,41,42
 1008 797 1008 797 1008 488 c 0,43,44
 1008 370 1008 370 983.5 278 c 128,-1,45
 959 186 959 186 906.5 115.5 c 128,-1,46
 854 45 854 45 765 7.5 c 128,-1,47
 676 -30 676 -30 555 -30 c 0,0,1
EndSplineSet
EndChar

StartChar: four
Encoding: 52 52 20
Width: 1094
GlyphClass: 2
Flags: W
LayerCount: 2
UndoRedoHistory
Layer: 1
Undoes
EndUndoes
Redoes
EndRedoes
EndUndoRedoHistory
Fore
SplineSet
326 630 m 1,0,-1
 572 630 l 1,1,-1
 572 1322 l 1,2,-1
 326 630 l 1,0,-1
572 0 m 1,3,-1
 572 381 l 1,4,-1
 68 381 l 1,5,-1
 68 638 l 1,6,-1
 497 1658 l 1,7,-1
 879 1658 l 1,8,-1
 879 630 l 1,9,-1
 1038 630 l 1,10,-1
 1038 381 l 1,11,-1
 879 381 l 1,12,-1
 879 0 l 1,13,-1
 572 0 l 1,3,-1
EndSplineSet
EndChar

StartChar: five
Encoding: 53 53 21
Width: 1084
GlyphClass: 2
Flags: W
LayerCount: 2
UndoRedoHistory
Layer: 1
Undoes
EndUndoes
Redoes
EndRedoes
EndUndoRedoHistory
Fore
SplineSet
550 -30 m 0,0,1
 443 -30 443 -30 365.5 -5 c 128,-1,2
 288 20 288 20 240.5 62.5 c 128,-1,3
 193 105 193 105 164.5 172.5 c 128,-1,4
 136 240 136 240 126 314 c 128,-1,5
 116 388 116 388 116 487 c 1,6,-1
 447 487 l 1,7,8
 447 339 447 339 472 280 c 0,9,10
 495 225 495 225 563 225 c 0,11,12
 568 225 568 225 572 225 c 0,13,14
 592 226 592 226 608 231.5 c 128,-1,15
 624 237 624 237 635.5 251.5 c 128,-1,16
 647 266 647 266 655 279 c 128,-1,17
 663 292 663 292 668 319.5 c 128,-1,18
 673 347 673 347 676 367.5 c 128,-1,19
 679 388 679 388 680 427.5 c 128,-1,20
 681 467 681 467 681.5 493.5 c 128,-1,21
 682 520 682 520 682 570 c 0,22,23
 682 637 682 637 677.5 683 c 128,-1,24
 673 729 673 729 660.5 771 c 128,-1,25
 648 813 648 813 621 834 c 128,-1,26
 594 855 594 855 554 855 c 0,27,28
 448 855 448 855 424 704 c 1,29,-1
 127 704 l 1,30,-1
 156 1658 l 1,31,-1
 933 1658 l 1,32,-1
 933 1371 l 1,33,-1
 433 1371 l 1,34,-1
 413 1031 l 1,35,36
 436 1059 436 1059 492.5 1080.5 c 128,-1,37
 549 1102 549 1102 616 1108 c 0,38,39
 639 1110 639 1110 660 1110 c 0,40,41
 817 1110 817 1110 905 988 c 0,42,43
 1005 848 1005 848 1005 581 c 0,44,45
 1005 486 1005 486 998 412.5 c 128,-1,46
 991 339 991 339 973.5 266.5 c 128,-1,47
 956 194 956 194 923.5 142.5 c 128,-1,48
 891 91 891 91 841.5 50.5 c 128,-1,49
 792 10 792 10 719 -10 c 128,-1,50
 646 -30 646 -30 550 -30 c 0,0,1
EndSplineSet
EndChar

StartChar: six
Encoding: 54 54 22
Width: 1092
GlyphClass: 2
Flags: W
LayerCount: 2
UndoRedoHistory
Layer: 1
Undoes
EndUndoes
Redoes
EndRedoes
EndUndoRedoHistory
Fore
SplineSet
566 229 m 0,0,1
 600 229 600 229 621 246 c 128,-1,2
 642 263 642 263 653 302 c 128,-1,3
 664 341 664 341 667.5 387.5 c 128,-1,4
 671 434 671 434 671 508 c 0,5,6
 671 550 671 550 670.5 573 c 128,-1,7
 670 596 670 596 668 629 c 128,-1,8
 666 662 666 662 662 680.5 c 128,-1,9
 658 699 658 699 650 720 c 128,-1,10
 642 741 642 741 630.5 751.5 c 128,-1,11
 619 762 619 762 602 769.5 c 128,-1,12
 585 777 585 777 563 777 c 0,13,14
 526 777 526 777 495.5 755.5 c 128,-1,15
 465 734 465 734 451 707 c 1,16,-1
 451 441 l 2,17,18
 451 229 451 229 566 229 c 0,0,1
561 -24 m 0,19,20
 442 -24 442 -24 353 16.5 c 128,-1,21
 264 57 264 57 210 131.5 c 128,-1,22
 156 206 156 206 129.5 303.5 c 128,-1,23
 103 401 103 401 103 522 c 2,24,-1
 103 1114 l 2,25,26
 103 1217 103 1217 115 1298.5 c 128,-1,27
 127 1380 127 1380 158 1453.5 c 128,-1,28
 189 1527 189 1527 240 1575.5 c 128,-1,29
 291 1624 291 1624 371.5 1652.5 c 128,-1,30
 452 1681 452 1681 560 1681 c 0,31,32
 677 1681 677 1681 759 1653.5 c 128,-1,33
 841 1626 841 1626 890 1570.5 c 128,-1,34
 939 1515 939 1515 961.5 1438 c 128,-1,35
 984 1361 984 1361 985 1255 c 1,36,-1
 985 1226 l 1,37,-1
 662 1226 l 1,38,39
 662 1337 662 1337 644.5 1379.5 c 128,-1,40
 627 1422 627 1422 562 1422 c 0,41,42
 493 1422 493 1422 472 1355 c 128,-1,43
 451 1288 451 1288 451 1091 c 2,44,-1
 451 944 l 1,45,46
 476 987 476 987 530.5 1011.5 c 128,-1,47
 585 1036 585 1036 655 1038 c 0,48,49
 660 1038 660 1038 665 1038 c 0,50,51
 755 1038 755 1038 822 1004 c 0,52,53
 893 968 893 968 934 901.5 c 128,-1,54
 975 835 975 835 994.5 750.5 c 128,-1,55
 1014 666 1014 666 1014 562 c 0,56,57
 1014 426 1014 426 991.5 323.5 c 128,-1,58
 969 221 969 221 918.5 140.5 c 128,-1,59
 868 60 868 60 778 18 c 128,-1,60
 688 -24 688 -24 561 -24 c 0,19,20
EndSplineSet
EndChar

StartChar: seven
Encoding: 55 55 23
Width: 1026
GlyphClass: 2
Flags: W
LayerCount: 2
UndoRedoHistory
Layer: 1
Undoes
EndUndoes
Redoes
EndRedoes
EndUndoRedoHistory
Fore
SplineSet
222 0 m 1,0,-1
 580 1399 l 1,1,-1
 132 1399 l 1,2,-1
 132 1658 l 1,3,-1
 915 1658 l 1,4,-1
 915 1425 l 1,5,-1
 556 0 l 1,6,-1
 222 0 l 1,0,-1
EndSplineSet
EndChar

StartChar: eight
Encoding: 56 56 24
Width: 1085
GlyphClass: 2
Flags: W
LayerCount: 2
UndoRedoHistory
Layer: 1
Undoes
EndUndoes
Redoes
EndRedoes
EndUndoRedoHistory
Fore
SplineSet
542 997 m 0,0,1
 644 997 644 997 644 1244 c 0,2,3
 644 1328 644 1328 618 1376 c 128,-1,4
 592 1424 592 1424 542 1424 c 0,5,6
 490 1424 490 1424 464 1376.5 c 128,-1,7
 438 1329 438 1329 438 1245 c 0,8,9
 438 997 438 997 542 997 c 0,0,1
542 226 m 0,10,11
 569 226 569 226 589.5 237 c 128,-1,12
 610 248 610 248 622 269 c 128,-1,13
 634 290 634 290 642 312 c 128,-1,14
 650 334 650 334 653.5 365.5 c 128,-1,15
 657 397 657 397 658 418.5 c 128,-1,16
 659 440 659 440 659 469 c 0,17,18
 659 505 659 505 658 531.5 c 128,-1,19
 657 558 657 558 653.5 589.5 c 128,-1,20
 650 621 650 621 642 643 c 128,-1,21
 634 665 634 665 621.5 684.5 c 128,-1,22
 609 704 609 704 589 713.5 c 128,-1,23
 569 723 569 723 542 723 c 0,24,25
 511 723 511 723 488.5 708 c 128,-1,26
 466 693 466 693 454 670.5 c 128,-1,27
 442 648 442 648 435 611.5 c 128,-1,28
 428 575 428 575 426.5 544 c 128,-1,29
 425 513 425 513 425 469 c 0,30,31
 425 423 425 423 428 389.5 c 128,-1,32
 431 356 431 356 441.5 314 c 128,-1,33
 452 272 452 272 477.5 249 c 128,-1,34
 503 226 503 226 542 226 c 0,10,11
542 -26 m 0,35,36
 419 -26 419 -26 329.5 11.5 c 128,-1,37
 240 49 240 49 187.5 119.5 c 128,-1,38
 135 190 135 190 111 283 c 0,39,40
 89 369 89 369 89 476 c 0,41,42
 89 485 89 485 89 494 c 0,43,44
 91 624 91 624 137.5 725.5 c 128,-1,45
 184 827 184 827 278 874 c 1,46,47
 208 925 208 925 163 1015 c 128,-1,48
 118 1105 118 1105 115 1233 c 0,49,50
 115 1242 115 1242 115 1251 c 0,51,52
 115 1450 115 1450 221 1562 c 0,53,54
 332 1680 332 1680 542 1680 c 128,-1,55
 752 1680 752 1680 862 1562 c 0,56,57
 967 1449 967 1449 966 1251 c 0,58,59
 966 1242 966 1242 966 1233 c 0,60,61
 963 1104 963 1104 919 1014 c 128,-1,62
 875 924 875 924 805 874 c 1,63,64
 898 826 898 826 946 724.5 c 128,-1,65
 994 623 994 623 996 494 c 1,66,67
 996 481 996 481 996 467 c 0,68,69
 996 364 996 364 976 282 c 0,70,71
 952 190 952 190 899.5 119.5 c 128,-1,72
 847 49 847 49 756.5 11.5 c 128,-1,73
 666 -26 666 -26 542 -26 c 0,35,36
EndSplineSet
EndChar

StartChar: nine
Encoding: 57 57 25
Width: 1092
GlyphClass: 2
Flags: W
LayerCount: 2
UndoRedoHistory
Layer: 1
Undoes
EndUndoes
Redoes
EndRedoes
EndUndoRedoHistory
Fore
SplineSet
544 880 m 0,0,1
 611 880 611 880 647 950 c 1,2,-1
 647 1216 l 2,3,4
 647 1263 647 1263 643.5 1296.5 c 128,-1,5
 640 1330 640 1330 629 1362 c 128,-1,6
 618 1394 618 1394 596 1411 c 128,-1,7
 574 1428 574 1428 540 1428 c 0,8,9
 476 1428 476 1428 456.5 1364 c 128,-1,10
 437 1300 437 1300 437 1149 c 0,11,12
 437 1098 437 1098 437.5 1073.5 c 128,-1,13
 438 1049 438 1049 441 1010.5 c 128,-1,14
 444 972 444 972 450.5 954 c 128,-1,15
 457 936 457 936 468.5 916 c 128,-1,16
 480 896 480 896 499 888 c 128,-1,17
 518 880 518 880 544 880 c 0,0,1
539 -24 m 0,18,19
 422 -24 422 -24 340 3.5 c 128,-1,20
 258 31 258 31 209.5 87 c 128,-1,21
 161 143 161 143 139 220 c 128,-1,22
 117 297 117 297 116 404 c 1,23,-1
 116 431 l 1,24,-1
 439 431 l 1,25,26
 439 322 439 322 458 278.5 c 128,-1,27
 477 235 477 235 542 235 c 0,28,29
 610 235 610 235 628.5 300 c 128,-1,30
 647 365 647 365 647 566 c 2,31,-1
 647 713 l 1,32,33
 622 669 622 669 569 645 c 128,-1,34
 516 621 516 621 446 619 c 0,35,36
 441 619 441 619 437 619 c 0,37,38
 347 620 347 620 279 656 c 0,39,40
 208 694 208 694 167 764.5 c 128,-1,41
 126 835 126 835 107 921.5 c 128,-1,42
 88 1008 88 1008 88 1113 c 0,43,44
 88 1247 88 1247 112.5 1348.5 c 128,-1,45
 137 1450 137 1450 189.5 1526 c 128,-1,46
 242 1602 242 1602 330 1641.5 c 128,-1,47
 418 1681 418 1681 540 1681 c 0,48,49
 775 1681 775 1681 886.5 1541 c 128,-1,50
 998 1401 998 1401 998 1153 c 2,51,-1
 998 543 l 2,52,53
 998 440 998 440 986 358.5 c 128,-1,54
 974 277 974 277 942.5 203.5 c 128,-1,55
 911 130 911 130 860 81.5 c 128,-1,56
 809 33 809 33 728 4.5 c 128,-1,57
 647 -24 647 -24 539 -24 c 0,18,19
EndSplineSet
EndChar

StartChar: colon
Encoding: 58 58 26
Width: 564
GlyphClass: 2
Flags: W
LayerCount: 2
UndoRedoHistory
Layer: 1
Undoes
EndUndoes
Redoes
EndRedoes
EndUndoRedoHistory
Fore
SplineSet
135 842 m 1,0,-1
 135 1152 l 1,1,-1
 448 1152 l 1,2,-1
 448 842 l 1,3,-1
 135 842 l 1,0,-1
135 119 m 1,4,-1
 135 428 l 1,5,-1
 448 428 l 1,6,-1
 448 119 l 1,7,-1
 135 119 l 1,4,-1
EndSplineSet
EndChar

StartChar: semicolon
Encoding: 59 59 27
Width: 579
GlyphClass: 2
Flags: W
LayerCount: 2
UndoRedoHistory
Layer: 1
Undoes
EndUndoes
Redoes
EndRedoes
EndUndoRedoHistory
Fore
SplineSet
135 866 m 1,0,-1
 135 1178 l 1,1,-1
 448 1178 l 1,2,-1
 448 866 l 1,3,-1
 135 866 l 1,0,-1
185 -238 m 1,4,-1
 164 -130 l 1,5,6
 311 -107 311 -107 311 38 c 1,7,-1
 136 38 l 1,8,-1
 136 350 l 1,9,-1
 452 350 l 1,10,-1
 452 78 l 2,11,12
 452 -76 452 -76 385.5 -156.5 c 128,-1,13
 319 -237 319 -237 185 -238 c 1,4,-1
EndSplineSet
EndChar

StartChar: less
Encoding: 60 60 28
Width: 815
GlyphClass: 2
Flags: W
LayerCount: 2
UndoRedoHistory
Layer: 1
Undoes
EndUndoes
Redoes
EndRedoes
EndUndoRedoHistory
Fore
SplineSet
698 198 m 1,0,-1
 64 640 l 1,1,-1
 64 901 l 1,2,-1
 698 1345 l 1,3,-1
 698 1052 l 1,4,-1
 304 772 l 1,5,-1
 698 489 l 1,6,-1
 698 198 l 1,0,-1
EndSplineSet
EndChar

StartChar: equal
Encoding: 61 61 29
Width: 907
GlyphClass: 2
Flags: W
LayerCount: 2
UndoRedoHistory
Layer: 1
Undoes
EndUndoes
Redoes
EndRedoes
EndUndoRedoHistory
Fore
SplineSet
128 896 m 1,0,-1
 128 1100 l 1,1,-1
 780 1100 l 1,2,-1
 780 896 l 1,3,-1
 128 896 l 1,0,-1
128 508 m 1,4,-1
 128 712 l 1,5,-1
 780 712 l 1,6,-1
 780 508 l 1,7,-1
 128 508 l 1,4,-1
EndSplineSet
EndChar

StartChar: greater
Encoding: 62 62 30
Width: 815
GlyphClass: 2
Flags: W
LayerCount: 2
UndoRedoHistory
Layer: 1
Undoes
EndUndoes
Redoes
EndRedoes
EndUndoRedoHistory
Fore
SplineSet
112 198 m 1,0,-1
 112 489 l 1,1,-1
 506 772 l 1,2,-1
 112 1052 l 1,3,-1
 112 1345 l 1,4,-1
 746 901 l 1,5,-1
 746 640 l 1,6,-1
 112 198 l 1,0,-1
EndSplineSet
EndChar

StartChar: question
Encoding: 63 63 31
Width: 993
GlyphClass: 2
Flags: W
LayerCount: 2
UndoRedoHistory
Layer: 1
Undoes
EndUndoes
Redoes
EndRedoes
EndUndoRedoHistory
Fore
SplineSet
256 0 m 1,0,-1
 256 317 l 1,1,-1
 582 317 l 1,2,-1
 582 0 l 1,3,-1
 256 0 l 1,0,-1
265 435 m 1,4,-1
 265 700 l 1,5,6
 415 824 415 824 508 974 c 0,7,8
 592 1109 592 1109 592 1248 c 0,9,10
 592 1263 592 1263 591 1278 c 0,11,12
 584 1397 584 1397 476 1397 c 0,13,14
 431 1398 431 1398 404 1366 c 0,15,16
 380 1339 380 1339 380 1295 c 0,17,18
 380 1289 380 1289 381 1282 c 1,19,20
 381 1242 381 1242 402 1176 c 1,21,-1
 100 1108 l 1,22,23
 70 1228 70 1228 70 1282 c 1,24,25
 69 1300 69 1300 69 1316 c 0,26,27
 68 1382 68 1382 84 1440 c 0,28,29
 104 1512 104 1512 150 1567.5 c 128,-1,30
 196 1623 196 1623 277.5 1654 c 128,-1,31
 359 1685 359 1685 469 1685 c 0,32,33
 688 1685 688 1685 805 1574.5 c 128,-1,34
 922 1464 922 1464 922 1265 c 0,35,36
 922 1086 922 1086 820.5 913 c 128,-1,37
 719 740 719 740 569 635 c 1,38,-1
 569 435 l 1,39,-1
 265 435 l 1,4,-1
EndSplineSet
EndChar

StartChar: at
Encoding: 64 64 32
Width: 1951
GlyphClass: 2
Flags: W
LayerCount: 2
UndoRedoHistory
Layer: 1
Undoes
EndUndoes
Redoes
EndRedoes
EndUndoRedoHistory
Fore
SplineSet
973 441 m 1,0,1
 1061 458 1061 458 1080 504 c 1,2,-1
 1142 983 l 1,3,4
 1141 997 1141 997 1121.5 1004 c 128,-1,5
 1102 1011 1102 1011 1085 1011 c 0,6,7
 1008 1011 1008 1011 949.5 952.5 c 128,-1,8
 891 894 891 894 864.5 810.5 c 128,-1,9
 838 727 838 727 837 637 c 0,10,11
 837 634 837 634 837 632 c 0,12,13
 837 548 837 548 869 493 c 0,14,15
 900 441 900 441 964 441 c 0,16,17
 968 441 968 441 973 441 c 1,0,1
969 -262 m 0,18,19
 665 -262 665 -262 461.5 -144.5 c 128,-1,20
 258 -27 258 -27 172 191 c 0,21,22
 109 349 109 349 109 550 c 0,23,24
 109 627 109 627 118 709 c 1,25,26
 138 923 138 923 215 1098.5 c 128,-1,27
 292 1274 292 1274 418 1398.5 c 128,-1,28
 544 1523 544 1523 722 1591 c 128,-1,29
 900 1659 900 1659 1115 1659 c 0,30,31
 1284 1659 1284 1659 1419.5 1615.5 c 128,-1,32
 1555 1572 1555 1572 1647 1494 c 128,-1,33
 1739 1416 1739 1416 1797.5 1307 c 128,-1,34
 1856 1198 1856 1198 1876 1068 c 0,35,36
 1888 991 1888 991 1889 907 c 0,37,38
 1889 850 1889 850 1883 789 c 1,39,40
 1877 709 1877 709 1855.5 630 c 128,-1,41
 1834 551 1834 551 1791 472.5 c 128,-1,42
 1748 394 1748 394 1690 335 c 128,-1,43
 1632 276 1632 276 1546.5 239 c 128,-1,44
 1461 202 1461 202 1360 202 c 0,45,46
 1268 202 1268 202 1193.5 241 c 128,-1,47
 1119 280 1119 280 1095 355 c 1,48,49
 1071 300 1071 300 1019 262 c 128,-1,50
 967 224 967 224 901 218 c 0,51,52
 884 216 884 216 868 216 c 0,53,54
 778 216 778 216 706 264 c 0,55,56
 622 320 622 320 584 418 c 0,57,58
 549 505 549 505 548 612 c 0,59,60
 548 626 548 626 549 639 c 0,61,62
 552 714 552 714 569 794.5 c 128,-1,63
 586 875 586 875 623 958.5 c 128,-1,64
 660 1042 660 1042 712 1107 c 128,-1,65
 764 1172 764 1172 842.5 1213.5 c 128,-1,66
 921 1255 921 1255 1015 1255 c 0,67,68
 1031 1255 1031 1255 1045.5 1252 c 128,-1,69
 1060 1249 1060 1249 1072.5 1241.5 c 128,-1,70
 1085 1234 1085 1234 1094.5 1227.5 c 128,-1,71
 1104 1221 1104 1221 1113.5 1209 c 128,-1,72
 1123 1197 1123 1197 1129 1190 c 128,-1,73
 1135 1183 1135 1183 1142 1168.5 c 128,-1,74
 1149 1154 1149 1154 1151.5 1148.5 c 128,-1,75
 1154 1143 1154 1143 1160 1129.5 c 128,-1,76
 1166 1116 1166 1116 1166 1115 c 2,77,-1
 1186 1242 l 1,78,-1
 1452 1242 l 1,79,-1
 1361 568 l 1,80,81
 1353 506 1353 506 1353.5 466.5 c 128,-1,82
 1354 427 1354 427 1361 409 c 0,83,84
 1368 393 1368 393 1382 389 c 0,85,86
 1395 386 1395 386 1408 386 c 0,87,88
 1453 386 1453 386 1500 424 c 0,89,90
 1560 473 1560 473 1602.5 570.5 c 128,-1,91
 1645 668 1645 668 1655 785 c 1,92,93
 1661 843 1661 843 1661 896 c 0,94,95
 1662 983 1662 983 1646 1058 c 0,96,97
 1622 1179 1622 1179 1556 1269.5 c 128,-1,98
 1490 1360 1490 1360 1372.5 1408.5 c 128,-1,99
 1255 1457 1255 1457 1091 1457 c 0,100,101
 953 1457 953 1457 838.5 1418.5 c 128,-1,102
 724 1380 724 1380 642 1312.5 c 128,-1,103
 560 1245 560 1245 500.5 1150.5 c 128,-1,104
 441 1056 441 1056 407.5 947.5 c 128,-1,105
 374 839 374 839 361 714 c 1,106,107
 351 631 351 631 351 557 c 0,108,109
 351 470 351 470 365 394 c 0,110,111
 390 254 390 254 464.5 152 c 128,-1,112
 539 50 539 50 674 -3.5 c 128,-1,113
 809 -57 809 -57 1000 -57 c 0,114,115
 1081 -57 1081 -57 1199 -38 c 128,-1,116
 1317 -19 1317 -19 1405 10 c 1,117,-1
 1443 -196 l 1,118,119
 1162 -262 1162 -262 969 -262 c 0,18,19
EndSplineSet
EndChar

StartChar: A
Encoding: 65 65 33
Width: 1127
GlyphClass: 2
Flags: W
AnchorPoint: "Anchor-0" 911 0 basechar 0
LayerCount: 2
UndoRedoHistory
Layer: 1
Undoes
EndUndoes
Redoes
EndRedoes
EndUndoRedoHistory
Fore
SplineSet
478 571 m 1,0,-1
 655 571 l 1,1,-1
 566 1213 l 1,2,-1
 478 571 l 1,0,-1
43 0 m 1,3,-1
 357 1658 l 1,4,-1
 771 1658 l 1,5,-1
 1083 0 l 1,6,-1
 745 0 l 1,7,-1
 688 352 l 1,8,-1
 446 352 l 1,9,-1
 390 0 l 1,10,-1
 43 0 l 1,3,-1
EndSplineSet
EndChar

StartChar: B
Encoding: 66 66 34
Width: 1204
GlyphClass: 2
Flags: W
LayerCount: 2
UndoRedoHistory
Layer: 1
Undoes
EndUndoes
Redoes
EndRedoes
EndUndoRedoHistory
Fore
SplineSet
488 995 m 1,0,-1
 558 995 l 2,1,2
 676 995 676 995 718.5 1048 c 128,-1,3
 761 1101 761 1101 761 1216 c 0,4,5
 761 1412 761 1412 546 1412 c 2,6,-1
 488 1412 l 1,7,-1
 488 995 l 1,0,-1
488 256 m 1,8,-1
 565 256 l 2,9,10
 684 256 684 256 732 314 c 128,-1,11
 780 372 780 372 780 497 c 0,12,13
 780 637 780 637 731 695 c 128,-1,14
 682 753 682 753 560 753 c 2,15,-1
 488 753 l 1,16,-1
 488 256 l 1,8,-1
122 0 m 1,17,-1
 122 1658 l 1,18,-1
 554 1658 l 2,19,20
 647 1658 647 1658 719.5 1648.5 c 128,-1,21
 792 1639 792 1639 863.5 1611 c 128,-1,22
 935 1583 935 1583 981.5 1536.5 c 128,-1,23
 1028 1490 1028 1490 1056 1410 c 0,24,25
 1082 1336 1082 1336 1081 1238 c 0,26,27
 1081 1231 1081 1231 1081 1224 c 0,28,29
 1077 934 1077 934 838 891 c 1,30,31
 981 872 981 872 1056 771 c 128,-1,32
 1131 670 1131 670 1133 492 c 0,33,34
 1133 486 1133 486 1133 481 c 0,35,36
 1132 238 1132 238 1006 120 c 0,37,38
 876 0 876 0 632 0 c 2,39,-1
 122 0 l 1,17,-1
EndSplineSet
EndChar

StartChar: C
Encoding: 67 67 35
Width: 1151
GlyphClass: 2
Flags: W
AnchorPoint: "Anchor-1" 594 0 basechar 0
LayerCount: 2
UndoRedoHistory
Layer: 1
Undoes
EndUndoes
Redoes
EndRedoes
EndUndoRedoHistory
Fore
SplineSet
597 -23 m 0,0,1
 458 -23 458 -23 360 15.5 c 128,-1,2
 262 54 262 54 205.5 129 c 128,-1,3
 149 204 149 204 124 302 c 128,-1,4
 99 400 99 400 99 532 c 2,5,-1
 99 1123 l 2,6,7
 99 1258 99 1258 124 1357.5 c 128,-1,8
 149 1457 149 1457 205.5 1531.5 c 128,-1,9
 262 1606 262 1606 359.5 1643.5 c 128,-1,10
 457 1681 457 1681 597 1681 c 0,11,12
 731 1681 731 1681 825.5 1647 c 128,-1,13
 920 1613 920 1613 973.5 1547 c 128,-1,14
 1027 1481 1027 1481 1050.5 1397 c 128,-1,15
 1074 1313 1074 1313 1074 1202 c 2,16,-1
 1074 1056 l 1,17,-1
 716 1056 l 1,18,-1
 716 1223 l 2,19,20
 716 1262 716 1262 715 1282 c 128,-1,21
 714 1302 714 1302 708 1333.5 c 128,-1,22
 702 1365 702 1365 690.5 1381 c 128,-1,23
 679 1397 679 1397 655 1409.5 c 128,-1,24
 631 1422 631 1422 597 1422 c 128,-1,25
 563 1422 563 1422 539 1409.5 c 128,-1,26
 515 1397 515 1397 502.5 1379.5 c 128,-1,27
 490 1362 490 1362 482.5 1331.5 c 128,-1,28
 475 1301 475 1301 473.5 1276 c 128,-1,29
 472 1251 472 1251 472 1214 c 2,30,-1
 472 441 l 2,31,32
 472 341 472 341 498 288.5 c 128,-1,33
 524 236 524 236 597 236 c 0,34,35
 630 236 630 236 653.5 248.5 c 128,-1,36
 677 261 677 261 689 278 c 128,-1,37
 701 295 701 295 707.5 326 c 128,-1,38
 714 357 714 357 715 380 c 128,-1,39
 716 403 716 403 716 441 c 2,40,-1
 716 615 l 1,41,-1
 1074 615 l 1,42,-1
 1074 472 l 2,43,44
 1074 383 1074 383 1060 311 c 128,-1,45
 1046 239 1046 239 1012.5 175.5 c 128,-1,46
 979 112 979 112 925.5 69 c 128,-1,47
 872 26 872 26 789 1.5 c 128,-1,48
 706 -23 706 -23 597 -23 c 0,0,1
EndSplineSet
EndChar

StartChar: D
Encoding: 68 68 36
Width: 1196
GlyphClass: 2
Flags: W
LayerCount: 2
UndoRedoHistory
Layer: 1
Undoes
EndUndoes
Redoes
EndRedoes
EndUndoRedoHistory
Fore
SplineSet
122 0 m 1,0,-1
 122 1658 l 1,1,-1
 539 1658 l 2,2,3
 702 1658 702 1658 809.5 1629 c 128,-1,4
 917 1600 917 1600 981 1534 c 128,-1,5
 1045 1468 1045 1468 1071 1372.5 c 128,-1,6
 1097 1277 1097 1277 1097 1133 c 2,7,-1
 1097 535 l 2,8,9
 1097 390 1097 390 1070.5 292.5 c 128,-1,10
 1044 195 1044 195 980.5 127.5 c 128,-1,11
 917 60 917 60 810.5 30 c 128,-1,12
 704 0 704 0 544 0 c 2,13,-1
 122 0 l 1,0,-1
488 254 m 1,14,-1
 544 254 l 2,15,16
 586 254 586 254 615.5 259.5 c 128,-1,17
 645 265 645 265 664.5 279 c 128,-1,18
 684 293 684 293 695.5 308.5 c 128,-1,19
 707 324 707 324 712.5 353.5 c 128,-1,20
 718 383 718 383 719.5 409.5 c 128,-1,21
 721 436 721 436 721 481 c 2,22,-1
 721 1194 l 2,23,24
 721 1257 721 1257 716 1291 c 128,-1,25
 711 1325 711 1325 693 1353 c 128,-1,26
 675 1381 675 1381 639.5 1391.5 c 128,-1,27
 604 1402 604 1402 543 1402 c 2,28,-1
 488 1402 l 1,29,-1
 488 254 l 1,14,-1
EndSplineSet
EndChar

StartChar: E
Encoding: 69 69 37
Width: 915
GlyphClass: 2
Flags: W
AnchorPoint: "Anchor-0" 601 0 basechar 0
LayerCount: 2
UndoRedoHistory
Layer: 1
Undoes
EndUndoes
Redoes
EndRedoes
EndUndoRedoHistory
Fore
SplineSet
122 0 m 1,0,-1
 122 1658 l 1,1,-1
 867 1658 l 1,2,-1
 867 1408 l 1,3,-1
 488 1408 l 1,4,-1
 488 998 l 1,5,-1
 777 998 l 1,6,-1
 777 743 l 1,7,-1
 488 743 l 1,8,-1
 488 248 l 1,9,-1
 871 248 l 1,10,-1
 871 0 l 1,11,-1
 122 0 l 1,0,-1
EndSplineSet
EndChar

StartChar: F
Encoding: 70 70 38
Width: 887
GlyphClass: 2
Flags: W
LayerCount: 2
UndoRedoHistory
Layer: 1
Undoes
EndUndoes
Redoes
EndRedoes
EndUndoRedoHistory
Fore
SplineSet
122 0 m 1,0,-1
 122 1658 l 1,1,-1
 840 1658 l 1,2,-1
 840 1409 l 1,3,-1
 488 1409 l 1,4,-1
 488 992 l 1,5,-1
 791 992 l 1,6,-1
 791 736 l 1,7,-1
 488 736 l 1,8,-1
 488 0 l 1,9,-1
 122 0 l 1,0,-1
EndSplineSet
EndChar

StartChar: G
Encoding: 71 71 39
Width: 1190
GlyphClass: 2
Flags: W
LayerCount: 2
UndoRedoHistory
Layer: 1
Undoes
EndUndoes
Redoes
EndRedoes
EndUndoRedoHistory
Fore
SplineSet
555 -24 m 0,0,1
 429 -24 429 -24 339.5 16.5 c 128,-1,2
 250 57 250 57 198 135 c 128,-1,3
 146 213 146 213 122.5 315 c 128,-1,4
 99 417 99 417 99 551 c 2,5,-1
 99 1102 l 2,6,7
 99 1212 99 1212 114.5 1299 c 128,-1,8
 130 1386 130 1386 165.5 1459 c 128,-1,9
 201 1532 201 1532 258 1580 c 128,-1,10
 315 1628 315 1628 400 1654.5 c 128,-1,11
 485 1681 485 1681 597 1681 c 0,12,13
 705 1681 705 1681 788 1658 c 128,-1,14
 871 1635 871 1635 926.5 1594 c 128,-1,15
 982 1553 982 1553 1017 1491.5 c 128,-1,16
 1052 1430 1052 1430 1067 1357.5 c 128,-1,17
 1082 1285 1082 1285 1082 1195 c 2,18,-1
 1082 1090 l 1,19,-1
 724 1090 l 1,20,-1
 724 1223 l 2,21,22
 724 1261 724 1261 722.5 1285 c 128,-1,23
 721 1309 721 1309 714.5 1338 c 128,-1,24
 708 1367 708 1367 695.5 1383 c 128,-1,25
 683 1399 683 1399 659.5 1410.5 c 128,-1,26
 636 1422 636 1422 602 1422 c 0,27,28
 567 1422 567 1422 542.5 1409 c 128,-1,29
 518 1396 518 1396 505 1377.5 c 128,-1,30
 492 1359 492 1359 484.5 1328 c 128,-1,31
 477 1297 477 1297 475.5 1271.5 c 128,-1,32
 474 1246 474 1246 474 1209 c 2,33,-1
 474 450 l 2,34,35
 474 351 474 351 503.5 293.5 c 128,-1,36
 533 236 533 236 611 236 c 0,37,38
 755 236 755 236 755 457 c 2,39,-1
 755 643 l 1,40,-1
 605 643 l 1,41,-1
 605 862 l 1,42,-1
 1086 862 l 1,43,-1
 1086 0 l 1,44,-1
 843 0 l 1,45,-1
 822 139 l 1,46,47
 749 -24 749 -24 555 -24 c 0,0,1
EndSplineSet
EndChar

StartChar: H
Encoding: 72 72 40
Width: 1247
GlyphClass: 2
Flags: W
LayerCount: 2
UndoRedoHistory
Layer: 1
Undoes
EndUndoes
Redoes
EndRedoes
EndUndoRedoHistory
Fore
SplineSet
129 0 m 1,0,-1
 129 1658 l 1,1,-1
 496 1658 l 1,2,-1
 496 988 l 1,3,-1
 751 988 l 1,4,-1
 751 1658 l 1,5,-1
 1118 1658 l 1,6,-1
 1118 0 l 1,7,-1
 751 0 l 1,8,-1
 751 726 l 1,9,-1
 496 726 l 1,10,-1
 496 0 l 1,11,-1
 129 0 l 1,0,-1
EndSplineSet
EndChar

StartChar: I
Encoding: 73 73 41
Width: 615
GlyphClass: 2
Flags: W
AnchorPoint: "Anchor-0" 312 0 basechar 0
LayerCount: 2
UndoRedoHistory
Layer: 1
Undoes
EndUndoes
Redoes
EndRedoes
EndUndoRedoHistory
Fore
SplineSet
125 0 m 1,0,-1
 125 1658 l 1,1,-1
 491 1658 l 1,2,-1
 491 0 l 1,3,-1
 125 0 l 1,0,-1
EndSplineSet
EndChar

StartChar: J
Encoding: 74 74 42
Width: 715
GlyphClass: 2
Flags: W
AnchorPoint: "Anchor-2" 408 1758 basechar 0
LayerCount: 2
UndoRedoHistory
Layer: 1
Undoes
EndUndoes
Redoes
EndRedoes
EndUndoRedoHistory
Fore
SplineSet
26 -40 m 1,0,-1
 26 215 l 1,1,2
 33 215 33 215 39 215 c 0,3,4
 145 214 145 214 184 246 c 0,5,6
 226 280 226 280 226 383 c 2,7,-1
 226 1658 l 1,8,-1
 592 1658 l 1,9,-1
 592 369 l 1,10,11
 590 262 590 262 571.5 189.5 c 128,-1,12
 553 117 553 117 509.5 63.5 c 128,-1,13
 466 10 466 10 391 -15 c 128,-1,14
 316 -40 316 -40 204 -40 c 2,15,-1
 26 -40 l 1,0,-1
EndSplineSet
EndChar

StartChar: K
Encoding: 75 75 43
Width: 1160
GlyphClass: 2
Flags: W
LayerCount: 2
UndoRedoHistory
Layer: 1
Undoes
EndUndoes
Redoes
EndRedoes
EndUndoRedoHistory
Fore
SplineSet
122 0 m 1,0,-1
 122 1658 l 1,1,-1
 488 1658 l 1,2,-1
 488 984 l 1,3,-1
 768 1658 l 1,4,-1
 1125 1658 l 1,5,-1
 818 909 l 1,6,-1
 1140 0 l 1,7,-1
 766 0 l 1,8,-1
 524 741 l 1,9,-1
 488 684 l 1,10,-1
 488 0 l 1,11,-1
 122 0 l 1,0,-1
EndSplineSet
EndChar

StartChar: L
Encoding: 76 76 44
Width: 906
GlyphClass: 2
Flags: W
LayerCount: 2
UndoRedoHistory
Layer: 1
Undoes
EndUndoes
Redoes
EndRedoes
EndUndoRedoHistory
Fore
SplineSet
122 0 m 1,0,-1
 122 1658 l 1,1,-1
 488 1658 l 1,2,-1
 488 248 l 1,3,-1
 868 248 l 1,4,-1
 868 0 l 1,5,-1
 122 0 l 1,0,-1
EndSplineSet
EndChar

StartChar: M
Encoding: 77 77 45
Width: 1441
GlyphClass: 2
Flags: W
LayerCount: 2
UndoRedoHistory
Layer: 1
Undoes
EndUndoes
Redoes
EndRedoes
EndUndoRedoHistory
Fore
SplineSet
117 0 m 1,0,-1
 144 1658 l 1,1,-1
 536 1658 l 1,2,-1
 720 688 l 1,3,-1
 918 1658 l 1,4,-1
 1297 1658 l 1,5,-1
 1324 0 l 1,6,-1
 1062 0 l 1,7,-1
 1035 1100 l 1,8,-1
 840 0 l 1,9,-1
 611 0 l 1,10,-1
 407 1108 l 1,11,-1
 382 0 l 1,12,-1
 117 0 l 1,0,-1
EndSplineSet
EndChar

StartChar: N
Encoding: 78 78 46
Width: 1146
GlyphClass: 2
Flags: W
LayerCount: 2
UndoRedoHistory
Layer: 1
Undoes
EndUndoes
Redoes
EndRedoes
EndUndoRedoHistory
Fore
SplineSet
122 0 m 1,0,-1
 122 1658 l 1,1,-1
 380 1658 l 1,2,-1
 721 862 l 1,3,-1
 721 1658 l 1,4,-1
 1025 1658 l 1,5,-1
 1025 0 l 1,6,-1
 777 0 l 1,7,-1
 435 858 l 1,8,-1
 435 0 l 1,9,-1
 122 0 l 1,0,-1
EndSplineSet
EndChar

StartChar: O
Encoding: 79 79 47
Width: 1198
GlyphClass: 2
Flags: W
AnchorPoint: "Anchor-0" 661 0 basechar 0
LayerCount: 2
UndoRedoHistory
Layer: 1
Undoes
EndUndoes
Redoes
EndRedoes
EndUndoRedoHistory
Fore
SplineSet
598 -23 m 0,0,1
 460 -23 460 -23 362.5 13.5 c 128,-1,2
 265 50 265 50 207.5 122.5 c 128,-1,3
 150 195 150 195 124.5 293 c 128,-1,4
 99 391 99 391 99 524 c 2,5,-1
 99 1136 l 2,6,7
 99 1270 99 1270 124.5 1367.5 c 128,-1,8
 150 1465 150 1465 207.5 1537 c 128,-1,9
 265 1609 265 1609 362.5 1645 c 128,-1,10
 460 1681 460 1681 598 1681 c 0,11,12
 867 1681 867 1681 983.5 1543.5 c 128,-1,13
 1100 1406 1100 1406 1100 1136 c 2,14,-1
 1100 524 l 2,15,16
 1100 254 1100 254 983.5 115.5 c 128,-1,17
 867 -23 867 -23 598 -23 c 0,0,1
598 236 m 128,-1,19
 631 236 631 236 655 247.5 c 128,-1,20
 679 259 679 259 692 276.5 c 128,-1,21
 705 294 705 294 712.5 322 c 128,-1,22
 720 350 720 350 722 374.5 c 128,-1,23
 724 399 724 399 724 433 c 2,24,-1
 724 1228 l 2,25,26
 724 1261 724 1261 722 1285.5 c 128,-1,27
 720 1310 720 1310 712.5 1337.5 c 128,-1,28
 705 1365 705 1365 692 1382 c 128,-1,29
 679 1399 679 1399 655 1410.5 c 128,-1,30
 631 1422 631 1422 598 1422 c 128,-1,31
 565 1422 565 1422 541.5 1410.5 c 128,-1,32
 518 1399 518 1399 505 1382.5 c 128,-1,33
 492 1366 492 1366 485 1337.5 c 128,-1,34
 478 1309 478 1309 476.5 1286 c 128,-1,35
 475 1263 475 1263 475 1228 c 2,36,-1
 475 433 l 2,37,38
 475 398 475 398 476.5 374.5 c 128,-1,39
 478 351 478 351 485 322.5 c 128,-1,40
 492 294 492 294 505 277 c 128,-1,41
 518 260 518 260 541.5 248 c 128,-1,18
 565 236 565 236 598 236 c 128,-1,19
EndSplineSet
EndChar

StartChar: P
Encoding: 80 80 48
Width: 1162
GlyphClass: 2
Flags: W
LayerCount: 2
UndoRedoHistory
Layer: 1
Undoes
EndUndoes
Redoes
EndRedoes
EndUndoRedoHistory
Fore
SplineSet
488 961 m 1,0,-1
 605 961 l 2,1,2
 704 961 704 961 736.5 1011.5 c 128,-1,3
 769 1062 769 1062 769 1183 c 0,4,5
 769 1226 769 1226 766.5 1255 c 128,-1,6
 764 1284 764 1284 754.5 1314 c 128,-1,7
 745 1344 745 1344 727.5 1361.5 c 128,-1,8
 710 1379 710 1379 679 1390 c 128,-1,9
 648 1401 648 1401 604 1401 c 2,10,-1
 488 1401 l 1,11,-1
 488 961 l 1,0,-1
122 0 m 1,12,-1
 122 1658 l 1,13,-1
 675 1658 l 2,14,15
 895 1658 895 1658 1004 1535 c 128,-1,16
 1113 1412 1113 1412 1113 1177 c 0,17,18
 1113 1084 1113 1084 1096.5 1010 c 128,-1,19
 1080 936 1080 936 1048 885 c 128,-1,20
 1016 834 1016 834 974 798.5 c 128,-1,21
 932 763 932 763 876 743 c 128,-1,22
 820 723 820 723 761.5 714.5 c 128,-1,23
 703 706 703 706 632 706 c 2,24,-1
 488 706 l 1,25,-1
 488 0 l 1,26,-1
 122 0 l 1,12,-1
EndSplineSet
EndChar

StartChar: Q
Encoding: 81 81 49
Width: 1198
GlyphClass: 2
Flags: W
LayerCount: 2
UndoRedoHistory
Layer: 1
Undoes
EndUndoes
Redoes
EndRedoes
EndUndoRedoHistory
Fore
SplineSet
598 236 m 128,-1,1
 631 236 631 236 655 247.5 c 128,-1,2
 679 259 679 259 692 276.5 c 128,-1,3
 705 294 705 294 712.5 322 c 128,-1,4
 720 350 720 350 722 374.5 c 128,-1,5
 724 399 724 399 724 433 c 2,6,-1
 724 1228 l 2,7,8
 724 1261 724 1261 722 1285.5 c 128,-1,9
 720 1310 720 1310 712.5 1337.5 c 128,-1,10
 705 1365 705 1365 692 1382 c 128,-1,11
 679 1399 679 1399 655 1410.5 c 128,-1,12
 631 1422 631 1422 598 1422 c 128,-1,13
 565 1422 565 1422 541.5 1410.5 c 128,-1,14
 518 1399 518 1399 505 1382.5 c 128,-1,15
 492 1366 492 1366 485 1337.5 c 128,-1,16
 478 1309 478 1309 476.5 1286 c 128,-1,17
 475 1263 475 1263 475 1228 c 2,18,-1
 475 433 l 2,19,20
 475 398 475 398 476.5 374.5 c 128,-1,21
 478 351 478 351 485 322.5 c 128,-1,22
 492 294 492 294 505 277 c 128,-1,23
 518 260 518 260 541.5 248 c 128,-1,0
 565 236 565 236 598 236 c 128,-1,1
971 -326 m 1,24,25
 897 -295 897 -295 795 -206 c 128,-1,26
 693 -117 693 -117 632 -23 c 1,27,-1
 598 -23 l 2,28,29
 460 -23 460 -23 362.5 13.5 c 128,-1,30
 265 50 265 50 207.5 122.5 c 128,-1,31
 150 195 150 195 124.5 293 c 128,-1,32
 99 391 99 391 99 524 c 2,33,-1
 99 1136 l 2,34,35
 99 1270 99 1270 124.5 1367.5 c 128,-1,36
 150 1465 150 1465 207.5 1537 c 128,-1,37
 265 1609 265 1609 362.5 1645 c 128,-1,38
 460 1681 460 1681 598 1681 c 0,39,40
 867 1681 867 1681 983.5 1543.5 c 128,-1,41
 1100 1406 1100 1406 1100 1136 c 2,42,-1
 1100 524 l 2,43,44
 1100 151 1100 151 881 36 c 1,45,46
 979 -71 979 -71 1047 -107 c 1,47,-1
 971 -326 l 1,24,25
EndSplineSet
EndChar

StartChar: R
Encoding: 82 82 50
Width: 1224
GlyphClass: 2
Flags: W
LayerCount: 2
UndoRedoHistory
Layer: 1
Undoes
EndUndoes
Redoes
EndRedoes
EndUndoRedoHistory
Fore
SplineSet
488 953 m 1,0,-1
 582 953 l 2,1,2
 694 953 694 953 740 1011 c 128,-1,3
 786 1069 786 1069 786 1186 c 0,4,5
 786 1301 786 1301 744.5 1356.5 c 128,-1,6
 703 1412 703 1412 601 1412 c 2,7,-1
 488 1412 l 1,8,-1
 488 953 l 1,0,-1
122 0 m 1,9,-1
 122 1658 l 1,10,-1
 574 1658 l 2,11,12
 679 1658 679 1658 760 1646 c 128,-1,13
 841 1634 841 1634 912 1604 c 128,-1,14
 983 1574 983 1574 1029 1525 c 128,-1,15
 1075 1476 1075 1476 1101 1399 c 128,-1,16
 1127 1322 1127 1322 1127 1219 c 0,17,18
 1127 1056 1127 1056 1083 957 c 128,-1,19
 1039 858 1039 858 924 803 c 1,20,-1
 1152 0 l 1,21,-1
 773 0 l 1,22,-1
 591 742 l 1,23,-1
 488 742 l 1,24,-1
 488 0 l 1,25,-1
 122 0 l 1,9,-1
EndSplineSet
EndChar

StartChar: S
Encoding: 83 83 51
Width: 1052
GlyphClass: 2
Flags: W
AnchorPoint: "Anchor-1" 566 0 basechar 0
LayerCount: 2
UndoRedoHistory
Layer: 1
Undoes
EndUndoes
Redoes
EndRedoes
EndUndoRedoHistory
Fore
SplineSet
562 -23 m 0,0,1
 326 -23 326 -23 210.5 102.5 c 128,-1,2
 95 228 95 228 86 503 c 1,3,-1
 400 551 l 1,4,5
 402 395 402 395 437.5 324.5 c 128,-1,6
 473 254 473 254 544 254 c 0,7,8
 637 254 637 254 637 374 c 0,9,10
 637 441 637 441 613 497.5 c 128,-1,11
 589 554 589 554 554 594 c 128,-1,12
 519 634 519 634 456 688 c 2,13,-1
 309 815 l 2,14,15
 256 861 256 861 221 899 c 128,-1,16
 186 937 186 937 152.5 989.5 c 128,-1,17
 119 1042 119 1042 103 1106 c 128,-1,18
 87 1170 87 1170 87 1247 c 0,19,20
 87 1454 87 1454 211 1567 c 128,-1,21
 335 1680 335 1680 551 1681 c 0,22,23
 625 1681 625 1681 685.5 1665 c 128,-1,24
 746 1649 746 1649 787.5 1623 c 128,-1,25
 829 1597 829 1597 860.5 1557.5 c 128,-1,26
 892 1518 892 1518 910.5 1478.5 c 128,-1,27
 929 1439 929 1439 941.5 1389.5 c 128,-1,28
 954 1340 954 1340 958.5 1299 c 128,-1,29
 963 1258 963 1258 965 1211 c 1,30,-1
 648 1170 l 1,31,32
 647 1212 647 1212 645.5 1239.5 c 128,-1,33
 644 1267 644 1267 640 1298 c 128,-1,34
 636 1329 636 1329 629 1348 c 128,-1,35
 622 1367 622 1367 610.5 1383.5 c 128,-1,36
 599 1400 599 1400 581.5 1407 c 128,-1,37
 564 1414 564 1414 540 1413 c 0,38,39
 492 1412 492 1412 466.5 1372.5 c 128,-1,40
 441 1333 441 1333 441 1284 c 0,41,42
 441 1237 441 1237 452.5 1198.5 c 128,-1,43
 464 1160 464 1160 492.5 1124 c 128,-1,44
 521 1088 521 1088 539 1070 c 128,-1,45
 557 1052 557 1052 599 1014 c 2,46,-1
 740 890 l 2,47,48
 798 838 798 838 840 790.5 c 128,-1,49
 882 743 882 743 920 682.5 c 128,-1,50
 958 622 958 622 977.5 549.5 c 128,-1,51
 997 477 997 477 997 394 c 0,52,53
 997 214 997 214 877 95.5 c 128,-1,54
 757 -23 757 -23 562 -23 c 0,0,1
EndSplineSet
EndChar

StartChar: T
Encoding: 84 84 52
Width: 914
GlyphClass: 2
Flags: W
AnchorPoint: "Anchor-1" 460 0 basechar 0
LayerCount: 2
UndoRedoHistory
Layer: 1
Undoes
EndUndoes
Redoes
EndRedoes
EndUndoRedoHistory
Fore
SplineSet
275 0 m 1,0,-1
 275 1387 l 1,1,-1
 20 1387 l 1,2,-1
 20 1658 l 1,3,-1
 894 1658 l 1,4,-1
 894 1387 l 1,5,-1
 642 1387 l 1,6,-1
 642 0 l 1,7,-1
 275 0 l 1,0,-1
EndSplineSet
EndChar

StartChar: U
Encoding: 85 85 53
Width: 1202
GlyphClass: 2
Flags: W
AnchorPoint: "Anchor-0" 661 0 basechar 0
LayerCount: 2
UndoRedoHistory
Layer: 1
Undoes
EndUndoes
Redoes
EndRedoes
EndUndoRedoHistory
Fore
SplineSet
601 -23 m 0,0,1
 488 -23 488 -23 403.5 0.5 c 128,-1,2
 319 24 319 24 263.5 67 c 128,-1,3
 208 110 208 110 173.5 178.5 c 128,-1,4
 139 247 139 247 125 329.5 c 128,-1,5
 111 412 111 412 111 522 c 2,6,-1
 111 1658 l 1,7,-1
 473 1658 l 1,8,-1
 473 468 l 2,9,10
 473 429 473 429 475 401.5 c 128,-1,11
 477 374 477 374 484.5 342 c 128,-1,12
 492 310 492 310 505 289.5 c 128,-1,13
 518 269 518 269 542.5 255.5 c 128,-1,14
 567 242 567 242 601 242 c 128,-1,15
 635 242 635 242 659 255.5 c 128,-1,16
 683 269 683 269 696 289.5 c 128,-1,17
 709 310 709 310 716.5 342 c 128,-1,18
 724 374 724 374 726 402 c 128,-1,19
 728 430 728 430 728 468 c 2,20,-1
 728 1658 l 1,21,-1
 1091 1658 l 1,22,-1
 1091 522 l 2,23,24
 1091 384 1091 384 1067.5 287 c 128,-1,25
 1044 190 1044 190 989 118 c 128,-1,26
 934 46 934 46 838 11.5 c 128,-1,27
 742 -23 742 -23 601 -23 c 0,0,1
EndSplineSet
EndChar

StartChar: V
Encoding: 86 86 54
Width: 1078
GlyphClass: 2
Flags: W
LayerCount: 2
UndoRedoHistory
Layer: 1
Undoes
EndUndoes
Redoes
EndRedoes
EndUndoRedoHistory
Fore
SplineSet
346 0 m 1,0,-1
 46 1658 l 1,1,-1
 359 1658 l 1,2,-1
 537 540 l 1,3,-1
 702 1658 l 1,4,-1
 1035 1658 l 1,5,-1
 731 0 l 1,6,-1
 346 0 l 1,0,-1
EndSplineSet
EndChar

StartChar: W
Encoding: 87 87 55
Width: 1432
GlyphClass: 2
Flags: W
LayerCount: 2
UndoRedoHistory
Layer: 1
Undoes
EndUndoes
Redoes
EndRedoes
EndUndoRedoHistory
Fore
SplineSet
257 0 m 1,0,-1
 57 1658 l 1,1,-1
 368 1658 l 1,2,-1
 466 695 l 1,3,-1
 593 1658 l 1,4,-1
 835 1658 l 1,5,-1
 968 700 l 1,6,-1
 1068 1658 l 1,7,-1
 1375 1658 l 1,8,-1
 1174 0 l 1,9,-1
 856 0 l 1,10,-1
 715 1000 l 1,11,-1
 579 0 l 1,12,-1
 257 0 l 1,0,-1
EndSplineSet
EndChar

StartChar: X
Encoding: 88 88 56
Width: 1055
GlyphClass: 2
Flags: W
LayerCount: 2
UndoRedoHistory
Layer: 1
Undoes
EndUndoes
Redoes
EndRedoes
EndUndoRedoHistory
Fore
SplineSet
14 0 m 1,0,-1
 337 894 l 1,1,-1
 28 1658 l 1,2,-1
 375 1658 l 1,3,-1
 556 1210 l 1,4,-1
 702 1658 l 1,5,-1
 1010 1658 l 1,6,-1
 719 799 l 1,7,-1
 1041 0 l 1,8,-1
 698 0 l 1,9,-1
 497 494 l 1,10,-1
 318 0 l 1,11,-1
 14 0 l 1,0,-1
EndSplineSet
EndChar

StartChar: Y
Encoding: 89 89 57
Width: 1011
GlyphClass: 2
Flags: W
LayerCount: 2
UndoRedoHistory
Layer: 1
Undoes
EndUndoes
Redoes
EndRedoes
EndUndoRedoHistory
Fore
SplineSet
332 0 m 1,0,-1
 332 678 l 1,1,-1
 16 1658 l 1,2,-1
 361 1658 l 1,3,-1
 519 1133 l 1,4,-1
 662 1658 l 1,5,-1
 995 1658 l 1,6,-1
 683 678 l 1,7,-1
 683 0 l 1,8,-1
 332 0 l 1,0,-1
EndSplineSet
EndChar

StartChar: Z
Encoding: 90 90 58
Width: 885
GlyphClass: 2
Flags: W
LayerCount: 2
UndoRedoHistory
Layer: 1
Undoes
EndUndoes
Redoes
EndRedoes
EndUndoRedoHistory
Fore
SplineSet
62 0 m 1,0,-1
 62 222 l 1,1,-1
 464 1409 l 1,2,-1
 78 1409 l 1,3,-1
 78 1658 l 1,4,-1
 827 1658 l 1,5,-1
 827 1455 l 1,6,-1
 414 248 l 1,7,-1
 830 248 l 1,8,-1
 830 0 l 1,9,-1
 62 0 l 1,0,-1
EndSplineSet
EndChar

StartChar: bracketleft
Encoding: 91 91 59
Width: 685
GlyphClass: 2
Flags: W
LayerCount: 2
UndoRedoHistory
Layer: 1
Undoes
EndUndoes
Redoes
EndRedoes
EndUndoRedoHistory
Fore
SplineSet
106 -381 m 1,0,-1
 107 1658 l 1,1,-1
 624 1658 l 1,2,-1
 624 1528 l 1,3,-1
 369 1528 l 1,4,-1
 368 -251 l 1,5,-1
 622 -251 l 1,6,-1
 622 -381 l 1,7,-1
 106 -381 l 1,0,-1
EndSplineSet
EndChar

StartChar: backslash
Encoding: 92 92 60
Width: 865
GlyphClass: 2
Flags: W
LayerCount: 2
UndoRedoHistory
Layer: 1
Undoes
EndUndoes
Redoes
EndRedoes
EndUndoRedoHistory
Fore
SplineSet
593 0 m 1,0,-1
 88 1658 l 1,1,-1
 271 1658 l 1,2,-1
 776 0 l 1,3,-1
 593 0 l 1,0,-1
EndSplineSet
EndChar

StartChar: bracketright
Encoding: 93 93 61
Width: 666
GlyphClass: 2
Flags: W
LayerCount: 2
UndoRedoHistory
Layer: 1
Undoes
EndUndoes
Redoes
EndRedoes
EndUndoRedoHistory
Fore
SplineSet
43 -381 m 1,0,-1
 43 -252 l 1,1,-1
 298 -252 l 1,2,-1
 296 1528 l 1,3,-1
 42 1528 l 1,4,-1
 42 1658 l 1,5,-1
 558 1658 l 1,6,-1
 560 -381 l 1,7,-1
 43 -381 l 1,0,-1
EndSplineSet
EndChar

StartChar: asciicircum
Encoding: 94 94 62
Width: 978
GlyphClass: 2
Flags: W
LayerCount: 2
UndoRedoHistory
Layer: 1
Undoes
EndUndoes
Redoes
EndRedoes
EndUndoRedoHistory
Fore
SplineSet
62 971 m 1,0,-1
 355 1658 l 1,1,-1
 622 1658 l 1,2,-1
 916 971 l 1,3,-1
 632 971 l 1,4,-1
 488 1373 l 1,5,-1
 345 971 l 1,6,-1
 62 971 l 1,0,-1
EndSplineSet
EndChar

StartChar: underscore
Encoding: 95 95 63
Width: 753
GlyphClass: 2
Flags: W
LayerCount: 2
UndoRedoHistory
Layer: 1
Undoes
EndUndoes
Redoes
EndRedoes
EndUndoRedoHistory
Fore
SplineSet
0 -342 m 1,0,-1
 0 -117 l 1,1,-1
 753 -117 l 1,2,-1
 753 -342 l 1,3,-1
 0 -342 l 1,0,-1
EndSplineSet
EndChar

StartChar: grave
Encoding: 96 96 64
Width: 633
GlyphClass: 2
Flags: W
LayerCount: 2
UndoRedoHistory
Layer: 1
Undoes
EndUndoes
Redoes
EndRedoes
EndUndoRedoHistory
Fore
SplineSet
343 1246 m 1,0,-1
 84 1658 l 1,1,-1
 427 1658 l 1,2,-1
 551 1246 l 1,3,-1
 343 1246 l 1,0,-1
EndSplineSet
EndChar

StartChar: a
Encoding: 97 97 65
Width: 976
GlyphClass: 2
Flags: W
AnchorPoint: "Anchor-0" 742 0 basechar 0
LayerCount: 2
UndoRedoHistory
Layer: 1
Undoes
EndUndoes
Redoes
EndRedoes
EndUndoRedoHistory
Fore
SplineSet
469 209 m 0,0,1
 493 209 493 209 518.5 225.5 c 128,-1,2
 544 242 544 242 560 265 c 1,3,-1
 560 589 l 1,4,5
 480 549 480 549 428.5 476.5 c 128,-1,6
 377 404 377 404 377 335 c 0,7,8
 377 277 377 277 403 243 c 128,-1,9
 429 209 429 209 469 209 c 0,0,1
348 -21 m 1,10,11
 222 -19 222 -19 147.5 68.5 c 128,-1,12
 73 156 73 156 73 268 c 0,13,14
 73 326 73 326 87.5 376.5 c 128,-1,15
 102 427 102 427 122.5 464 c 128,-1,16
 143 501 143 501 180 536 c 128,-1,17
 217 571 217 571 247 592.5 c 128,-1,18
 277 614 277 614 326.5 638.5 c 128,-1,19
 376 663 376 663 406 675 c 128,-1,20
 436 687 436 687 487.5 706.5 c 128,-1,21
 539 726 539 726 560 735 c 1,22,-1
 560 852 l 2,23,24
 560 902 560 902 545 929 c 128,-1,25
 530 956 530 956 490 956 c 0,26,27
 422 956 422 956 418 862 c 1,28,-1
 410 775 l 1,29,-1
 98 787 l 1,30,31
 98 790 98 790 99 807 c 128,-1,32
 100 824 100 824 100 826 c 0,33,34
 115 1020 115 1020 220.5 1112 c 128,-1,35
 326 1204 326 1204 522 1204 c 0,36,37
 697 1204 697 1204 788.5 1107 c 128,-1,38
 880 1010 880 1010 880 848 c 2,39,-1
 880 297 l 2,40,41
 880 183 880 183 901 0 c 1,42,-1
 604 0 l 1,43,44
 578 144 578 144 576 168 c 1,45,46
 552 87 552 87 494 33 c 128,-1,47
 436 -21 436 -21 348 -21 c 1,10,11
EndSplineSet
EndChar

StartChar: b
Encoding: 98 98 66
Width: 1036
GlyphClass: 2
Flags: W
LayerCount: 2
UndoRedoHistory
Layer: 1
Undoes
EndUndoes
Redoes
EndRedoes
EndUndoRedoHistory
Fore
SplineSet
532 197 m 0,0,1
 533 197 533 197 534 197 c 0,2,3
 576 198 576 198 596 234 c 0,4,5
 616 272 616 272 615 331 c 2,6,-1
 615 879 l 2,7,8
 615 934 615 934 594 969 c 0,9,10
 575 1001 575 1001 536 1001 c 0,11,12
 533 1001 533 1001 529 1001 c 0,13,14
 488 998 488 998 439 962 c 1,15,-1
 439 226 l 1,16,17
 488 197 488 197 532 197 c 0,0,1
690 -21 m 128,-1,19
 565 -21 565 -21 439 89 c 1,20,-1
 439 0 l 1,21,-1
 105 0 l 1,22,-1
 105 1658 l 1,23,-1
 439 1658 l 1,24,-1
 439 1097 l 1,25,26
 559 1204 559 1204 686 1204 c 0,27,28
 692 1204 692 1204 697 1204 c 0,29,30
 825 1200 825 1200 887.5 1102 c 128,-1,31
 950 1004 950 1004 950 854 c 2,32,-1
 950 349 l 2,33,34
 950 180 950 180 882.5 79.5 c 128,-1,18
 815 -21 815 -21 690 -21 c 128,-1,19
EndSplineSet
EndChar

StartChar: c
Encoding: 99 99 67
Width: 959
GlyphClass: 2
Flags: W
AnchorPoint: "Anchor-1" 490 0 basechar 0
LayerCount: 2
UndoRedoHistory
Layer: 1
Undoes
EndUndoes
Redoes
EndRedoes
EndUndoRedoHistory
Fore
SplineSet
490 -21 m 0,0,1
 295 -21 295 -21 188 84.5 c 128,-1,2
 81 190 81 190 81 379 c 2,3,-1
 81 807 l 2,4,5
 81 995 81 995 188 1099.5 c 128,-1,6
 295 1204 295 1204 490 1204 c 0,7,8
 682 1204 682 1204 785.5 1114.5 c 128,-1,9
 889 1025 889 1025 889 848 c 2,10,-1
 889 723 l 1,11,-1
 567 723 l 1,12,-1
 567 857 l 2,13,14
 567 925 567 925 548.5 950 c 128,-1,15
 530 975 530 975 491 975 c 128,-1,16
 452 975 452 975 434 944 c 128,-1,17
 416 913 416 913 416 837 c 2,18,-1
 416 346 l 2,19,20
 416 269 416 269 434.5 240 c 128,-1,21
 453 211 453 211 491 211 c 0,22,23
 530 211 530 211 548.5 237.5 c 128,-1,24
 567 264 567 264 567 326 c 2,25,-1
 567 482 l 1,26,-1
 889 482 l 1,27,-1
 889 339 l 2,28,29
 889 163 889 163 784.5 71 c 128,-1,30
 680 -21 680 -21 490 -21 c 0,0,1
EndSplineSet
EndChar

StartChar: d
Encoding: 100 100 68
Width: 1031
GlyphClass: 2
Flags: W
LayerCount: 2
UndoRedoHistory
Layer: 1
Undoes
EndUndoes
Redoes
EndRedoes
EndUndoRedoHistory
Fore
SplineSet
506 194 m 0,0,1
 541 194 541 194 593 223 c 1,2,-1
 593 968 l 1,3,4
 549 994 549 994 508 994 c 0,5,6
 464 994 464 994 443 958.5 c 128,-1,7
 422 923 422 923 422 866 c 2,8,-1
 422 326 l 2,9,10
 422 268 422 268 442 231 c 128,-1,11
 462 194 462 194 506 194 c 0,0,1
362 -21 m 1,12,13
 228 -21 228 -21 157.5 72 c 128,-1,14
 87 165 87 165 87 348 c 2,15,-1
 87 829 l 2,16,17
 87 998 87 998 157.5 1101 c 128,-1,18
 228 1204 228 1204 362 1204 c 0,19,20
 485 1204 485 1204 593 1111 c 1,21,-1
 593 1658 l 1,22,-1
 927 1658 l 1,23,-1
 927 0 l 1,24,-1
 593 0 l 1,25,-1
 593 90 l 1,26,27
 480 -20 480 -20 362 -21 c 1,12,13
EndSplineSet
EndChar

StartChar: e
Encoding: 101 101 69
Width: 962
GlyphClass: 2
Flags: W
AnchorPoint: "Anchor-0" 561 0 basechar 0
LayerCount: 2
UndoRedoHistory
Layer: 1
Undoes
EndUndoes
Redoes
EndRedoes
EndUndoRedoHistory
Fore
SplineSet
412 727 m 1,0,-1
 575 727 l 1,1,-1
 575 845 l 2,2,3
 575 911 575 911 553 938.5 c 128,-1,4
 531 966 531 966 490 966 c 0,5,6
 451 966 451 966 431.5 934 c 128,-1,7
 412 902 412 902 412 825 c 2,8,-1
 412 727 l 1,0,-1
491 -21 m 0,9,10
 295 -21 295 -21 188 84 c 128,-1,11
 81 189 81 189 81 380 c 2,12,-1
 81 804 l 2,13,14
 81 995 81 995 188.5 1099.5 c 128,-1,15
 296 1204 296 1204 491 1204 c 0,16,17
 688 1204 688 1204 786.5 1102.5 c 128,-1,18
 885 1001 885 1001 885 804 c 2,19,-1
 885 571 l 1,20,-1
 412 571 l 1,21,-1
 412 363 l 2,22,23
 412 291 412 291 430 254.5 c 128,-1,24
 448 218 448 218 491 218 c 0,25,26
 575 218 575 218 575 333 c 2,27,-1
 575 412 l 1,28,-1
 885 412 l 1,29,-1
 885 343 l 2,30,31
 885 166 885 166 781.5 72.5 c 128,-1,32
 678 -21 678 -21 491 -21 c 0,9,10
EndSplineSet
EndChar

StartChar: f
Encoding: 102 102 70
Width: 656
GlyphClass: 2
Flags: W
LayerCount: 2
UndoRedoHistory
Layer: 1
Undoes
EndUndoes
Redoes
EndRedoes
EndUndoRedoHistory
Fore
SplineSet
148 0 m 1,0,-1
 148 957 l 1,1,-1
 35 957 l 1,2,-1
 35 1184 l 1,3,-1
 148 1184 l 1,4,-1
 148 1267 l 2,5,6
 148 1325 148 1325 152 1366.5 c 128,-1,7
 156 1408 156 1408 168 1451 c 128,-1,8
 180 1494 180 1494 202.5 1522 c 128,-1,9
 225 1550 225 1550 260.5 1572.5 c 128,-1,10
 296 1595 296 1595 349 1606 c 128,-1,11
 402 1617 402 1617 473 1617 c 0,12,13
 545 1617 545 1617 632 1607 c 1,14,-1
 632 1359 l 1,15,16
 575 1368 575 1368 562 1368 c 0,17,18
 482 1368 482 1368 482 1277 c 2,19,-1
 482 1184 l 1,20,-1
 632 1184 l 1,21,-1
 632 957 l 1,22,-1
 482 957 l 1,23,-1
 482 0 l 1,24,-1
 148 0 l 1,0,-1
EndSplineSet
EndChar

StartChar: g
Encoding: 103 103 71
Width: 1022
GlyphClass: 2
Flags: W
LayerCount: 2
UndoRedoHistory
Layer: 1
Undoes
EndUndoes
Redoes
EndRedoes
EndUndoRedoHistory
Fore
SplineSet
506 566 m 0,0,1
 563 566 563 566 580 613.5 c 128,-1,2
 597 661 597 661 597 784 c 0,3,4
 597 913 597 913 581.5 958.5 c 128,-1,5
 566 1004 566 1004 505 1004 c 0,6,7
 484 1004 484 1004 469 998.5 c 128,-1,8
 454 993 454 993 444 978 c 128,-1,9
 434 963 434 963 428.5 948.5 c 128,-1,10
 423 934 423 934 420.5 904 c 128,-1,11
 418 874 418 874 417.5 851 c 128,-1,12
 417 828 417 828 417 784 c 0,13,14
 417 725 417 725 420 689.5 c 128,-1,15
 423 654 423 654 431.5 623.5 c 128,-1,16
 440 593 440 593 458.5 579.5 c 128,-1,17
 477 566 477 566 506 566 c 0,0,1
549 -146 m 0,18,19
 631 -146 631 -146 669 -129 c 128,-1,20
 707 -112 707 -112 711 -72 c 1,21,22
 712 -62 712 -62 712 -52 c 0,23,24
 712 -14 712 -14 690 4 c 0,25,26
 662 28 662 28 588 35 c 1,27,-1
 409 57 l 1,28,29
 362 -12 362 -12 362 -60 c 0,30,31
 362 -105 362 -105 403.5 -125.5 c 128,-1,32
 445 -146 445 -146 549 -146 c 0,18,19
550 -355 m 0,33,34
 502 -355 502 -355 462.5 -353.5 c 128,-1,35
 423 -352 423 -352 369.5 -347 c 128,-1,36
 316 -342 316 -342 274 -333 c 128,-1,37
 232 -324 232 -324 188.5 -307 c 128,-1,38
 145 -290 145 -290 116.5 -266.5 c 128,-1,39
 88 -243 88 -243 69.5 -208 c 128,-1,40
 51 -173 51 -173 51 -130 c 0,41,42
 51 -12 51 -12 220 105 c 1,43,44
 146 132 146 132 112 164 c 128,-1,45
 78 196 78 196 72 238 c 1,46,47
 69 254 69 254 69 270 c 0,48,49
 69 318 69 318 97 357 c 0,50,51
 134 409 134 409 216 474 c 1,52,53
 87 568 87 568 87 768 c 0,54,55
 87 989 87 989 194.5 1096.5 c 128,-1,56
 302 1204 302 1204 499 1204 c 0,57,58
 688 1204 688 1204 769 1101 c 1,59,60
 844 1189 844 1189 929 1233 c 1,61,-1
 973 1255 l 1,62,-1
 1050 1092 l 1,63,64
 1020 1083 1020 1083 955 1054 c 128,-1,65
 890 1025 890 1025 852 1002 c 1,66,67
 911 912 911 912 911 770 c 0,68,69
 911 579 911 579 814.5 472.5 c 128,-1,70
 718 366 718 366 522 366 c 0,71,72
 475 366 475 366 420.5 376.5 c 128,-1,73
 366 387 366 387 333 401 c 1,74,75
 297 354 297 354 297 327 c 0,76,77
 297 323 297 323 298 319 c 1,78,79
 302 289 302 289 407 274 c 0,80,81
 435 269 435 269 534 256.5 c 128,-1,82
 633 244 633 244 664 240 c 0,83,84
 835 217 835 217 904.5 149.5 c 128,-1,85
 974 82 974 82 974 -45 c 0,86,87
 974 -117 974 -117 953 -171.5 c 128,-1,88
 932 -226 932 -226 884 -268.5 c 128,-1,89
 836 -311 836 -311 752 -333 c 128,-1,90
 668 -355 668 -355 550 -355 c 0,33,34
EndSplineSet
EndChar

StartChar: h
Encoding: 104 104 72
Width: 1043
GlyphClass: 2
Flags: W
LayerCount: 2
UndoRedoHistory
Layer: 1
Undoes
EndUndoes
Redoes
EndRedoes
EndUndoRedoHistory
Fore
SplineSet
106 0 m 1,0,-1
 106 1658 l 1,1,-1
 440 1658 l 1,2,-1
 440 1078 l 1,3,4
 566 1204 566 1204 729 1204 c 0,5,6
 834 1204 834 1204 890 1127 c 128,-1,7
 946 1050 946 1050 946 929 c 2,8,-1
 946 0 l 1,9,-1
 612 0 l 1,10,-1
 612 879 l 2,11,12
 612 924 612 924 598 945.5 c 128,-1,13
 584 967 584 967 546 966 c 1,14,15
 502 966 502 966 440 923 c 1,16,-1
 440 0 l 1,17,-1
 106 0 l 1,0,-1
EndSplineSet
EndChar

StartChar: i
Encoding: 105 105 73
Width: 545
GlyphClass: 2
Flags: W
AnchorPoint: "Anchor-0" 277 0 basechar 0
LayerCount: 2
UndoRedoHistory
Layer: 1
Undoes
EndUndoes
Redoes
EndRedoes
EndUndoRedoHistory
Fore
SplineSet
105 1383 m 1,0,-1
 105 1618 l 1,1,-1
 441 1618 l 1,2,-1
 441 1383 l 1,3,-1
 105 1383 l 1,0,-1
107 0 m 1,4,-1
 107 1184 l 1,5,-1
 441 1184 l 1,6,-1
 441 0 l 1,7,-1
 107 0 l 1,4,-1
EndSplineSet
EndChar

StartChar: j
Encoding: 106 106 74
Width: 565
GlyphClass: 2
Flags: W
LayerCount: 2
UndoRedoHistory
Layer: 1
Undoes
EndUndoes
Redoes
EndRedoes
EndUndoRedoHistory
Fore
SplineSet
129 1383 m 1,0,-1
 129 1618 l 1,1,-1
 465 1618 l 1,2,-1
 465 1383 l 1,3,-1
 129 1383 l 1,0,-1
-19 -339 m 1,4,-1
 -19 -100 l 1,5,6
 29 -108 29 -108 40 -108 c 0,7,8
 131 -108 131 -108 131 -8 c 2,9,-1
 131 1184 l 1,10,-1
 465 1184 l 1,11,-1
 465 -48 l 2,12,13
 465 -192 465 -192 385.5 -279 c 128,-1,14
 306 -366 306 -366 158 -366 c 0,15,16
 72 -366 72 -366 -19 -339 c 1,4,-1
EndSplineSet
EndChar

StartChar: k
Encoding: 107 107 75
Width: 1104
GlyphClass: 2
Flags: W
LayerCount: 2
UndoRedoHistory
Layer: 1
Undoes
EndUndoes
Redoes
EndRedoes
EndUndoRedoHistory
Fore
SplineSet
105 1 m 1,0,-1
 105 1659 l 1,1,-1
 436 1659 l 1,2,-1
 436 740 l 1,3,-1
 723 1184 l 1,4,-1
 1098 1184 l 1,5,-1
 786 699 l 1,6,-1
 1095 0 l 1,7,-1
 730 0 l 1,8,-1
 524 562 l 1,9,-1
 436 451 l 1,10,-1
 436 1 l 1,11,-1
 105 1 l 1,0,-1
EndSplineSet
EndChar

StartChar: l
Encoding: 108 108 76
Width: 561
GlyphClass: 2
Flags: W
LayerCount: 2
UndoRedoHistory
Layer: 1
Undoes
EndUndoes
Redoes
EndRedoes
EndUndoRedoHistory
Fore
SplineSet
118 0 m 1,0,-1
 118 1658 l 1,1,-1
 452 1658 l 1,2,-1
 452 0 l 1,3,-1
 118 0 l 1,0,-1
EndSplineSet
EndChar

StartChar: m
Encoding: 109 109 77
Width: 1542
GlyphClass: 2
Flags: W
LayerCount: 2
UndoRedoHistory
Layer: 1
Undoes
EndUndoes
Redoes
EndRedoes
EndUndoRedoHistory
Fore
SplineSet
104 0 m 1,0,-1
 104 1184 l 1,1,-1
 431 1184 l 1,2,-1
 431 1088 l 1,3,4
 550 1206 550 1206 713 1206 c 0,5,6
 783 1206 783 1206 835.5 1170 c 128,-1,7
 888 1134 888 1134 915 1066 c 1,8,9
 1040 1206 1040 1206 1218 1206 c 0,10,11
 1322 1206 1322 1206 1384 1130 c 128,-1,12
 1446 1054 1446 1054 1446 920 c 2,13,-1
 1446 0 l 1,14,-1
 1118 0 l 1,15,-1
 1118 886 l 2,16,17
 1118 935 1118 935 1101 957 c 128,-1,18
 1084 979 1084 979 1048 977 c 0,19,20
 994 975 994 975 939 934 c 1,21,-1
 939 920 l 1,22,-1
 939 0 l 1,23,-1
 614 0 l 1,24,-1
 614 886 l 2,25,26
 614 934 614 934 596.5 956.5 c 128,-1,27
 579 979 579 979 543 977 c 0,28,29
 493 975 493 975 431 932 c 1,30,-1
 431 0 l 1,31,-1
 104 0 l 1,0,-1
EndSplineSet
EndChar

StartChar: n
Encoding: 110 110 78
Width: 1039
GlyphClass: 2
Flags: W
LayerCount: 2
UndoRedoHistory
Layer: 1
Undoes
EndUndoes
Redoes
EndRedoes
EndUndoRedoHistory
Fore
SplineSet
104 0 m 1,0,-1
 104 1184 l 1,1,-1
 438 1184 l 1,2,-1
 438 1066 l 1,3,4
 579 1204 579 1204 725 1204 c 0,5,6
 830 1204 830 1204 886 1127 c 128,-1,7
 942 1050 942 1050 942 929 c 2,8,-1
 942 0 l 1,9,-1
 608 0 l 1,10,-1
 608 879 l 2,11,12
 608 924 608 924 594 945.5 c 128,-1,13
 580 967 580 967 542 966 c 1,14,15
 500 966 500 966 438 925 c 1,16,-1
 438 0 l 1,17,-1
 104 0 l 1,0,-1
EndSplineSet
EndChar

StartChar: o
Encoding: 111 111 79
Width: 989
GlyphClass: 2
Flags: W
AnchorPoint: "Anchor-0" 551 0 basechar 0
LayerCount: 2
UndoRedoHistory
Layer: 1
Undoes
EndUndoes
Redoes
EndRedoes
EndUndoRedoHistory
Fore
SplineSet
493 -21 m 128,-1,1
 299 -21 299 -21 190 79 c 128,-1,2
 81 179 81 179 81 368 c 2,3,-1
 81 815 l 2,4,5
 81 1005 81 1005 190 1104.5 c 128,-1,6
 299 1204 299 1204 493 1204 c 128,-1,7
 687 1204 687 1204 797.5 1104 c 128,-1,8
 908 1004 908 1004 908 815 c 2,9,-1
 908 368 l 2,10,11
 908 179 908 179 797.5 79 c 128,-1,0
 687 -21 687 -21 493 -21 c 128,-1,1
493 203 m 0,12,13
 541 203 541 203 559.5 238.5 c 128,-1,14
 578 274 578 274 578 345 c 2,15,-1
 578 838 l 2,16,17
 578 910 578 910 559.5 945.5 c 128,-1,18
 541 981 541 981 493 981 c 0,19,20
 447 981 447 981 428.5 944.5 c 128,-1,21
 410 908 410 908 410 838 c 2,22,-1
 410 345 l 2,23,24
 410 276 410 276 428.5 239.5 c 128,-1,25
 447 203 447 203 493 203 c 0,12,13
EndSplineSet
EndChar

StartChar: p
Encoding: 112 112 80
Width: 1034
GlyphClass: 2
Flags: W
LayerCount: 2
UndoRedoHistory
Layer: 1
Undoes
EndUndoes
Redoes
EndRedoes
EndUndoRedoHistory
Fore
SplineSet
528 197 m 0,0,1
 529 197 529 197 530 197 c 0,2,3
 572 198 572 198 592 234 c 0,4,5
 612 272 612 272 613 331 c 2,6,-1
 613 879 l 2,7,8
 613 933 613 933 591 969 c 0,9,10
 571 1001 571 1001 534 1001 c 0,11,12
 530 1001 530 1001 525 1001 c 0,13,14
 487 998 487 998 438 962 c 1,15,-1
 438 226 l 1,16,17
 486 197 486 197 528 197 c 0,0,1
104 -390 m 1,18,-1
 104 1184 l 1,19,-1
 438 1184 l 1,20,-1
 438 1097 l 1,21,22
 560 1204 560 1204 684 1204 c 0,23,24
 690 1204 690 1204 695 1204 c 0,25,26
 823 1200 823 1200 885.5 1102 c 128,-1,27
 948 1004 948 1004 948 854 c 2,28,-1
 948 349 l 2,29,30
 948 180 948 180 880.5 79.5 c 128,-1,31
 813 -21 813 -21 688 -21 c 0,32,33
 564 -21 564 -21 438 89 c 1,34,-1
 438 -390 l 1,35,-1
 104 -390 l 1,18,-1
EndSplineSet
EndChar

StartChar: q
Encoding: 113 113 81
Width: 1033
GlyphClass: 2
Flags: W
LayerCount: 2
UndoRedoHistory
Layer: 1
Undoes
EndUndoes
Redoes
EndRedoes
EndUndoRedoHistory
Fore
SplineSet
507 194 m 0,0,1
 544 194 544 194 597 227 c 1,2,-1
 597 966 l 1,3,4
 545 994 545 994 509 994 c 0,5,6
 465 994 465 994 443 958.5 c 128,-1,7
 421 923 421 923 421 866 c 2,8,-1
 421 326 l 2,9,10
 421 268 421 268 442 231 c 128,-1,11
 463 194 463 194 507 194 c 0,0,1
597 -390 m 1,12,-1
 597 96 l 1,13,14
 481 -20 481 -20 361 -21 c 1,15,16
 227 -21 227 -21 156.5 72 c 128,-1,17
 86 165 86 165 86 348 c 2,18,-1
 86 829 l 2,19,20
 86 998 86 998 156.5 1101 c 128,-1,21
 227 1204 227 1204 361 1204 c 0,22,23
 485 1204 485 1204 597 1105 c 1,24,-1
 597 1184 l 1,25,-1
 931 1184 l 1,26,-1
 931 -390 l 1,27,-1
 597 -390 l 1,12,-1
EndSplineSet
EndChar

StartChar: r
Encoding: 114 114 82
Width: 760
GlyphClass: 2
Flags: W
LayerCount: 2
UndoRedoHistory
Layer: 1
Undoes
EndUndoes
Redoes
EndRedoes
EndUndoRedoHistory
Fore
SplineSet
108 0 m 1,0,-1
 108 1184 l 1,1,-1
 442 1184 l 1,2,-1
 442 987 l 1,3,4
 551 1199 551 1199 679 1199 c 0,5,6
 697 1199 697 1199 726 1191 c 1,7,-1
 726 895 l 1,8,9
 698 902 698 902 671 902 c 1,10,11
 534 895 534 895 442 759 c 1,12,-1
 442 0 l 1,13,-1
 108 0 l 1,0,-1
EndSplineSet
EndChar

StartChar: s
Encoding: 115 115 83
Width: 865
GlyphClass: 2
Flags: W
AnchorPoint: "Anchor-1" 450 0 basechar 0
LayerCount: 2
UndoRedoHistory
Layer: 1
Undoes
EndUndoes
Redoes
EndRedoes
EndUndoRedoHistory
Fore
SplineSet
451 -21 m 0,0,1
 300 -21 300 -21 200 50.5 c 128,-1,2
 100 122 100 122 39 277 c 1,3,-1
 270 378 l 1,4,5
 304 294 304 294 350 248 c 0,6,7
 391 206 391 206 436 206 c 0,8,9
 441 206 441 206 446 206 c 1,10,11
 477 208 477 208 498 230.5 c 128,-1,12
 519 253 519 253 518 286 c 0,13,14
 517 303 517 303 505.5 322.5 c 128,-1,15
 494 342 494 342 462 372.5 c 128,-1,16
 430 403 430 403 417.5 414 c 128,-1,17
 405 425 405 425 360 463 c 2,18,-1
 268 542 l 1,19,20
 67 712 67 712 67 874 c 0,21,22
 66 970 66 970 118 1047 c 0,23,24
 168 1123 168 1123 251 1163.5 c 128,-1,25
 334 1204 334 1204 431 1204 c 0,26,27
 576 1204 576 1204 673.5 1125 c 128,-1,28
 771 1046 771 1046 811 900 c 1,29,-1
 595 799 l 1,30,31
 575 866 575 866 537 917 c 128,-1,32
 499 968 499 968 451 971 c 1,33,34
 449 971 449 971 448 971 c 0,35,36
 412 972 412 972 392 952 c 0,37,38
 370 932 370 932 369 902 c 1,39,40
 365 854 365 854 511 732 c 0,41,42
 523 721 523 721 529 716 c 2,43,-1
 618 636 l 1,44,45
 670 591 670 591 696 565.5 c 128,-1,46
 722 540 722 540 759 495 c 128,-1,47
 796 450 796 450 812.5 403 c 128,-1,48
 829 356 829 356 829 302 c 0,49,50
 829 201 829 201 775 126 c 128,-1,51
 721 51 721 51 636.5 15 c 128,-1,52
 552 -21 552 -21 451 -21 c 0,0,1
EndSplineSet
EndChar

StartChar: t
Encoding: 116 116 84
Width: 724
GlyphClass: 2
Flags: W
AnchorPoint: "Anchor-1" 450 0 basechar 0
LayerCount: 2
UndoRedoHistory
Layer: 1
Undoes
EndUndoes
Redoes
EndRedoes
EndUndoRedoHistory
Fore
SplineSet
440 -14 m 0,0,1
 385 -12 385 -12 340.5 1.5 c 128,-1,2
 296 15 296 15 265 36 c 128,-1,3
 234 57 234 57 211 89 c 128,-1,4
 188 121 188 121 174.5 155 c 128,-1,5
 161 189 161 189 153 234 c 128,-1,6
 145 279 145 279 142 320.5 c 128,-1,7
 139 362 139 362 139 414 c 2,8,-1
 139 966 l 1,9,-1
 26 966 l 1,10,-1
 26 1184 l 1,11,-1
 139 1184 l 1,12,-1
 139 1543 l 1,13,-1
 476 1543 l 1,14,-1
 476 1184 l 1,15,-1
 646 1184 l 1,16,-1
 646 966 l 1,17,-1
 476 966 l 1,18,-1
 476 354 l 2,19,20
 476 261 476 261 583 258 c 0,21,22
 596 257 596 257 612.5 258 c 128,-1,23
 629 259 629 259 639.5 260.5 c 128,-1,24
 650 262 650 262 660.5 264 c 128,-1,25
 671 266 671 266 672 266 c 1,26,-1
 672 3 l 1,27,28
 565 -15 565 -15 474 -15 c 0,29,30
 457 -15 457 -15 440 -14 c 0,0,1
EndSplineSet
EndChar

StartChar: u
Encoding: 117 117 85
Width: 1030
GlyphClass: 2
Flags: W
AnchorPoint: "Anchor-0" 760 0 basechar 0
LayerCount: 2
UndoRedoHistory
Layer: 1
Undoes
EndUndoes
Redoes
EndRedoes
EndUndoRedoHistory
Fore
SplineSet
311 -20 m 0,0,1
 206 -20 206 -20 150 57 c 128,-1,2
 94 134 94 134 94 255 c 2,3,-1
 94 1184 l 1,4,-1
 428 1184 l 1,5,-1
 428 295 l 2,6,7
 428 251 428 251 443.5 228.5 c 128,-1,8
 459 206 459 206 496 207 c 0,9,10
 536 208 536 208 591 243 c 1,11,-1
 591 1184 l 1,12,-1
 925 1184 l 1,13,-1
 925 0 l 1,14,-1
 591 0 l 1,15,-1
 591 109 l 1,16,17
 454 -20 454 -20 311 -20 c 0,0,1
EndSplineSet
EndChar

StartChar: v
Encoding: 118 118 86
Width: 863
GlyphClass: 2
Flags: W
LayerCount: 2
UndoRedoHistory
Layer: 1
Undoes
EndUndoes
Redoes
EndRedoes
EndUndoRedoHistory
Fore
SplineSet
257 0 m 1,0,-1
 21 1184 l 1,1,-1
 341 1184 l 1,2,-1
 438 426 l 1,3,-1
 528 1184 l 1,4,-1
 847 1184 l 1,5,-1
 606 0 l 1,6,-1
 257 0 l 1,0,-1
EndSplineSet
EndChar

StartChar: w
Encoding: 119 119 87
Width: 1225
GlyphClass: 2
Flags: W
LayerCount: 2
UndoRedoHistory
Layer: 1
Undoes
EndUndoes
Redoes
EndRedoes
EndUndoRedoHistory
Fore
SplineSet
218 0 m 1,0,-1
 43 1184 l 1,1,-1
 322 1184 l 1,2,-1
 407 512 l 1,3,-1
 501 1184 l 1,4,-1
 742 1184 l 1,5,-1
 823 497 l 1,6,-1
 922 1184 l 1,7,-1
 1181 1184 l 1,8,-1
 1002 0 l 1,9,-1
 717 0 l 1,10,-1
 615 663 l 1,11,-1
 502 0 l 1,12,-1
 218 0 l 1,0,-1
EndSplineSet
EndChar

StartChar: x
Encoding: 120 120 88
Width: 904
GlyphClass: 2
Flags: W
LayerCount: 2
UndoRedoHistory
Layer: 1
Undoes
EndUndoes
Redoes
EndRedoes
EndUndoRedoHistory
Fore
SplineSet
20 0 m 1,0,-1
 272 649 l 1,1,-1
 33 1184 l 1,2,-1
 369 1184 l 1,3,-1
 496 899 l 1,4,-1
 607 1184 l 1,5,-1
 866 1184 l 1,6,-1
 630 599 l 1,7,-1
 898 0 l 1,8,-1
 561 0 l 1,9,-1
 416 324 l 1,10,-1
 299 0 l 1,11,-1
 20 0 l 1,0,-1
EndSplineSet
EndChar

StartChar: y
Encoding: 121 121 89
Width: 915
GlyphClass: 2
Flags: W
LayerCount: 2
UndoRedoHistory
Layer: 1
Undoes
EndUndoes
Redoes
EndRedoes
EndUndoRedoHistory
Fore
SplineSet
136 -343 m 1,0,-1
 136 -112 l 1,1,2
 246 -112 246 -112 288 -90 c 0,3,4
 326 -70 326 -70 326 -11 c 0,5,6
 326 -4 326 -4 325 3 c 1,7,8
 319 54 319 54 281 189 c 1,9,10
 270 236 270 236 143 686.5 c 128,-1,11
 16 1137 16 1137 5 1184 c 1,12,-1
 320 1184 l 1,13,-1
 467 501 l 1,14,-1
 579 1184 l 1,15,-1
 894 1184 l 1,16,-1
 615 -64 l 2,17,18
 553 -343 553 -343 192 -343 c 0,19,20
 187 -343 187 -343 182 -343 c 1,21,-1
 136 -343 l 1,0,-1
EndSplineSet
EndChar

StartChar: z
Encoding: 122 122 90
Width: 801
GlyphClass: 2
Flags: W
LayerCount: 2
UndoRedoHistory
Layer: 1
Undoes
EndUndoes
Redoes
EndRedoes
EndUndoRedoHistory
Fore
SplineSet
71 0 m 1,0,-1
 71 216 l 1,1,-1
 397 940 l 1,2,-1
 96 940 l 1,3,-1
 96 1184 l 1,4,-1
 743 1184 l 1,5,-1
 743 981 l 1,6,-1
 418 245 l 1,7,-1
 748 245 l 1,8,-1
 748 0 l 1,9,-1
 71 0 l 1,0,-1
EndSplineSet
EndChar

StartChar: braceleft
Encoding: 123 123 91
Width: 767
GlyphClass: 2
Flags: W
LayerCount: 2
UndoRedoHistory
Layer: 1
Undoes
EndUndoes
Redoes
EndRedoes
EndUndoRedoHistory
Fore
SplineSet
703 -399 m 1,0,1
 621 -399 621 -399 558.5 -394 c 128,-1,2
 496 -389 496 -389 446.5 -376 c 128,-1,3
 397 -363 397 -363 363 -346.5 c 128,-1,4
 329 -330 329 -330 304.5 -301.5 c 128,-1,5
 280 -273 280 -273 265.5 -243 c 128,-1,6
 251 -213 251 -213 243 -166 c 128,-1,7
 235 -119 235 -119 232.5 -73.5 c 128,-1,8
 230 -28 230 -28 230 39 c 2,9,-1
 230 208 l 2,10,11
 230 270 230 270 229.5 305.5 c 128,-1,12
 229 341 229 341 227 379.5 c 128,-1,13
 225 418 225 418 221.5 437 c 128,-1,14
 218 456 218 456 211 476 c 128,-1,15
 204 496 204 496 195.5 503.5 c 128,-1,16
 187 511 187 511 171.5 518 c 128,-1,17
 156 525 156 525 139.5 526.5 c 128,-1,18
 123 528 123 528 97 528 c 1,19,-1
 97 767 l 1,20,21
 123 767 123 767 139.5 768.5 c 128,-1,22
 156 770 156 770 171.5 777 c 128,-1,23
 187 784 187 784 195.5 791.5 c 128,-1,24
 204 799 204 799 211 819 c 128,-1,25
 218 839 218 839 221.5 858 c 128,-1,26
 225 877 225 877 227 915.5 c 128,-1,27
 229 954 229 954 229.5 989.5 c 128,-1,28
 230 1025 230 1025 230 1087 c 2,29,-1
 230 1256 l 2,30,31
 230 1323 230 1323 232.5 1368.5 c 128,-1,32
 235 1414 235 1414 243 1461 c 128,-1,33
 251 1508 251 1508 265.5 1538 c 128,-1,34
 280 1568 280 1568 304.5 1596.5 c 128,-1,35
 329 1625 329 1625 363 1641.5 c 128,-1,36
 397 1658 397 1658 446.5 1671 c 128,-1,37
 496 1684 496 1684 558.5 1689 c 128,-1,38
 621 1694 621 1694 703 1694 c 1,39,-1
 703 1470 l 1,40,41
 646 1470 646 1470 616.5 1463.5 c 128,-1,42
 587 1457 587 1457 568.5 1430 c 128,-1,43
 550 1403 550 1403 545 1361 c 128,-1,44
 540 1319 540 1319 540 1238 c 2,45,-1
 540 1048 l 2,46,47
 540 863 540 863 501.5 767 c 128,-1,48
 463 671 463 671 363 648 c 1,49,50
 463 624 463 624 501.5 528 c 128,-1,51
 540 432 540 432 540 247 c 2,52,-1
 540 57 l 2,53,54
 540 -24 540 -24 545 -66 c 128,-1,55
 550 -108 550 -108 568.5 -135 c 128,-1,56
 587 -162 587 -162 616.5 -168.5 c 128,-1,57
 646 -175 646 -175 703 -175 c 1,58,-1
 703 -399 l 1,0,1
EndSplineSet
EndChar

StartChar: bar
Encoding: 124 124 92
Width: 538
GlyphClass: 2
Flags: W
LayerCount: 2
UndoRedoHistory
Layer: 1
Undoes
EndUndoes
Redoes
EndRedoes
EndUndoRedoHistory
Fore
SplineSet
131 -366 m 1,0,-1
 132 1658 l 1,1,-1
 407 1658 l 1,2,-1
 407 -366 l 1,3,-1
 131 -366 l 1,0,-1
EndSplineSet
EndChar

StartChar: braceright
Encoding: 125 125 93
Width: 780
GlyphClass: 2
Flags: W
LayerCount: 2
UndoRedoHistory
Layer: 1
Undoes
EndUndoes
Redoes
EndRedoes
EndUndoRedoHistory
Fore
SplineSet
77 -399 m 1,0,-1
 77 -175 l 1,1,2
 135 -175 135 -175 164 -168.5 c 128,-1,3
 193 -162 193 -162 212 -135 c 128,-1,4
 231 -108 231 -108 235.5 -66.5 c 128,-1,5
 240 -25 240 -25 240 57 c 2,6,-1
 240 247 l 2,7,8
 240 432 240 432 278.5 528 c 128,-1,9
 317 624 317 624 418 648 c 1,10,11
 317 671 317 671 278.5 767 c 128,-1,12
 240 863 240 863 240 1048 c 2,13,-1
 240 1238 l 2,14,15
 240 1320 240 1320 235.5 1361.5 c 128,-1,16
 231 1403 231 1403 212 1430 c 128,-1,17
 193 1457 193 1457 164 1463.5 c 128,-1,18
 135 1470 135 1470 77 1470 c 1,19,-1
 77 1694 l 1,20,21
 159 1694 159 1694 222 1689 c 128,-1,22
 285 1684 285 1684 334 1671 c 128,-1,23
 383 1658 383 1658 417.5 1641.5 c 128,-1,24
 452 1625 452 1625 476.5 1596.5 c 128,-1,25
 501 1568 501 1568 515.5 1538 c 128,-1,26
 530 1508 530 1508 538 1461 c 128,-1,27
 546 1414 546 1414 548.5 1368.5 c 128,-1,28
 551 1323 551 1323 551 1256 c 2,29,-1
 551 1087 l 2,30,31
 551 1025 551 1025 551.5 989.5 c 128,-1,32
 552 954 552 954 554 915.5 c 128,-1,33
 556 877 556 877 559 858 c 128,-1,34
 562 839 562 839 569.5 819 c 128,-1,35
 577 799 577 799 585.5 791.5 c 128,-1,36
 594 784 594 784 609.5 777 c 128,-1,37
 625 770 625 770 641.5 768.5 c 128,-1,38
 658 767 658 767 683 767 c 1,39,-1
 683 528 l 1,40,41
 658 528 658 528 641.5 526.5 c 128,-1,42
 625 525 625 525 609.5 518 c 128,-1,43
 594 511 594 511 585.5 503.5 c 128,-1,44
 577 496 577 496 569.5 476 c 128,-1,45
 562 456 562 456 559 437 c 128,-1,46
 556 418 556 418 554 379.5 c 128,-1,47
 552 341 552 341 551.5 305.5 c 128,-1,48
 551 270 551 270 551 208 c 2,49,-1
 551 39 l 2,50,51
 551 -28 551 -28 548.5 -73.5 c 128,-1,52
 546 -119 546 -119 538 -166 c 128,-1,53
 530 -213 530 -213 515.5 -243 c 128,-1,54
 501 -273 501 -273 476.5 -301.5 c 128,-1,55
 452 -330 452 -330 417.5 -346.5 c 128,-1,56
 383 -363 383 -363 334 -376 c 128,-1,57
 285 -389 285 -389 222 -394 c 128,-1,58
 159 -399 159 -399 77 -399 c 1,0,-1
EndSplineSet
EndChar

StartChar: asciitilde
Encoding: 126 126 94
Width: 989
GlyphClass: 2
Flags: W
LayerCount: 2
UndoRedoHistory
Layer: 1
Undoes
EndUndoes
Redoes
EndRedoes
EndUndoRedoHistory
Fore
SplineSet
672 682 m 0,0,1
 633 682 633 682 580 701 c 128,-1,2
 527 720 527 720 485 742.5 c 128,-1,3
 443 765 443 765 398.5 784 c 128,-1,4
 354 803 354 803 328 803 c 128,-1,5
 302 803 302 803 260.5 776 c 128,-1,6
 219 749 219 749 187 705 c 1,7,-1
 82 844 l 1,8,9
 125 917 125 917 194 976.5 c 128,-1,10
 263 1036 263 1036 324 1036 c 0,11,12
 374 1036 374 1036 443 1006 c 128,-1,13
 512 976 512 976 573 946.5 c 128,-1,14
 634 917 634 917 664 917 c 0,15,16
 716 917 716 917 803 1014 c 1,17,-1
 919 894 l 1,18,19
 883 813 883 813 811 747.5 c 128,-1,20
 739 682 739 682 672 682 c 0,0,1
EndSplineSet
EndChar

StartChar: exclamdown
Encoding: 161 161 96
Width: 485
GlyphClass: 2
Flags: W
LayerCount: 2
UndoRedoHistory
Layer: 1
Undoes
EndUndoes
Redoes
EndRedoes
EndUndoRedoHistory
Fore
SplineSet
97 1025 m 1,0,-1
 97 1336 l 1,1,-1
 413 1336 l 1,2,-1
 413 1025 l 1,3,-1
 97 1025 l 1,0,-1
75 -318 m 1,4,-1
 195 915 l 1,5,-1
 311 915 l 1,6,-1
 407 -318 l 1,7,-1
 75 -318 l 1,4,-1
EndSplineSet
EndChar

StartChar: cent
Encoding: 162 162 97
Width: 932
GlyphClass: 2
Flags: W
LayerCount: 2
UndoRedoHistory
Layer: 1
Undoes
EndUndoes
Redoes
EndRedoes
EndUndoRedoHistory
Fore
SplineSet
433 -264 m 1,0,-1
 433 -18 l 1,1,2
 263 -4 263 -4 169.5 100 c 128,-1,3
 76 204 76 204 76 379 c 2,4,-1
 76 807 l 2,5,6
 76 982 76 982 169.5 1085 c 128,-1,7
 263 1188 263 1188 433 1202 c 1,8,-1
 433 1445 l 1,9,-1
 518 1445 l 1,10,-1
 518 1203 l 1,11,12
 696 1196 696 1196 790 1107 c 128,-1,13
 884 1018 884 1018 884 848 c 2,14,-1
 884 723 l 1,15,-1
 562 723 l 1,16,-1
 562 849 l 2,17,18
 562 917 562 917 543.5 942.5 c 128,-1,19
 525 968 525 968 486 968 c 128,-1,20
 447 968 447 968 429.5 937 c 128,-1,21
 412 906 412 906 412 829 c 2,22,-1
 412 353 l 2,23,24
 412 277 412 277 430.5 247.5 c 128,-1,25
 449 218 449 218 487 218 c 0,26,27
 526 218 526 218 544 244.5 c 128,-1,28
 562 271 562 271 562 333 c 2,29,-1
 562 482 l 1,30,-1
 884 482 l 1,31,-1
 884 339 l 2,32,33
 884 170 884 170 789 79 c 128,-1,34
 694 -12 694 -12 518 -20 c 1,35,-1
 518 -264 l 1,36,-1
 433 -264 l 1,0,-1
EndSplineSet
EndChar

StartChar: sterling
Encoding: 163 163 98
Width: 1001
GlyphClass: 2
Flags: W
LayerCount: 2
UndoRedoHistory
Layer: 1
Undoes
EndUndoes
Redoes
EndRedoes
EndUndoRedoHistory
Fore
SplineSet
41 0 m 1,0,-1
 41 188 l 1,1,-1
 163 245 l 1,2,-1
 163 656 l 1,3,-1
 41 656 l 1,4,-1
 41 917 l 1,5,-1
 163 917 l 1,6,-1
 163 1101 l 2,7,8
 163 1177 163 1177 166 1234.5 c 128,-1,9
 169 1292 169 1292 179 1355.5 c 128,-1,10
 189 1419 189 1419 206.5 1464.5 c 128,-1,11
 224 1510 224 1510 254 1553 c 128,-1,12
 284 1596 284 1596 326 1622.5 c 128,-1,13
 368 1649 368 1649 428 1665 c 128,-1,14
 488 1681 488 1681 564 1681 c 0,15,16
 654 1681 654 1681 721 1658.5 c 128,-1,17
 788 1636 788 1636 829 1598 c 128,-1,18
 870 1560 870 1560 895.5 1501.5 c 128,-1,19
 921 1443 921 1443 930.5 1379 c 128,-1,20
 940 1315 940 1315 940 1233 c 2,21,-1
 940 1183 l 1,22,-1
 648 1183 l 1,23,24
 648 1238 648 1238 646 1269 c 128,-1,25
 644 1300 644 1300 636.5 1335.5 c 128,-1,26
 629 1371 629 1371 611.5 1386.5 c 128,-1,27
 594 1402 594 1402 566 1402 c 0,28,29
 547 1402 547 1402 533.5 1394.5 c 128,-1,30
 520 1387 520 1387 511 1368.5 c 128,-1,31
 502 1350 502 1350 497 1331 c 128,-1,32
 492 1312 492 1312 489.5 1276.5 c 128,-1,33
 487 1241 487 1241 486 1213.5 c 128,-1,34
 485 1186 485 1186 485 1137 c 2,35,-1
 485 915 l 1,36,-1
 727 915 l 1,37,-1
 727 656 l 1,38,-1
 485 656 l 1,39,-1
 485 282 l 1,40,-1
 930 282 l 1,41,-1
 930 0 l 1,42,-1
 41 0 l 1,0,-1
EndSplineSet
EndChar

StartChar: currency
Encoding: 164 164 99
Width: 1138
GlyphClass: 2
Flags: W
LayerCount: 2
UndoRedoHistory
Layer: 1
Undoes
EndUndoes
Redoes
EndRedoes
EndUndoRedoHistory
Fore
SplineSet
569 521 m 128,-1,1
 710 521 710 521 807 622 c 128,-1,2
 904 723 904 723 904 866 c 128,-1,3
 904 1009 904 1009 807.5 1110 c 128,-1,4
 711 1211 711 1211 569 1211 c 0,5,6
 428 1211 428 1211 331.5 1110 c 128,-1,7
 235 1009 235 1009 235 866 c 128,-1,8
 235 723 235 723 331.5 622 c 128,-1,0
 428 521 428 521 569 521 c 128,-1,1
114 381 m 1,9,-1
 84 411 l 1,10,-1
 247 573 l 1,11,12
 136 697 136 697 136 866 c 128,-1,13
 136 1035 136 1035 247 1159 c 1,14,-1
 84 1321 l 1,15,-1
 114 1351 l 1,16,-1
 276 1189 l 1,17,18
 398 1304 398 1304 566 1304 c 0,19,20
 567 1304 567 1304 568.5 1304 c 129,-1,21
 570 1304 570 1304 572 1304 c 0,22,23
 740 1304 740 1304 862 1189 c 1,24,-1
 1024 1351 l 1,25,-1
 1054 1321 l 1,26,-1
 892 1159 l 1,27,28
 1002 1034 1002 1034 1002 866 c 0,29,30
 1002 697 1002 697 891 573 c 1,31,-1
 1054 411 l 1,32,-1
 1024 381 l 1,33,-1
 862 543 l 1,34,35
 740 428 740 428 572 428 c 0,36,37
 571 428 571 428 569.5 428 c 129,-1,38
 568 428 568 428 566 428 c 0,39,40
 398 428 398 428 276 543 c 1,41,-1
 114 381 l 1,9,-1
EndSplineSet
EndChar

StartChar: yen
Encoding: 165 165 100
Width: 975
GlyphClass: 2
Flags: W
LayerCount: 2
UndoRedoHistory
Layer: 1
Undoes
EndUndoes
Redoes
EndRedoes
EndUndoRedoHistory
Fore
SplineSet
318 0 m 1,0,-1
 318 244 l 1,1,-1
 149 244 l 1,2,-1
 149 411 l 1,3,-1
 318 411 l 1,4,-1
 318 545 l 1,5,-1
 149 545 l 1,6,-1
 149 717 l 1,7,-1
 277 717 l 1,8,-1
 3 1658 l 1,9,-1
 347 1658 l 1,10,-1
 506 1025 l 1,11,-1
 648 1658 l 1,12,-1
 982 1658 l 1,13,-1
 711 717 l 1,14,-1
 840 717 l 1,15,-1
 840 545 l 1,16,-1
 670 545 l 1,17,-1
 670 411 l 1,18,-1
 840 411 l 1,19,-1
 840 244 l 1,20,-1
 670 244 l 1,21,-1
 670 0 l 1,22,-1
 318 0 l 1,0,-1
EndSplineSet
EndChar

StartChar: brokenbar
Encoding: 166 166 101
Width: 445
GlyphClass: 2
Flags: W
LayerCount: 2
UndoRedoHistory
Layer: 1
Undoes
EndUndoes
Redoes
EndRedoes
EndUndoRedoHistory
Fore
SplineSet
106 824 m 1,0,-1
 106 1658 l 1,1,-1
 339 1658 l 1,2,-1
 339 824 l 1,3,-1
 106 824 l 1,0,-1
106 -366 m 1,4,-1
 106 468 l 1,5,-1
 339 468 l 1,6,-1
 339 -366 l 1,7,-1
 106 -366 l 1,4,-1
EndSplineSet
EndChar

StartChar: section
Encoding: 167 167 102
Width: 969
GlyphClass: 2
Flags: W
LayerCount: 2
UndoRedoHistory
Layer: 1
Undoes
EndUndoes
Redoes
EndRedoes
EndUndoRedoHistory
Fore
SplineSet
525 741 m 1,0,1
 604 785 604 785 604 837 c 0,2,3
 604 890 604 890 542 927 c 2,4,-1
 446 985 l 1,5,6
 406 973 406 973 382 946.5 c 128,-1,7
 358 920 358 920 358 886 c 0,8,9
 358 865 358 865 368.5 844 c 128,-1,10
 379 823 379 823 398 812 c 2,11,-1
 525 741 l 1,0,1
478 -14 m 0,12,13
 324 -14 324 -14 229.5 78 c 128,-1,14
 135 170 135 170 97 322 c 1,15,-1
 320 381 l 1,16,17
 343 319 343 319 385.5 270 c 128,-1,18
 428 221 428 221 484 221 c 0,19,20
 536 221 536 221 566.5 246.5 c 128,-1,21
 597 272 597 272 599 316 c 1,22,23
 600 370 600 370 565 411 c 128,-1,24
 530 452 530 452 443 505 c 2,25,-1
 261 617 l 1,26,27
 99 714 99 714 99 865 c 0,28,29
 99 874 99 874 100 883 c 0,30,31
 106 970 106 970 155.5 1033 c 128,-1,32
 205 1096 205 1096 276 1120 c 1,33,34
 205 1158 205 1158 149 1230.5 c 128,-1,35
 93 1303 93 1303 89 1383 c 0,36,37
 88 1393 88 1393 88 1403 c 0,38,39
 88 1492 88 1492 136 1562 c 0,40,41
 189 1638 189 1638 279 1676 c 128,-1,42
 369 1714 369 1714 479 1714 c 0,43,44
 635 1714 635 1714 734.5 1620.5 c 128,-1,45
 834 1527 834 1527 871 1373 c 1,46,-1
 653 1319 l 1,47,48
 631 1393 631 1393 593 1439 c 0,49,50
 556 1484 556 1484 492 1484 c 0,51,52
 491 1484 491 1484 489 1484 c 1,53,54
 440 1482 440 1482 411.5 1458.5 c 128,-1,55
 383 1435 383 1435 383 1389 c 0,56,57
 383 1374 383 1374 387 1360.5 c 128,-1,58
 391 1347 391 1347 396 1336.5 c 128,-1,59
 401 1326 401 1326 412 1314 c 128,-1,60
 423 1302 423 1302 429.5 1295.5 c 128,-1,61
 436 1289 436 1289 451.5 1278.5 c 128,-1,62
 467 1268 467 1268 471.5 1264.5 c 128,-1,63
 476 1261 476 1261 493 1251.5 c 128,-1,64
 510 1242 510 1242 511 1241 c 2,65,-1
 671 1143 l 2,66,67
 856 1029 856 1029 856 860 c 0,68,69
 856 778 856 778 814.5 721.5 c 128,-1,70
 773 665 773 665 694 614 c 1,71,72
 781 543 781 543 823.5 477 c 128,-1,73
 866 411 866 411 866 325 c 0,74,75
 866 172 866 172 762.5 79 c 128,-1,76
 659 -14 659 -14 478 -14 c 0,12,13
EndSplineSet
EndChar

StartChar: dieresis
Encoding: 168 168 103
Width: 870
GlyphClass: 2
Flags: W
LayerCount: 2
UndoRedoHistory
Layer: 1
Undoes
EndUndoes
Redoes
EndRedoes
EndUndoRedoHistory
Fore
SplineSet
521 1355 m 1,0,-1
 521 1658 l 1,1,-1
 790 1658 l 1,2,-1
 790 1355 l 1,3,-1
 521 1355 l 1,0,-1
80 1355 m 1,4,-1
 80 1658 l 1,5,-1
 349 1658 l 1,6,-1
 349 1355 l 1,7,-1
 80 1355 l 1,4,-1
EndSplineSet
EndChar

StartChar: copyright
Encoding: 169 169 104
Width: 1807
GlyphClass: 2
Flags: W
LayerCount: 2
UndoRedoHistory
Layer: 1
Undoes
EndUndoes
Redoes
EndRedoes
EndUndoRedoHistory
Fore
SplineSet
905 -26 m 128,-1,1
 736 -26 736 -26 597 24 c 128,-1,2
 458 74 458 74 365 157 c 128,-1,3
 272 240 272 240 208 352 c 128,-1,4
 144 464 144 464 115.5 584.5 c 128,-1,5
 87 705 87 705 87 832 c 0,6,7
 87 960 87 960 115.5 1080.5 c 128,-1,8
 144 1201 144 1201 208 1313 c 128,-1,9
 272 1425 272 1425 365 1508 c 128,-1,10
 458 1591 458 1591 597 1641 c 128,-1,11
 736 1691 736 1691 905 1691 c 0,12,13
 1073 1691 1073 1691 1211.5 1641 c 128,-1,14
 1350 1591 1350 1591 1442.5 1508 c 128,-1,15
 1535 1425 1535 1425 1599 1313 c 128,-1,16
 1663 1201 1663 1201 1691.5 1080.5 c 128,-1,17
 1720 960 1720 960 1720 832 c 128,-1,18
 1720 704 1720 704 1691.5 583.5 c 128,-1,19
 1663 463 1663 463 1599.5 351.5 c 128,-1,20
 1536 240 1536 240 1443.5 156.5 c 128,-1,21
 1351 73 1351 73 1212.5 23.5 c 128,-1,0
 1074 -26 1074 -26 905 -26 c 128,-1,1
908 57 m 0,22,23
 1053 57 1053 57 1174 100 c 128,-1,24
 1295 143 1295 143 1378 217 c 128,-1,25
 1461 291 1461 291 1518 390.5 c 128,-1,26
 1575 490 1575 490 1601.5 600.5 c 128,-1,27
 1628 711 1628 711 1628 831 c 128,-1,28
 1628 951 1628 951 1601.5 1061.5 c 128,-1,29
 1575 1172 1575 1172 1518 1271 c 128,-1,30
 1461 1370 1461 1370 1378 1443 c 128,-1,31
 1295 1516 1295 1516 1174.5 1558.5 c 128,-1,32
 1054 1601 1054 1601 908 1601 c 128,-1,33
 762 1601 762 1601 640.5 1558.5 c 128,-1,34
 519 1516 519 1516 436 1443 c 128,-1,35
 353 1370 353 1370 296 1271 c 128,-1,36
 239 1172 239 1172 212.5 1061.5 c 128,-1,37
 186 951 186 951 186 831 c 128,-1,38
 186 711 186 711 212.5 600.5 c 128,-1,39
 239 490 239 490 296 390.5 c 128,-1,40
 353 291 353 291 436 217 c 128,-1,41
 519 143 519 143 640.5 100 c 128,-1,42
 762 57 762 57 908 57 c 0,22,23
904 253 m 0,43,44
 692 253 692 253 576.5 355.5 c 128,-1,45
 461 458 461 458 461 643 c 2,46,-1
 461 1035 l 2,47,48
 461 1219 461 1219 576.5 1321 c 128,-1,49
 692 1423 692 1423 904 1423 c 0,50,51
 1112 1423 1112 1423 1224 1336 c 128,-1,52
 1336 1249 1336 1249 1336 1076 c 2,53,-1
 1336 962 l 1,54,-1
 989 962 l 1,55,-1
 989 1077 l 2,56,57
 989 1144 989 1144 968 1169.5 c 128,-1,58
 947 1195 947 1195 905 1195 c 0,59,60
 862 1195 862 1195 841.5 1164 c 128,-1,61
 821 1133 821 1133 821 1057 c 2,62,-1
 821 617 l 2,63,64
 821 541 821 541 842 512 c 128,-1,65
 863 483 863 483 905 483 c 0,66,67
 948 483 948 483 968.5 509.5 c 128,-1,68
 989 536 989 536 989 597 c 2,69,-1
 989 729 l 1,70,-1
 1336 729 l 1,71,-1
 1336 603 l 2,72,73
 1336 431 1336 431 1223 342 c 128,-1,74
 1110 253 1110 253 904 253 c 0,43,44
EndSplineSet
EndChar

StartChar: ordfeminine
Encoding: 170 170 105
Width: 990
GlyphClass: 2
Flags: W
LayerCount: 2
UndoRedoHistory
Layer: 1
Undoes
EndUndoes
Redoes
EndRedoes
EndUndoRedoHistory
Fore
SplineSet
483 838 m 0,0,1
 535 838 535 838 569 890 c 1,2,-1
 569 1150 l 1,3,4
 496 1116 496 1116 449 1055 c 128,-1,5
 402 994 402 994 402 938 c 0,6,7
 402 892 402 892 425 865 c 128,-1,8
 448 838 448 838 483 838 c 0,0,1
373 640 m 1,9,10
 255 642 255 642 186 714.5 c 128,-1,11
 117 787 117 787 117 884 c 0,12,13
 117 932 117 932 130.5 974 c 128,-1,14
 144 1016 144 1016 164 1047 c 128,-1,15
 184 1078 184 1078 218 1106.5 c 128,-1,16
 252 1135 252 1135 281.5 1152.5 c 128,-1,17
 311 1170 311 1170 355.5 1189.5 c 128,-1,18
 400 1209 400 1209 429 1219 c 128,-1,19
 458 1229 458 1229 504 1244 c 128,-1,20
 550 1259 550 1259 569 1266 c 1,21,-1
 569 1377 l 2,22,23
 569 1465 569 1465 509 1465 c 0,24,25
 472 1465 472 1465 458 1432 c 128,-1,26
 444 1399 444 1399 437 1314 c 1,27,-1
 149 1322 l 1,28,29
 150 1503 150 1503 251 1593 c 128,-1,30
 352 1683 352 1683 535 1683 c 0,31,32
 701 1683 701 1683 784 1594 c 128,-1,33
 867 1505 867 1505 867 1354 c 2,34,-1
 867 657 l 1,35,-1
 604 657 l 1,36,-1
 586 794 l 1,37,38
 560 726 560 726 505 683 c 128,-1,39
 450 640 450 640 373 640 c 1,9,10
EndSplineSet
EndChar

StartChar: guillemotleft
Encoding: 171 171 106
Width: 1000
GlyphClass: 2
Flags: W
LayerCount: 2
UndoRedoHistory
Layer: 1
Undoes
EndUndoes
Redoes
EndRedoes
EndUndoRedoHistory
Fore
SplineSet
920 70 m 1,0,-1
 519 551 l 1,1,-1
 519 668 l 1,2,-1
 920 1149 l 1,3,-1
 920 825 l 1,4,-1
 716 609 l 1,5,-1
 920 394 l 1,6,-1
 920 70 l 1,0,-1
474 70 m 1,7,-1
 74 551 l 1,8,-1
 74 668 l 1,9,-1
 474 1149 l 1,10,-1
 474 825 l 1,11,-1
 271 609 l 1,12,-1
 474 394 l 1,13,-1
 474 70 l 1,7,-1
EndSplineSet
EndChar

StartChar: logicalnot
Encoding: 172 172 107
Width: 1017
GlyphClass: 2
Flags: W
LayerCount: 2
UndoRedoHistory
Layer: 1
Undoes
EndUndoes
Redoes
EndRedoes
EndUndoRedoHistory
Fore
SplineSet
757 421 m 1,0,-1
 757 741 l 1,1,-1
 95 741 l 1,2,-1
 95 966 l 1,3,-1
 921 966 l 1,4,-1
 921 421 l 1,5,-1
 757 421 l 1,0,-1
EndSplineSet
EndChar

StartChar: uni00AD
Encoding: 173 173 108
Width: 761
GlyphClass: 2
Flags: W
LayerCount: 2
UndoRedoHistory
Layer: 1
Undoes
EndUndoes
Redoes
EndRedoes
EndUndoRedoHistory
Fore
SplineSet
132 557 m 1,0,-1
 132 772 l 1,1,-1
 644 772 l 1,2,-1
 644 557 l 1,3,-1
 132 557 l 1,0,-1
EndSplineSet
EndChar

StartChar: registered
Encoding: 174 174 109
Width: 1824
GlyphClass: 2
Flags: W
LayerCount: 2
UndoRedoHistory
Layer: 1
Undoes
EndUndoes
Redoes
EndRedoes
EndUndoRedoHistory
Fore
SplineSet
913 -28 m 128,-1,1
 745 -28 745 -28 606.5 22 c 128,-1,2
 468 72 468 72 375 155 c 128,-1,3
 282 238 282 238 218.5 349.5 c 128,-1,4
 155 461 155 461 126.5 581 c 128,-1,5
 98 701 98 701 98 828 c 0,6,7
 98 956 98 956 126.5 1076 c 128,-1,8
 155 1196 155 1196 218.5 1307.5 c 128,-1,9
 282 1419 282 1419 375 1502 c 128,-1,10
 468 1585 468 1585 606.5 1634.5 c 128,-1,11
 745 1684 745 1684 913 1684 c 128,-1,12
 1081 1684 1081 1684 1219 1634.5 c 128,-1,13
 1357 1585 1357 1585 1449.5 1502 c 128,-1,14
 1542 1419 1542 1419 1605.5 1307.5 c 128,-1,15
 1669 1196 1669 1196 1697.5 1076 c 128,-1,16
 1726 956 1726 956 1726 828 c 128,-1,17
 1726 700 1726 700 1698 580 c 128,-1,18
 1670 460 1670 460 1606.5 348.5 c 128,-1,19
 1543 237 1543 237 1450.5 154 c 128,-1,20
 1358 71 1358 71 1219.5 21.5 c 128,-1,0
 1081 -28 1081 -28 913 -28 c 128,-1,1
912 81 m 0,21,22
 1051 81 1051 81 1166.5 123 c 128,-1,23
 1282 165 1282 165 1361 236 c 128,-1,24
 1440 307 1440 307 1495 403 c 128,-1,25
 1550 499 1550 499 1575 606 c 128,-1,26
 1600 713 1600 713 1600 827 c 0,27,28
 1600 942 1600 942 1575 1048.5 c 128,-1,29
 1550 1155 1550 1155 1495 1250.5 c 128,-1,30
 1440 1346 1440 1346 1361 1417 c 128,-1,31
 1282 1488 1282 1488 1166.5 1529.5 c 128,-1,32
 1051 1571 1051 1571 912 1571 c 0,33,34
 772 1571 772 1571 655.5 1529.5 c 128,-1,35
 539 1488 539 1488 460 1417.5 c 128,-1,36
 381 1347 381 1347 326 1251 c 128,-1,37
 271 1155 271 1155 246 1048.5 c 128,-1,38
 221 942 221 942 221 827 c 0,39,40
 221 713 221 713 246 606.5 c 128,-1,41
 271 500 271 500 326 403.5 c 128,-1,42
 381 307 381 307 460 236 c 128,-1,43
 539 165 539 165 655.5 123 c 128,-1,44
 772 81 772 81 912 81 c 0,21,22
837 892 m 1,45,-1
 878 892 l 2,46,47
 961 892 961 892 995 931.5 c 128,-1,48
 1029 971 1029 971 1029 1047 c 0,49,50
 1029 1190 1029 1190 901 1190 c 2,51,-1
 837 1190 l 1,52,-1
 837 892 l 1,45,-1
567 315 m 1,53,-1
 567 1349 l 1,54,-1
 907 1349 l 2,55,56
 1095 1349 1095 1349 1189 1285.5 c 128,-1,57
 1283 1222 1283 1222 1283 1066 c 0,58,59
 1283 966 1283 966 1250 906.5 c 128,-1,60
 1217 847 1217 847 1135 808 c 1,61,-1
 1315 315 l 1,62,-1
 1031 315 l 1,63,-1
 892 755 l 1,64,-1
 837 755 l 1,65,-1
 837 315 l 1,66,-1
 567 315 l 1,53,-1
EndSplineSet
EndChar

StartChar: macron
Encoding: 175 175 110
Width: 366
GlyphClass: 2
Flags: W
LayerCount: 2
UndoRedoHistory
Layer: 1
Undoes
EndUndoes
Redoes
EndRedoes
EndUndoRedoHistory
Fore
SplineSet
-67 1501 m 1,0,-1
 -67 1658 l 1,1,-1
 449 1658 l 1,2,-1
 449 1501 l 1,3,-1
 -67 1501 l 1,0,-1
EndSplineSet
EndChar

StartChar: degree
Encoding: 176 176 111
Width: 1105
GlyphClass: 2
Flags: W
LayerCount: 2
UndoRedoHistory
Layer: 1
Undoes
EndUndoes
Redoes
EndRedoes
EndUndoRedoHistory
Fore
SplineSet
551 868 m 0,0,1
 365 868 365 868 252.5 979.5 c 128,-1,2
 140 1091 140 1091 140 1275 c 0,3,4
 140 1460 140 1460 252.5 1570 c 128,-1,5
 365 1680 365 1680 551 1680 c 0,6,7
 738 1680 738 1680 852 1569.5 c 128,-1,8
 966 1459 966 1459 966 1275 c 128,-1,9
 966 1091 966 1091 853 979.5 c 128,-1,10
 740 868 740 868 551 868 c 0,0,1
551 1050 m 0,11,12
 646 1050 646 1050 699.5 1112.5 c 128,-1,13
 753 1175 753 1175 753 1275 c 128,-1,14
 753 1375 753 1375 700 1436 c 128,-1,15
 647 1497 647 1497 551 1497 c 0,16,17
 457 1497 457 1497 404 1436 c 128,-1,18
 351 1375 351 1375 351 1275 c 128,-1,19
 351 1175 351 1175 404 1112.5 c 128,-1,20
 457 1050 457 1050 551 1050 c 0,11,12
EndSplineSet
EndChar

StartChar: plusminus
Encoding: 177 177 112
Width: 984
GlyphClass: 2
Flags: W
LayerCount: 2
UndoRedoHistory
Layer: 1
Undoes
EndUndoes
Redoes
EndRedoes
EndUndoRedoHistory
Fore
SplineSet
132 0 m 1,0,-1
 132 203 l 1,1,-1
 852 203 l 1,2,-1
 852 0 l 1,3,-1
 132 0 l 1,0,-1
387 377 m 1,4,-1
 387 641 l 1,5,-1
 132 641 l 1,6,-1
 132 838 l 1,7,-1
 387 838 l 1,8,-1
 387 1101 l 1,9,-1
 598 1101 l 1,10,-1
 598 838 l 1,11,-1
 852 838 l 1,12,-1
 852 641 l 1,13,-1
 598 641 l 1,14,-1
 598 377 l 1,15,-1
 387 377 l 1,4,-1
EndSplineSet
EndChar

StartChar: uni00B2
Encoding: 178 178 113
Width: 885
GlyphClass: 2
Flags: W
LayerCount: 2
UndoRedoHistory
Layer: 1
Undoes
EndUndoes
Redoes
EndRedoes
EndUndoRedoHistory
Fore
SplineSet
143 621 m 1,0,-1
 143 813 l 1,1,-1
 425 1248 l 2,2,3
 433 1260 433 1260 466 1309 c 128,-1,4
 499 1358 499 1358 512 1380.5 c 128,-1,5
 525 1403 525 1403 539.5 1444.5 c 128,-1,6
 554 1486 554 1486 554 1523 c 0,7,8
 554 1578 554 1578 529 1606 c 0,9,10
 509 1628 509 1628 478 1628 c 0,11,12
 470 1628 470 1628 462 1627 c 0,13,14
 385 1616 385 1616 385 1404 c 1,15,-1
 142 1404 l 1,16,-1
 142 1466 l 2,17,18
 142 1636 142 1636 222 1737 c 128,-1,19
 302 1838 302 1838 469 1838 c 0,20,21
 624 1838 624 1838 710 1754 c 128,-1,22
 796 1670 796 1670 796 1520 c 0,23,24
 796 1483 796 1483 788.5 1445.5 c 128,-1,25
 781 1408 781 1408 772.5 1382.5 c 128,-1,26
 764 1357 764 1357 743 1317.5 c 128,-1,27
 722 1278 722 1278 712 1261 c 128,-1,28
 702 1244 702 1244 673 1199.5 c 128,-1,29
 644 1155 644 1155 636 1143 c 2,30,-1
 428 819 l 1,31,-1
 764 819 l 1,32,-1
 764 621 l 1,33,-1
 143 621 l 1,0,-1
EndSplineSet
EndChar

StartChar: uni00B3
Encoding: 179 179 114
Width: 885
GlyphClass: 2
Flags: W
LayerCount: 2
UndoRedoHistory
Layer: 1
Undoes
EndUndoes
Redoes
EndRedoes
EndUndoRedoHistory
Fore
SplineSet
467 602 m 0,0,1
 371 602 371 602 304.5 629 c 128,-1,2
 238 656 238 656 200.5 708.5 c 128,-1,3
 163 761 163 761 146.5 828.5 c 128,-1,4
 130 896 130 896 130 988 c 2,5,-1
 130 1041 l 1,6,-1
 383 1041 l 1,7,-1
 383 983 l 2,8,9
 383 892 383 892 402.5 854 c 128,-1,10
 422 816 422 816 468 816 c 0,11,12
 513 816 513 816 531 851 c 128,-1,13
 549 886 549 886 549 962 c 0,14,15
 549 1055 549 1055 522 1100 c 128,-1,16
 495 1145 495 1145 425 1145 c 2,17,-1
 364 1145 l 1,18,-1
 364 1310 l 1,19,-1
 420 1310 l 2,20,21
 493 1310 493 1310 521 1356.5 c 128,-1,22
 549 1403 549 1403 549 1497 c 0,23,24
 549 1636 549 1636 463 1636 c 0,25,26
 383 1636 383 1636 383 1497 c 2,27,-1
 383 1412 l 1,28,-1
 130 1412 l 1,29,-1
 130 1501 l 2,30,31
 130 1661 130 1661 218 1749.5 c 128,-1,32
 306 1838 306 1838 461 1838 c 0,33,34
 621 1838 621 1838 708.5 1754.5 c 128,-1,35
 796 1671 796 1671 796 1509 c 0,36,37
 796 1409 796 1409 753.5 1335 c 128,-1,38
 711 1261 711 1261 653 1246 c 1,39,40
 796 1190 796 1190 796 975 c 0,41,42
 796 801 796 801 716.5 701.5 c 128,-1,43
 637 602 637 602 467 602 c 0,0,1
EndSplineSet
EndChar

StartChar: acute
Encoding: 180 180 115
Width: 633
GlyphClass: 2
Flags: W
LayerCount: 2
UndoRedoHistory
Layer: 1
Undoes
EndUndoes
Redoes
EndRedoes
EndUndoRedoHistory
Fore
SplineSet
111 1246 m 1,0,-1
 236 1658 l 1,1,-1
 578 1658 l 1,2,-1
 319 1246 l 1,3,-1
 111 1246 l 1,0,-1
EndSplineSet
EndChar

StartChar: mu
Encoding: 181 181 116
Width: 1006
GlyphClass: 2
Flags: W
LayerCount: 2
UndoRedoHistory
Layer: 1
Undoes
EndUndoes
Redoes
EndRedoes
EndUndoRedoHistory
Fore
SplineSet
86 -382 m 1,0,-1
 85 1184 l 1,1,-1
 419 1184 l 1,2,-1
 419 305 l 2,3,4
 419 260 419 260 433 238.5 c 128,-1,5
 447 217 447 217 485 218 c 1,6,7
 524 218 524 218 580 253 c 1,8,-1
 580 1184 l 1,9,-1
 914 1184 l 1,10,-1
 914 0 l 1,11,-1
 580 0 l 1,12,-1
 580 95 l 1,13,14
 515 33 515 33 445 7 c 0,15,16
 431 1 431 1 420 -2 c 1,17,-1
 420 -382 l 1,18,-1
 86 -382 l 1,0,-1
EndSplineSet
EndChar

StartChar: paragraph
Encoding: 182 182 117
Width: 1067
GlyphClass: 2
Flags: W
LayerCount: 2
UndoRedoHistory
Layer: 1
Undoes
EndUndoes
Redoes
EndRedoes
EndUndoRedoHistory
Fore
SplineSet
386 -196 m 1,0,-1
 386 1004 l 1,1,2
 244 1007 244 1007 158 1092.5 c 128,-1,3
 72 1178 72 1178 72 1329 c 0,4,5
 72 1403 72 1403 93.5 1460.5 c 128,-1,6
 115 1518 115 1518 151 1554.5 c 128,-1,7
 187 1591 187 1591 238.5 1615 c 128,-1,8
 290 1639 290 1639 346.5 1648.5 c 128,-1,9
 403 1658 403 1658 470 1658 c 2,10,-1
 928 1658 l 1,11,-1
 928 -196 l 1,12,-1
 745 -196 l 1,13,-1
 745 1470 l 1,14,-1
 580 1470 l 1,15,-1
 580 -196 l 1,16,-1
 386 -196 l 1,0,-1
EndSplineSet
EndChar

StartChar: periodcentered
Encoding: 183 183 118
Width: 457
GlyphClass: 2
Flags: W
LayerCount: 2
UndoRedoHistory
Layer: 1
Undoes
EndUndoes
Redoes
EndRedoes
EndUndoRedoHistory
Fore
SplineSet
72 616 m 1,0,-1
 72 925 l 1,1,-1
 387 925 l 1,2,-1
 387 616 l 1,3,-1
 72 616 l 1,0,-1
EndSplineSet
EndChar

StartChar: cedilla
Encoding: 184 184 119
Width: 567
GlyphClass: 4
Flags: W
AnchorPoint: "Anchor-1" 229 0 mark 0
LayerCount: 2
UndoRedoHistory
Layer: 1
Undoes
EndUndoes
Redoes
EndRedoes
EndUndoRedoHistory
Fore
SplineSet
108 -544 m 1,0,-1
 108 -399 l 1,1,2
 149 -411 149 -411 204 -415 c 0,3,4
 216 -416 216 -416 228 -416 c 0,5,6
 268 -416 268 -416 306 -405 c 0,7,8
 354 -391 354 -391 354 -356 c 0,9,10
 354 -317 354 -317 321.5 -289.5 c 128,-1,11
 289 -262 289 -262 250 -251 c 128,-1,12
 211 -240 211 -240 165 -237 c 1,13,-1
 165 0 l 1,14,-1
 289 0 l 1,15,-1
 289 -135 l 1,16,17
 407 -140 407 -140 488 -196 c 0,18,19
 570 -253 570 -253 570 -345 c 0,20,21
 570 -420 570 -420 528 -472 c 0,22,23
 485 -526 485 -526 416 -548 c 0,24,25
 350 -569 350 -569 274 -568 c 0,26,27
 270 -568 270 -568 266 -568 c 0,28,29
 186 -567 186 -567 108 -544 c 1,0,-1
EndSplineSet
EndChar

StartChar: uni00B9
Encoding: 185 185 120
Width: 878
GlyphClass: 2
Flags: W
LayerCount: 2
UndoRedoHistory
Layer: 1
Undoes
EndUndoes
Redoes
EndRedoes
EndUndoRedoHistory
Fore
SplineSet
366 621 m 1,0,-1
 366 1547 l 1,1,-1
 162 1497 l 1,2,-1
 162 1684 l 1,3,4
 165 1685 165 1685 194 1695 c 128,-1,5
 223 1705 223 1705 241 1712 c 128,-1,6
 259 1719 259 1719 290.5 1732.5 c 128,-1,7
 322 1746 322 1746 343.5 1757.5 c 128,-1,8
 365 1769 365 1769 387 1785 c 128,-1,9
 409 1801 409 1801 421 1816 c 1,10,-1
 616 1816 l 1,11,-1
 616 621 l 1,12,-1
 366 621 l 1,0,-1
EndSplineSet
EndChar

StartChar: ordmasculine
Encoding: 186 186 121
Width: 990
GlyphClass: 2
Flags: W
LayerCount: 2
UndoRedoHistory
Layer: 1
Undoes
EndUndoes
Redoes
EndRedoes
EndUndoRedoHistory
Fore
SplineSet
493 842 m 0,0,1
 538 842 538 842 557 874 c 128,-1,2
 576 906 576 906 576 970 c 2,3,-1
 576 1353 l 2,4,5
 576 1416 576 1416 557 1448 c 128,-1,6
 538 1480 538 1480 493 1480 c 0,7,8
 412 1480 412 1480 412 1353 c 2,9,-1
 412 970 l 2,10,11
 412 842 412 842 493 842 c 0,0,1
494 639 m 0,12,13
 329 639 329 639 235 723 c 128,-1,14
 141 807 141 807 141 966 c 2,15,-1
 141 1357 l 2,16,17
 141 1516 141 1516 235 1599.5 c 128,-1,18
 329 1683 329 1683 494 1683 c 0,19,20
 656 1683 656 1683 752.5 1598.5 c 128,-1,21
 849 1514 849 1514 849 1357 c 2,22,-1
 849 966 l 2,23,24
 849 809 849 809 752.5 724 c 128,-1,25
 656 639 656 639 494 639 c 0,12,13
EndSplineSet
EndChar

StartChar: guillemotright
Encoding: 187 187 122
Width: 1016
GlyphClass: 2
Flags: W
LayerCount: 2
UndoRedoHistory
Layer: 1
Undoes
EndUndoes
Redoes
EndRedoes
EndUndoRedoHistory
Fore
SplineSet
538 70 m 1,0,-1
 538 394 l 1,1,-1
 747 610 l 1,2,-1
 538 825 l 1,3,-1
 538 1149 l 1,4,-1
 944 668 l 1,5,-1
 944 551 l 1,6,-1
 538 70 l 1,0,-1
92 70 m 1,7,-1
 92 394 l 1,8,-1
 302 610 l 1,9,-1
 92 825 l 1,10,-1
 92 1149 l 1,11,-1
 499 668 l 1,12,-1
 499 551 l 1,13,-1
 92 70 l 1,7,-1
EndSplineSet
EndChar

StartChar: onequarter
Encoding: 188 188 123
Width: 1407
GlyphClass: 2
Flags: W
LayerCount: 2
UndoRedoHistory
Layer: 1
Undoes
EndUndoes
Redoes
EndRedoes
EndUndoRedoHistory
Fore
SplineSet
878 381 m 1,0,-1
 1027 381 l 1,1,-1
 1027 644 l 1,2,-1
 878 381 l 1,0,-1
218 0 m 1,3,-1
 983 1658 l 1,4,-1
 1151 1658 l 1,5,-1
 385 0 l 1,6,-1
 218 0 l 1,3,-1
226 828 m 1,7,-1
 226 1393 l 1,8,-1
 105 1337 l 1,9,-1
 105 1491 l 1,10,11
 239 1562 239 1562 315 1658 c 1,12,-1
 424 1658 l 1,13,-1
 424 828 l 1,14,-1
 226 828 l 1,7,-1
1027 1 m 1,15,-1
 1027 229 l 1,16,-1
 754 229 l 1,17,-1
 754 374 l 1,18,-1
 1044 859 l 1,19,-1
 1197 859 l 1,20,-1
 1197 381 l 1,21,-1
 1304 381 l 1,22,-1
 1304 229 l 1,23,-1
 1197 229 l 1,24,-1
 1197 1 l 1,25,-1
 1027 1 l 1,15,-1
EndSplineSet
EndChar

StartChar: onehalf
Encoding: 189 189 124
Width: 1407
GlyphClass: 2
Flags: W
LayerCount: 2
UndoRedoHistory
Layer: 1
Undoes
EndUndoes
Redoes
EndRedoes
EndUndoRedoHistory
Fore
SplineSet
173 0 m 1,0,-1
 938 1658 l 1,1,-1
 1106 1658 l 1,2,-1
 340 0 l 1,3,-1
 173 0 l 1,0,-1
174 828 m 1,4,-1
 174 1393 l 1,5,-1
 52 1337 l 1,6,-1
 52 1491 l 1,7,8
 184 1560 184 1560 263 1658 c 1,9,-1
 372 1658 l 1,10,-1
 372 828 l 1,11,-1
 174 828 l 1,4,-1
839 1 m 1,12,-1
 839 149 l 1,13,-1
 1030 422 l 2,14,15
 1034 428 1034 428 1048 448 c 128,-1,16
 1062 468 1062 468 1067 475.5 c 128,-1,17
 1072 483 1072 483 1083.5 501.5 c 128,-1,18
 1095 520 1095 520 1100 529.5 c 128,-1,19
 1105 539 1105 539 1113 555.5 c 128,-1,20
 1121 572 1121 572 1124.5 584.5 c 128,-1,21
 1128 597 1128 597 1131 612 c 128,-1,22
 1134 627 1134 627 1134 641 c 0,23,24
 1134 725 1134 725 1068 725 c 0,25,26
 1028 726 1028 726 1010 680 c 0,27,28
 999 651 999 651 998 615 c 0,29,30
 998 594 998 594 1002 571 c 1,31,-1
 825 571 l 1,32,33
 820 619 820 619 820 640 c 0,34,35
 821 746 821 746 884.5 810 c 128,-1,36
 948 874 948 874 1064 874 c 0,37,38
 1181 874 1181 874 1248 813.5 c 128,-1,39
 1315 753 1315 753 1315 644 c 0,40,41
 1315 590 1315 590 1293.5 532.5 c 128,-1,42
 1272 475 1272 475 1248 436 c 128,-1,43
 1224 397 1224 397 1174 327 c 0,44,45
 1169 321 1169 321 1138.5 279.5 c 128,-1,46
 1108 238 1108 238 1076.5 195 c 128,-1,47
 1045 152 1045 152 1043 149 c 1,48,-1
 1299 149 l 1,49,-1
 1299 1 l 1,50,-1
 839 1 l 1,12,-1
EndSplineSet
EndChar

StartChar: threequarters
Encoding: 190 190 125
Width: 1407
GlyphClass: 2
Flags: W
LayerCount: 2
UndoRedoHistory
Layer: 1
Undoes
EndUndoes
Redoes
EndRedoes
EndUndoRedoHistory
Fore
SplineSet
900 381 m 1,0,-1
 1049 381 l 1,1,-1
 1049 644 l 1,2,-1
 900 381 l 1,0,-1
235 0 m 1,3,-1
 1000 1658 l 1,4,-1
 1168 1658 l 1,5,-1
 402 0 l 1,6,-1
 235 0 l 1,3,-1
1049 1 m 1,7,-1
 1049 229 l 1,8,-1
 776 229 l 1,9,-1
 776 374 l 1,10,-1
 1066 859 l 1,11,-1
 1219 859 l 1,12,-1
 1219 381 l 1,13,-1
 1326 381 l 1,14,-1
 1326 229 l 1,15,-1
 1219 229 l 1,16,-1
 1219 1 l 1,17,-1
 1049 1 l 1,7,-1
321 889 m 0,18,19
 216 889 216 889 157 950.5 c 128,-1,20
 98 1012 98 1012 98 1118 c 1,21,-1
 248 1118 l 1,22,23
 248 1075 248 1075 265 1051 c 128,-1,24
 282 1027 282 1027 314 1027 c 0,25,26
 369 1027 369 1027 369 1117 c 0,27,28
 369 1175 369 1175 342 1194 c 128,-1,29
 315 1213 315 1213 243 1213 c 1,30,-1
 243 1334 l 1,31,32
 314 1334 314 1334 342.5 1354 c 128,-1,33
 371 1374 371 1374 371 1430 c 0,34,35
 371 1477 371 1477 358.5 1501.5 c 128,-1,36
 346 1526 346 1526 313 1526 c 0,37,38
 276 1526 276 1526 262 1502.5 c 128,-1,39
 248 1479 248 1479 248 1435 c 1,40,-1
 98 1435 l 1,41,42
 98 1551 98 1551 157 1607.5 c 128,-1,43
 216 1664 216 1664 325 1664 c 0,44,45
 528 1664 528 1664 528 1445 c 0,46,47
 528 1378 528 1378 490 1334 c 128,-1,48
 452 1290 452 1290 400 1284 c 1,49,50
 532 1263 532 1263 532 1119 c 0,51,52
 532 1008 532 1008 478 948.5 c 128,-1,53
 424 889 424 889 321 889 c 0,18,19
EndSplineSet
EndChar

StartChar: questiondown
Encoding: 191 191 126
Width: 1067
GlyphClass: 2
Flags: W
LayerCount: 2
UndoRedoHistory
Layer: 1
Undoes
EndUndoes
Redoes
EndRedoes
EndUndoRedoHistory
Fore
SplineSet
444 999 m 1,0,-1
 444 1316 l 1,1,-1
 770 1316 l 1,2,-1
 770 999 l 1,3,-1
 444 999 l 1,0,-1
557 -369 m 0,4,5
 338 -369 338 -369 221 -259 c 128,-1,6
 104 -149 104 -149 104 51 c 0,7,8
 104 230 104 230 205.5 403 c 128,-1,9
 307 576 307 576 457 681 c 1,10,-1
 457 880 l 1,11,-1
 761 880 l 1,12,-1
 761 616 l 1,13,14
 611 492 611 492 518 342 c 0,15,16
 434 207 434 207 434 68 c 0,17,18
 434 53 434 53 435 38 c 1,19,20
 438 -26 438 -26 470 -54 c 128,-1,21
 502 -82 502 -82 550 -82 c 0,22,23
 594 -82 594 -82 621 -50 c 0,24,25
 645 -21 645 -21 645 24 c 0,26,27
 645 29 645 29 645 34 c 1,28,29
 645 74 645 74 624 140 c 1,30,-1
 926 208 l 1,31,32
 956 88 956 88 956 34 c 1,33,34
 957 16 957 16 957 -0 c 0,35,36
 958 -66 958 -66 942 -124 c 0,37,38
 922 -196 922 -196 876 -251.5 c 128,-1,39
 830 -307 830 -307 748.5 -338 c 128,-1,40
 667 -369 667 -369 557 -369 c 0,4,5
EndSplineSet
EndChar

StartChar: AE
Encoding: 198 198 133
Width: 1450
GlyphClass: 2
Flags: W
LayerCount: 2
UndoRedoHistory
Layer: 1
Undoes
EndUndoes
Redoes
EndRedoes
EndUndoRedoHistory
Fore
SplineSet
552 578 m 1,0,-1
 742 578 l 1,1,-1
 742 1088 l 1,2,-1
 552 578 l 1,0,-1
-32 0 m 1,3,-1
 691 1635 l 1,4,-1
 1406 1635 l 1,5,-1
 1406 1386 l 1,6,-1
 1057 1386 l 1,7,-1
 1057 984 l 1,8,-1
 1304 984 l 1,9,-1
 1304 729 l 1,10,-1
 1057 729 l 1,11,-1
 1057 248 l 1,12,-1
 1406 248 l 1,13,-1
 1406 0 l 1,14,-1
 742 0 l 1,15,-1
 742 347 l 1,16,-1
 476 347 l 1,17,-1
 334 0 l 1,18,-1
 -32 0 l 1,3,-1
EndSplineSet
EndChar

StartChar: Eth
Encoding: 208 208 143
Width: 1146
GlyphClass: 2
Flags: W
LayerCount: 2
UndoRedoHistory
Layer: 1
Undoes
EndUndoes
Redoes
EndRedoes
EndUndoRedoHistory
Fore
SplineSet
106 0 m 1,0,-1
 106 758 l 1,1,-1
 16 758 l 1,2,-1
 16 941 l 1,3,-1
 106 941 l 1,4,-1
 106 1658 l 1,5,-1
 523 1658 l 2,6,7
 686 1658 686 1658 793.5 1629 c 128,-1,8
 901 1600 901 1600 965 1534 c 128,-1,9
 1029 1468 1029 1468 1055 1372.5 c 128,-1,10
 1081 1277 1081 1277 1081 1133 c 2,11,-1
 1081 535 l 2,12,13
 1081 390 1081 390 1055 292.5 c 128,-1,14
 1029 195 1029 195 965 127.5 c 128,-1,15
 901 60 901 60 795 30 c 128,-1,16
 689 0 689 0 528 0 c 2,17,-1
 106 0 l 1,0,-1
472 254 m 1,18,-1
 528 254 l 2,19,20
 570 254 570 254 599.5 259.5 c 128,-1,21
 629 265 629 265 648.5 279 c 128,-1,22
 668 293 668 293 679.5 308.5 c 128,-1,23
 691 324 691 324 696.5 353.5 c 128,-1,24
 702 383 702 383 703.5 409.5 c 128,-1,25
 705 436 705 436 705 481 c 2,26,-1
 705 1194 l 2,27,28
 705 1257 705 1257 700 1291 c 128,-1,29
 695 1325 695 1325 677 1353 c 128,-1,30
 659 1381 659 1381 623.5 1391.5 c 128,-1,31
 588 1402 588 1402 527 1402 c 2,32,-1
 472 1402 l 1,33,-1
 472 941 l 1,34,-1
 555 941 l 1,35,-1
 555 758 l 1,36,-1
 472 758 l 1,37,-1
 472 254 l 1,18,-1
EndSplineSet
EndChar

StartChar: multiply
Encoding: 215 215 150
Width: 993
GlyphClass: 2
Flags: W
LayerCount: 2
UndoRedoHistory
Layer: 1
Undoes
EndUndoes
Redoes
EndRedoes
EndUndoRedoHistory
Fore
SplineSet
264 466 m 1,0,-1
 111 618 l 1,1,-1
 345 852 l 1,2,-1
 111 1084 l 1,3,-1
 263 1237 l 1,4,-1
 497 1004 l 1,5,-1
 730 1237 l 1,6,-1
 882 1087 l 1,7,-1
 648 852 l 1,8,-1
 882 618 l 1,9,-1
 732 466 l 1,10,-1
 497 700 l 1,11,-1
 264 466 l 1,0,-1
EndSplineSet
EndChar

StartChar: Oslash
Encoding: 216 216 151
Width: 1170
GlyphClass: 2
Flags: W
LayerCount: 2
UndoRedoHistory
Layer: 1
Undoes
EndUndoes
Redoes
EndRedoes
EndUndoRedoHistory
Fore
SplineSet
475 675 m 1,0,-1
 716 1325 l 1,1,2
 709 1354 709 1354 696.5 1375 c 128,-1,3
 684 1396 684 1396 659 1409 c 128,-1,4
 634 1422 634 1422 598 1422 c 0,5,6
 565 1422 565 1422 541.5 1410.5 c 128,-1,7
 518 1399 518 1399 505 1382.5 c 128,-1,8
 492 1366 492 1366 485 1337.5 c 128,-1,9
 478 1309 478 1309 476.5 1286 c 128,-1,10
 475 1263 475 1263 475 1228 c 2,11,-1
 475 675 l 1,0,-1
598 236 m 0,12,13
 631 236 631 236 655 247.5 c 128,-1,14
 679 259 679 259 692 276.5 c 128,-1,15
 705 294 705 294 712.5 322 c 128,-1,16
 720 350 720 350 722 374.5 c 128,-1,17
 724 399 724 399 724 433 c 2,18,-1
 724 1096 l 1,19,-1
 475 425 l 1,20,21
 475 392 475 392 477 368.5 c 128,-1,22
 479 345 479 345 486.5 318 c 128,-1,23
 494 291 494 291 506.5 274.5 c 128,-1,24
 519 258 519 258 542.5 247 c 128,-1,25
 566 236 566 236 598 236 c 0,12,13
250 -182 m 1,26,-1
 169 -150 l 1,27,-1
 253 77 l 1,28,29
 99 205 99 205 99 524 c 2,30,-1
 99 1136 l 2,31,32
 99 1270 99 1270 124.5 1367.5 c 128,-1,33
 150 1465 150 1465 207.5 1537 c 128,-1,34
 265 1609 265 1609 362.5 1645 c 128,-1,35
 460 1681 460 1681 598 1681 c 0,36,37
 668 1681 668 1681 727 1671.5 c 128,-1,38
 786 1662 786 1662 834 1644 c 1,39,-1
 896 1810 l 1,40,-1
 977 1778 l 1,41,-1
 913 1604 l 1,42,43
 1011 1540 1011 1540 1055.5 1423 c 128,-1,44
 1100 1306 1100 1306 1100 1136 c 2,45,-1
 1100 524 l 2,46,47
 1100 254 1100 254 983.5 115.5 c 128,-1,48
 867 -23 867 -23 598 -23 c 0,49,50
 435 -23 435 -23 328 29 c 1,51,-1
 250 -182 l 1,26,-1
EndSplineSet
EndChar

StartChar: Thorn
Encoding: 222 222 157
Width: 1147
GlyphClass: 2
Flags: W
LayerCount: 2
UndoRedoHistory
Layer: 1
Undoes
EndUndoes
Redoes
EndRedoes
EndUndoRedoHistory
Fore
SplineSet
472 739 m 1,0,-1
 585 739 l 2,1,2
 693 739 693 739 737.5 788.5 c 128,-1,3
 782 838 782 838 782 958 c 0,4,5
 782 1071 782 1071 740 1121.5 c 128,-1,6
 698 1172 698 1172 596 1172 c 2,7,-1
 472 1172 l 1,8,-1
 472 739 l 1,0,-1
106 0 m 1,9,-1
 106 1658 l 1,10,-1
 472 1658 l 1,11,-1
 472 1437 l 1,12,-1
 631 1437 l 2,13,14
 881 1437 881 1437 999.5 1328 c 128,-1,15
 1118 1219 1118 1219 1118 974 c 0,16,17
 1118 857 1118 857 1097.5 772 c 128,-1,18
 1077 687 1077 687 1038.5 630.5 c 128,-1,19
 1000 574 1000 574 937 540.5 c 128,-1,20
 874 507 874 507 796 493 c 128,-1,21
 718 479 718 479 611 478 c 2,22,-1
 472 477 l 1,23,-1
 472 0 l 1,24,-1
 106 0 l 1,9,-1
EndSplineSet
EndChar

StartChar: germandbls
Encoding: 223 223 158
Width: 1114
GlyphClass: 2
Flags: W
LayerCount: 2
UndoRedoHistory
Layer: 1
Undoes
EndUndoes
Redoes
EndRedoes
EndUndoRedoHistory
Fore
SplineSet
532 -30 m 1,0,-1
 532 225 l 1,1,2
 640 225 640 225 692 289 c 0,3,4
 736 343 736 343 736 460 c 0,5,6
 736 480 736 480 735 503 c 1,7,8
 731 597 731 597 678 657 c 128,-1,9
 625 717 625 717 549 717 c 1,10,-1
 546 975 l 1,11,12
 618 975 618 975 656 1040.5 c 128,-1,13
 694 1106 694 1106 694 1229 c 0,14,15
 694 1337 694 1337 658 1393 c 128,-1,16
 622 1449 622 1449 558 1449 c 0,17,18
 438 1449 438 1449 438 1237 c 0,19,20
 438 1232 438 1232 438 1227 c 1,21,-1
 438 0 l 1,22,-1
 104 0 l 1,23,-1
 104 1226 l 2,24,25
 104 1297 104 1297 117.5 1361.5 c 128,-1,26
 131 1426 131 1426 163 1485.5 c 128,-1,27
 195 1545 195 1545 243 1588 c 128,-1,28
 291 1631 291 1631 364 1657 c 128,-1,29
 437 1683 437 1683 528 1683 c 0,30,31
 758 1683 758 1683 868.5 1567.5 c 128,-1,32
 979 1452 979 1452 979 1235 c 0,33,34
 979 978 979 978 738 879 c 1,35,36
 892 835 892 835 980 723 c 128,-1,37
 1068 611 1068 611 1068 463 c 0,38,39
 1068 205 1068 205 930.5 87.5 c 128,-1,40
 793 -30 793 -30 532 -30 c 1,0,-1
EndSplineSet
EndChar

StartChar: ae
Encoding: 230 230 165
Width: 1369
GlyphClass: 2
Flags: W
LayerCount: 2
UndoRedoHistory
Layer: 1
Undoes
EndUndoes
Redoes
EndRedoes
EndUndoRedoHistory
Fore
SplineSet
855 746 m 1,0,1
 928 756 928 756 954 782 c 1,2,3
 987 799 987 799 1003.5 826 c 128,-1,4
 1020 853 1020 853 1020 901 c 0,5,6
 1020 955 1020 955 1000 984 c 128,-1,7
 980 1013 980 1013 945 1013 c 0,8,9
 905 1013 905 1013 880 975.5 c 128,-1,10
 855 938 855 938 855 878 c 2,11,-1
 855 746 l 1,0,1
442 204 m 0,12,13
 541 204 541 204 541 349 c 1,14,-1
 539 544 l 1,15,16
 506 534 506 534 475 517 c 1,17,18
 415 480 415 480 385.5 422.5 c 128,-1,19
 356 365 356 365 356 317 c 0,20,21
 356 276 356 276 378 240 c 128,-1,22
 400 204 400 204 442 204 c 0,12,13
366 -24 m 1,23,24
 236 -22 236 -22 148.5 58.5 c 128,-1,25
 61 139 61 139 61 277 c 0,26,27
 61 350 61 350 79 409.5 c 128,-1,28
 97 469 97 469 126.5 509 c 128,-1,29
 156 549 156 549 199.5 579.5 c 128,-1,30
 243 610 243 610 286 628 c 128,-1,31
 329 646 329 646 383 659 c 0,32,33
 467 678 467 678 539 691 c 1,34,-1
 539 840 l 2,35,36
 539 952 539 952 465 952 c 0,37,38
 426 952 426 952 407 918.5 c 128,-1,39
 388 885 388 885 388 799 c 1,40,-1
 64 799 l 1,41,42
 64 803 64 803 64 808 c 0,43,44
 64 1010 64 1010 156 1120 c 0,45,46
 250 1233 250 1233 441 1233 c 0,47,48
 534 1233 534 1233 601 1189.5 c 128,-1,49
 668 1146 668 1146 686 1077 c 1,50,51
 713 1144 713 1144 785 1188 c 128,-1,52
 857 1232 857 1232 949 1232 c 0,53,54
 1034 1232 1034 1232 1102.5 1205 c 128,-1,55
 1171 1178 1171 1178 1213 1132.5 c 128,-1,56
 1255 1087 1255 1087 1277 1031.5 c 128,-1,57
 1299 976 1299 976 1299 915 c 0,58,59
 1299 859 1299 859 1280 813.5 c 128,-1,60
 1261 768 1261 768 1230.5 737.5 c 128,-1,61
 1200 707 1200 707 1154.5 682.5 c 128,-1,62
 1109 658 1109 658 1065.5 643.5 c 128,-1,63
 1022 629 1022 629 966 616 c 0,64,65
 955 613 955 613 934 609 c 128,-1,66
 913 605 913 605 888 600.5 c 128,-1,67
 863 596 863 596 855 594 c 1,68,-1
 855 398 l 2,69,70
 855 366 855 366 855.5 350 c 128,-1,71
 856 334 856 334 857.5 308.5 c 128,-1,72
 859 283 859 283 863.5 270 c 128,-1,73
 868 257 868 257 875 242 c 128,-1,74
 882 227 882 227 894 221 c 128,-1,75
 906 215 906 215 922 215 c 0,76,77
 936 215 936 215 946.5 219 c 128,-1,78
 957 223 957 223 963 234 c 128,-1,79
 969 245 969 245 973 253.5 c 128,-1,80
 977 262 977 262 978.5 282.5 c 128,-1,81
 980 303 980 303 980 314 c 128,-1,82
 980 325 980 325 980 351 c 2,83,-1
 980 414 l 1,84,-1
 1289 414 l 1,85,-1
 1289 320 l 2,86,87
 1289 156 1289 156 1201 66.5 c 128,-1,88
 1113 -23 1113 -23 947 -24 c 0,89,90
 889 -24 889 -24 832.5 -3.5 c 128,-1,91
 776 17 776 17 731 60 c 128,-1,92
 686 103 686 103 673 160 c 1,93,94
 636 73 636 73 550 23 c 0,95,96
 469 -24 469 -24 377 -24 c 0,97,98
 372 -24 372 -24 366 -24 c 1,23,24
EndSplineSet
EndChar

StartChar: eth
Encoding: 240 240 175
Width: 1064
GlyphClass: 2
Flags: W
LayerCount: 2
UndoRedoHistory
Layer: 1
Undoes
EndUndoes
Redoes
EndRedoes
EndUndoRedoHistory
Fore
SplineSet
437 593 m 0,0,1
 437 364 437 364 440 329 c 0,2,3
 447 226 447 226 488 203 c 0,4,5
 505 194 505 194 530 194 c 0,6,7
 586 194 586 194 606.5 234 c 128,-1,8
 627 274 627 274 627 353 c 2,9,-1
 627 947 l 1,10,11
 626 948 626 948 614 954 c 128,-1,12
 602 960 602 960 595.5 962.5 c 128,-1,13
 589 965 589 965 576.5 968 c 128,-1,14
 564 971 564 971 551 971 c 0,15,16
 481 971 481 971 459 894.5 c 128,-1,17
 437 818 437 818 437 593 c 0,0,1
961 443 m 2,18,19
 961 336 961 336 939 253.5 c 128,-1,20
 917 171 917 171 879 118.5 c 128,-1,21
 841 66 841 66 785.5 32 c 128,-1,22
 730 -2 730 -2 667.5 -15.5 c 128,-1,23
 605 -29 605 -29 529 -29 c 0,24,25
 334 -29 334 -29 221.5 84 c 128,-1,26
 109 197 109 197 109 433 c 2,27,-1
 109 772 l 2,28,29
 109 959 109 959 212 1074.5 c 128,-1,30
 315 1190 315 1190 469 1190 c 0,31,32
 555 1190 555 1190 626 1151 c 1,33,34
 625 1229 625 1229 610.5 1289 c 128,-1,35
 596 1349 596 1349 576 1375 c 1,36,-1
 396 1282 l 1,37,-1
 359 1368 l 1,38,-1
 523 1454 l 1,39,40
 470 1517 470 1517 274 1517 c 1,41,-1
 289 1725 l 1,42,43
 632 1725 632 1725 762 1587 c 1,44,-1
 944 1684 l 1,45,-1
 980 1596 l 1,46,-1
 822 1513 l 1,47,48
 876 1426 876 1426 918.5 1274 c 128,-1,49
 961 1122 961 1122 961 908 c 2,50,-1
 961 443 l 2,18,19
EndSplineSet
EndChar

StartChar: divide
Encoding: 247 247 182
Width: 929
GlyphClass: 2
Flags: W
LayerCount: 2
UndoRedoHistory
Layer: 1
Undoes
EndUndoes
Redoes
EndRedoes
EndUndoRedoHistory
Fore
SplineSet
371 1086 m 1,0,-1
 371 1341 l 1,1,-1
 578 1341 l 1,2,-1
 578 1086 l 1,3,-1
 371 1086 l 1,0,-1
70 767 m 1,4,-1
 70 947 l 1,5,-1
 859 947 l 1,6,-1
 859 767 l 1,7,-1
 70 767 l 1,4,-1
371 358 m 1,8,-1
 371 613 l 1,9,-1
 578 613 l 1,10,-1
 578 358 l 1,11,-1
 371 358 l 1,8,-1
EndSplineSet
EndChar

StartChar: oslash
Encoding: 248 248 183
Width: 977
GlyphClass: 2
Flags: W
LayerCount: 2
UndoRedoHistory
Layer: 1
Undoes
EndUndoes
Redoes
EndRedoes
EndUndoRedoHistory
Fore
SplineSet
410 527 m 1,0,-1
 568 923 l 1,1,2
 551 981 551 981 493 981 c 0,3,4
 447 981 447 981 428.5 944.5 c 128,-1,5
 410 908 410 908 410 838 c 2,6,-1
 410 527 l 1,0,-1
493 203 m 0,7,8
 541 203 541 203 559.5 238.5 c 128,-1,9
 578 274 578 274 578 345 c 2,10,-1
 578 721 l 1,11,-1
 412 307 l 1,12,13
 421 203 421 203 493 203 c 0,7,8
214 -185 m 1,14,-1
 138 -153 l 1,15,-1
 221 54 l 1,16,17
 81 154 81 154 81 368 c 2,18,-1
 81 815 l 2,19,20
 81 1005 81 1005 190 1104.5 c 128,-1,21
 299 1204 299 1204 493 1204 c 0,22,23
 592 1204 592 1204 670 1178 c 1,24,-1
 751 1380 l 1,25,-1
 830 1348 l 1,26,-1
 747 1142 l 1,27,28
 908 1043 908 1043 908 815 c 2,29,-1
 908 368 l 2,30,31
 908 179 908 179 797.5 79 c 128,-1,32
 687 -21 687 -21 493 -21 c 0,33,34
 379 -21 379 -21 294 14 c 1,35,-1
 214 -185 l 1,14,-1
EndSplineSet
EndChar

StartChar: thorn
Encoding: 254 254 189
Width: 1012
GlyphClass: 2
Flags: W
LayerCount: 2
UndoRedoHistory
Layer: 1
Undoes
EndUndoes
Redoes
EndRedoes
EndUndoRedoHistory
Fore
SplineSet
518 197 m 0,0,1
 519 197 519 197 520 197 c 0,2,3
 562 197 562 197 582 233 c 0,4,5
 602 270 602 270 601 331 c 2,6,-1
 601 879 l 2,7,8
 601 934 601 934 580 969 c 0,9,10
 561 1001 561 1001 522 1001 c 0,11,12
 519 1001 519 1001 515 1001 c 0,13,14
 477 998 477 998 429 962 c 1,15,-1
 429 226 l 1,16,17
 477 197 477 197 518 197 c 0,0,1
95 -390 m 1,18,-1
 95 1658 l 1,19,-1
 429 1658 l 1,20,-1
 429 1097 l 1,21,22
 548 1204 548 1204 672 1204 c 0,23,24
 678 1204 678 1204 683 1204 c 0,25,26
 811 1200 811 1200 873.5 1102 c 128,-1,27
 936 1004 936 1004 936 854 c 2,28,-1
 936 349 l 2,29,30
 936 180 936 180 868.5 79.5 c 128,-1,31
 801 -21 801 -21 676 -21 c 0,32,33
 554 -21 554 -21 429 89 c 1,34,-1
 429 -390 l 1,35,-1
 95 -390 l 1,18,-1
EndSplineSet
EndChar

StartChar: Dcroat
Encoding: 272 272 199
Width: 1205
GlyphClass: 2
Flags: W
LayerCount: 2
UndoRedoHistory
Layer: 1
Undoes
EndUndoes
Redoes
EndRedoes
EndUndoRedoHistory
Fore
SplineSet
131 0 m 1,0,-1
 131 765 l 1,1,-1
 27 765 l 1,2,-1
 27 934 l 1,3,-1
 131 934 l 1,4,-1
 131 1658 l 1,5,-1
 549 1658 l 2,6,7
 712 1658 712 1658 819 1629 c 128,-1,8
 926 1600 926 1600 990 1534 c 128,-1,9
 1054 1468 1054 1468 1080 1372.5 c 128,-1,10
 1106 1277 1106 1277 1106 1133 c 2,11,-1
 1106 535 l 2,12,13
 1106 390 1106 390 1080 292.5 c 128,-1,14
 1054 195 1054 195 990.5 127.5 c 128,-1,15
 927 60 927 60 820.5 30 c 128,-1,16
 714 0 714 0 554 0 c 2,17,-1
 131 0 l 1,0,-1
489 254 m 1,18,-1
 561 254 l 2,19,20
 611 254 611 254 643.5 263.5 c 128,-1,21
 676 273 676 273 695 288 c 128,-1,22
 714 303 714 303 723.5 335 c 128,-1,23
 733 367 733 367 735.5 397 c 128,-1,24
 738 427 738 427 738 481 c 2,25,-1
 738 1194 l 2,26,27
 738 1257 738 1257 733 1291 c 128,-1,28
 728 1325 728 1325 709.5 1353 c 128,-1,29
 691 1381 691 1381 655.5 1391.5 c 128,-1,30
 620 1402 620 1402 559 1402 c 2,31,-1
 489 1402 l 1,32,-1
 489 934 l 1,33,-1
 588 934 l 1,34,-1
 588 765 l 1,35,-1
 489 765 l 1,36,-1
 489 254 l 1,18,-1
EndSplineSet
EndChar

StartChar: Eng
Encoding: 330 330 204
Width: 1161
GlyphClass: 2
Flags: W
LayerCount: 2
UndoRedoHistory
Layer: 1
Undoes
EndUndoes
Redoes
EndRedoes
EndUndoRedoHistory
Fore
SplineSet
502 -429 m 1,0,-1
 502 -210 l 1,1,2
 508 -210 508 -210 515 -210 c 0,3,4
 643 -210 643 -210 693 -172 c 0,5,6
 746 -132 746 -132 746 -27 c 2,7,-1
 746 157 l 1,8,-1
 439 858 l 1,9,-1
 439 0 l 1,10,-1
 129 0 l 1,11,-1
 129 1658 l 1,12,-1
 387 1658 l 1,13,-1
 732 862 l 1,14,-1
 732 1658 l 1,15,-1
 1032 1658 l 1,16,-1
 1032 0 l 2,17,18
 1032 -111 1032 -111 1015.5 -186.5 c 128,-1,19
 999 -262 999 -262 957.5 -319 c 128,-1,20
 916 -376 916 -376 841 -402.5 c 128,-1,21
 766 -429 766 -429 652 -429 c 2,22,-1
 502 -429 l 1,0,-1
EndSplineSet
EndChar

StartChar: Euro
Encoding: 8364 8364 206
Width: 1144
GlyphClass: 2
Flags: W
LayerCount: 2
UndoRedoHistory
Layer: 1
Undoes
EndUndoes
Redoes
EndRedoes
EndUndoRedoHistory
Fore
SplineSet
615 -23 m 0,0,1
 476 -23 476 -23 378.5 15.5 c 128,-1,2
 281 54 281 54 224.5 129 c 128,-1,3
 168 204 168 204 143 302 c 128,-1,4
 118 400 118 400 118 532 c 2,5,-1
 118 645 l 1,6,-1
 14 645 l 1,7,-1
 14 763 l 1,8,-1
 118 763 l 1,9,-1
 118 884 l 1,10,-1
 14 884 l 1,11,-1
 14 1003 l 1,12,-1
 118 1003 l 1,13,-1
 118 1123 l 2,14,15
 118 1258 118 1258 143 1357.5 c 128,-1,16
 168 1457 168 1457 224.5 1531.5 c 128,-1,17
 281 1606 281 1606 378.5 1643.5 c 128,-1,18
 476 1681 476 1681 615 1681 c 0,19,20
 723 1681 723 1681 805.5 1658 c 128,-1,21
 888 1635 888 1635 942 1594 c 128,-1,22
 996 1553 996 1553 1030 1492.5 c 128,-1,23
 1064 1432 1064 1432 1078.5 1361 c 128,-1,24
 1093 1290 1093 1290 1093 1202 c 2,25,-1
 1093 1101 l 1,26,-1
 734 1101 l 1,27,-1
 734 1223 l 2,28,29
 734 1262 734 1262 733 1282 c 128,-1,30
 732 1302 732 1302 726 1333.5 c 128,-1,31
 720 1365 720 1365 708.5 1381 c 128,-1,32
 697 1397 697 1397 673.5 1409.5 c 128,-1,33
 650 1422 650 1422 616 1422 c 128,-1,34
 582 1422 582 1422 558 1409.5 c 128,-1,35
 534 1397 534 1397 521.5 1379.5 c 128,-1,36
 509 1362 509 1362 501.5 1331.5 c 128,-1,37
 494 1301 494 1301 492.5 1276 c 128,-1,38
 491 1251 491 1251 491 1214 c 2,39,-1
 491 1003 l 1,40,-1
 700 1003 l 1,41,-1
 700 884 l 1,42,-1
 491 884 l 1,43,-1
 491 763 l 1,44,-1
 700 763 l 1,45,-1
 700 645 l 1,46,-1
 491 645 l 1,47,-1
 491 441 l 2,48,49
 491 341 491 341 517 288.5 c 128,-1,50
 543 236 543 236 616 236 c 0,51,52
 649 236 649 236 672.5 248.5 c 128,-1,53
 696 261 696 261 708 278 c 128,-1,54
 720 295 720 295 726 326.5 c 128,-1,55
 732 358 732 358 733 380 c 128,-1,56
 734 402 734 402 734 441 c 2,57,-1
 734 527 l 1,58,-1
 1093 527 l 1,59,-1
 1093 472 l 2,60,61
 1093 360 1093 360 1070 274 c 128,-1,62
 1047 188 1047 188 994 119 c 128,-1,63
 941 50 941 50 845.5 13.5 c 128,-1,64
 750 -23 750 -23 615 -23 c 0,0,1
EndSplineSet
EndChar

StartChar: Hbar
Encoding: 294 294 211
Width: 1109
GlyphClass: 2
Flags: W
LayerCount: 2
UndoRedoHistory
Layer: 1
Undoes
EndUndoes
Redoes
EndRedoes
EndUndoRedoHistory
Fore
SplineSet
445 988 m 1,0,-1
 687 988 l 1,1,-1
 687 1258 l 1,2,-1
 445 1258 l 1,3,-1
 445 988 l 1,0,-1
78 0 m 1,4,-1
 78 1258 l 1,5,-1
 -25 1258 l 1,6,-1
 -25 1374 l 1,7,-1
 78 1374 l 1,8,-1
 78 1658 l 1,9,-1
 445 1658 l 1,10,-1
 445 1374 l 1,11,-1
 687 1374 l 1,12,-1
 687 1658 l 1,13,-1
 1053 1658 l 1,14,-1
 1053 1374 l 1,15,-1
 1135 1374 l 1,16,-1
 1135 1258 l 1,17,-1
 1053 1258 l 1,18,-1
 1053 0 l 1,19,-1
 687 0 l 1,20,-1
 687 726 l 1,21,-1
 445 726 l 1,22,-1
 445 0 l 1,23,-1
 78 0 l 1,4,-1
EndSplineSet
EndChar

StartChar: Lslash
Encoding: 321 321 224
Width: 921
GlyphClass: 2
Flags: W
LayerCount: 2
UndoRedoHistory
Layer: 1
Undoes
EndUndoes
Redoes
EndRedoes
EndUndoRedoHistory
Fore
SplineSet
138 0 m 1,0,-1
 138 732 l 1,1,-1
 15 672 l 1,2,-1
 15 876 l 1,3,-1
 138 936 l 1,4,-1
 138 1658 l 1,5,-1
 504 1658 l 1,6,-1
 504 1109 l 1,7,-1
 706 1206 l 1,8,-1
 706 1003 l 1,9,-1
 504 906 l 1,10,-1
 504 248 l 1,11,-1
 883 248 l 1,12,-1
 883 0 l 1,13,-1
 138 0 l 1,0,-1
EndSplineSet
EndChar

StartChar: OE
Encoding: 338 338 228
Width: 1472
GlyphClass: 2
Flags: W
LayerCount: 2
UndoRedoHistory
Layer: 1
Undoes
EndUndoes
Redoes
EndRedoes
EndUndoRedoHistory
Fore
SplineSet
607 253 m 2,0,-1
 706 253 l 1,1,-1
 706 1393 l 1,2,-1
 605 1393 l 2,3,4
 572 1393 572 1393 548 1383 c 128,-1,5
 524 1373 524 1373 509 1351.5 c 128,-1,6
 494 1330 494 1330 485 1308 c 128,-1,7
 476 1286 476 1286 472 1250.5 c 128,-1,8
 468 1215 468 1215 467 1190 c 128,-1,9
 466 1165 466 1165 466 1125 c 2,10,-1
 466 502 l 2,11,12
 466 445 466 445 470 408.5 c 128,-1,13
 474 372 474 372 487 332 c 128,-1,14
 500 292 500 292 530 272.5 c 128,-1,15
 560 253 560 253 607 253 c 2,0,-1
605 0 m 2,16,17
 466 0 466 0 367 39 c 128,-1,18
 268 78 268 78 210 154.5 c 128,-1,19
 152 231 152 231 125.5 332.5 c 128,-1,20
 99 434 99 434 99 569 c 2,21,-1
 99 1064 l 2,22,23
 99 1652 99 1652 600 1652 c 2,24,-1
 1418 1652 l 1,25,-1
 1418 1403 l 1,26,-1
 1072 1403 l 1,27,-1
 1072 984 l 1,28,-1
 1328 984 l 1,29,-1
 1328 728 l 1,30,-1
 1072 728 l 1,31,-1
 1072 248 l 1,32,-1
 1419 248 l 1,33,-1
 1419 0 l 1,34,-1
 605 0 l 2,16,17
EndSplineSet
EndChar

StartChar: Pi
Encoding: 928 928 232
Width: 1248
GlyphClass: 2
Flags: W
LayerCount: 2
UndoRedoHistory
Layer: 1
Undoes
EndUndoes
Redoes
EndRedoes
EndUndoRedoHistory
Fore
SplineSet
106 0 m 1,0,-1
 106 1658 l 1,1,-1
 1142 1658 l 1,2,-1
 1142 0 l 1,3,-1
 817 0 l 1,4,-1
 817 1395 l 1,5,-1
 431 1395 l 1,6,-1
 431 0 l 1,7,-1
 106 0 l 1,0,-1
EndSplineSet
EndChar

StartChar: Tbar
Encoding: 358 358 241
Width: 914
GlyphClass: 2
Flags: W
LayerCount: 2
UndoRedoHistory
Layer: 1
Undoes
EndUndoes
Redoes
EndRedoes
EndUndoRedoHistory
Fore
SplineSet
94 756 m 1,0,-1
 94 933 l 1,1,-1
 275 933 l 1,2,-1
 275 1387 l 1,3,-1
 20 1387 l 1,4,-1
 20 1658 l 1,5,-1
 894 1658 l 1,6,-1
 894 1387 l 1,7,-1
 642 1387 l 1,8,-1
 642 933 l 1,9,-1
 829 933 l 1,10,-1
 829 756 l 1,11,-1
 642 756 l 1,12,-1
 642 0 l 1,13,-1
 275 0 l 1,14,-1
 275 756 l 1,15,-1
 94 756 l 1,0,-1
EndSplineSet
EndChar

StartChar: acutecomb
Encoding: 769 769 261
Width: 468
GlyphClass: 2
Flags: W
LayerCount: 2
UndoRedoHistory
Layer: 1
Undoes
EndUndoes
Redoes
EndRedoes
EndUndoRedoHistory
Fore
SplineSet
61 1246 m 1,0,-1
 187 1658 l 1,1,-1
 529 1658 l 1,2,-1
 270 1246 l 1,3,-1
 61 1246 l 1,0,-1
EndSplineSet
EndChar

StartChar: afii10018
Encoding: 1041 1041 263
Width: 1132
GlyphClass: 2
Flags: W
LayerCount: 2
UndoRedoHistory
Layer: 1
Undoes
EndUndoes
Redoes
EndRedoes
EndUndoRedoHistory
Fore
SplineSet
496 242 m 1,0,-1
 538 242 l 2,1,2
 642 242 642 242 684 300 c 0,3,4
 724 354 724 354 723 471 c 0,5,6
 723 479 723 479 723 488 c 0,7,8
 720 593 720 593 679.5 649 c 128,-1,9
 639 705 639 705 534 705 c 2,10,-1
 496 705 l 1,11,-1
 496 242 l 1,0,-1
129 0 m 1,12,-1
 129 1658 l 1,13,-1
 951 1658 l 1,14,-1
 951 1380 l 1,15,-1
 496 1380 l 1,16,-1
 496 958 l 1,17,-1
 568 958 l 2,18,19
 812 958 812 958 937 842.5 c 128,-1,20
 1062 727 1062 727 1062 481 c 0,21,22
 1062 396 1062 396 1048 327 c 128,-1,23
 1034 258 1034 258 1009.5 208.5 c 128,-1,24
 985 159 985 159 947.5 122 c 128,-1,25
 910 85 910 85 867 62 c 128,-1,26
 824 39 824 39 769 25 c 128,-1,27
 714 11 714 11 658.5 5.5 c 128,-1,28
 603 0 603 0 536 0 c 2,29,-1
 129 0 l 1,12,-1
EndSplineSet
EndChar

StartChar: afii10019
Encoding: 1042 1042 264
Width: 1206
GlyphClass: 2
Flags: W
LayerCount: 2
UndoRedoHistory
Layer: 1
Undoes
EndUndoes
Redoes
EndRedoes
EndUndoRedoHistory
Fore
SplineSet
496 995 m 1,0,-1
 565 995 l 2,1,2
 683 995 683 995 726 1048.5 c 128,-1,3
 769 1102 769 1102 769 1216 c 0,4,5
 769 1412 769 1412 554 1412 c 2,6,-1
 496 1412 l 1,7,-1
 496 995 l 1,0,-1
496 256 m 1,8,-1
 572 256 l 2,9,10
 691 256 691 256 739 314 c 128,-1,11
 787 372 787 372 787 497 c 0,12,13
 787 637 787 637 738 695 c 128,-1,14
 689 753 689 753 567 753 c 2,15,-1
 496 753 l 1,16,-1
 496 256 l 1,8,-1
129 0 m 1,17,-1
 129 1658 l 1,18,-1
 561 1658 l 2,19,20
 654 1658 654 1658 726.5 1648.5 c 128,-1,21
 799 1639 799 1639 870.5 1611 c 128,-1,22
 942 1583 942 1583 988.5 1536.5 c 128,-1,23
 1035 1490 1035 1490 1063 1410 c 0,24,25
 1089 1336 1089 1336 1089 1238 c 0,26,27
 1089 1231 1089 1231 1089 1224 c 0,28,29
 1083 934 1083 934 845 891 c 1,30,31
 988 872 988 872 1063 771 c 128,-1,32
 1138 670 1138 670 1140 492 c 0,33,34
 1140 485 1140 485 1140 477 c 0,35,36
 1140 236 1140 236 1014 120 c 0,37,38
 884 0 884 0 639 0 c 2,39,-1
 129 0 l 1,17,-1
EndSplineSet
EndChar

StartChar: afii10020
Encoding: 1043 1043 265
Width: 944
GlyphClass: 2
Flags: W
LayerCount: 2
UndoRedoHistory
Layer: 1
Undoes
EndUndoes
Redoes
EndRedoes
EndUndoRedoHistory
Fore
SplineSet
129 0 m 1,0,-1
 129 1658 l 1,1,-1
 893 1658 l 1,2,-1
 893 1387 l 1,3,-1
 496 1387 l 1,4,-1
 496 0 l 1,5,-1
 129 0 l 1,0,-1
EndSplineSet
EndChar

StartChar: afii10021
Encoding: 1044 1044 266
Width: 1420
GlyphClass: 2
Flags: W
LayerCount: 2
UndoRedoHistory
Layer: 1
Undoes
EndUndoes
Redoes
EndRedoes
EndUndoRedoHistory
Fore
SplineSet
429 262 m 1,0,-1
 853 262 l 1,1,-1
 853 1398 l 1,2,-1
 701 1398 l 1,3,-1
 682 1046 l 2,4,5
 675 923 675 923 662.5 822 c 128,-1,6
 650 721 650 721 636.5 650.5 c 128,-1,7
 623 580 623 580 601 520 c 128,-1,8
 579 460 579 460 563 425.5 c 128,-1,9
 547 391 547 391 519 355.5 c 128,-1,10
 491 320 491 320 475 304.5 c 128,-1,11
 459 289 459 289 429 262 c 1,0,-1
36 -358 m 1,12,-1
 36 262 l 1,13,-1
 85 262 l 1,14,15
 165 289 165 289 221.5 373 c 128,-1,16
 278 457 278 457 319.5 633.5 c 128,-1,17
 361 810 361 810 380 1085 c 1,18,-1
 423 1658 l 1,19,-1
 1195 1658 l 1,20,-1
 1195 262 l 1,21,-1
 1384 262 l 1,22,-1
 1384 -358 l 1,23,-1
 1140 -358 l 1,24,-1
 1120 0 l 1,25,-1
 311 0 l 1,26,-1
 291 -358 l 1,27,-1
 36 -358 l 1,12,-1
EndSplineSet
EndChar

StartChar: afii10024
Encoding: 1046 1046 269
Width: 1625
GlyphClass: 2
Flags: W
LayerCount: 2
UndoRedoHistory
Layer: 1
Undoes
EndUndoes
Redoes
EndRedoes
EndUndoRedoHistory
Fore
SplineSet
10 0 m 1,0,-1
 359 833 l 1,1,-1
 20 1658 l 1,2,-1
 362 1658 l 1,3,-1
 650 881 l 1,4,-1
 668 881 l 1,5,-1
 668 1658 l 1,6,-1
 957 1658 l 1,7,-1
 957 881 l 1,8,-1
 975 881 l 1,9,-1
 1262 1658 l 1,10,-1
 1604 1658 l 1,11,-1
 1266 833 l 1,12,-1
 1615 0 l 1,13,-1
 1285 0 l 1,14,-1
 975 806 l 1,15,-1
 957 806 l 1,16,-1
 957 0 l 1,17,-1
 668 0 l 1,18,-1
 668 806 l 1,19,-1
 649 806 l 1,20,-1
 339 0 l 1,21,-1
 10 0 l 1,0,-1
EndSplineSet
EndChar

StartChar: afii10025
Encoding: 1047 1047 270
Width: 1075
GlyphClass: 2
Flags: W
LayerCount: 2
UndoRedoHistory
Layer: 1
Undoes
EndUndoes
Redoes
EndRedoes
EndUndoRedoHistory
Fore
SplineSet
545 -30 m 0,0,1
 418 -30 418 -30 327.5 6.5 c 128,-1,2
 237 43 237 43 185 114 c 128,-1,3
 133 185 133 185 109.5 276.5 c 128,-1,4
 86 368 86 368 86 489 c 2,5,-1
 86 548 l 1,6,-1
 429 548 l 1,7,8
 429 489 429 489 430 483 c 0,9,10
 431 359 431 359 456.5 308.5 c 128,-1,11
 482 258 482 258 549 258 c 128,-1,12
 616 258 616 258 638 309 c 128,-1,13
 660 360 660 360 660 478 c 0,14,15
 660 609 660 609 620 669 c 128,-1,16
 580 729 580 729 468 733 c 0,17,18
 466 733 466 733 423.5 733.5 c 128,-1,19
 381 734 381 734 379 734 c 1,20,-1
 379 960 l 1,21,-1
 461 960 l 1,22,23
 577 963 577 963 618.5 1022 c 128,-1,24
 660 1081 660 1081 660 1211 c 0,25,26
 660 1310 660 1310 630 1359.5 c 128,-1,27
 600 1409 600 1409 533 1409 c 0,28,29
 469 1409 469 1409 440.5 1357.5 c 128,-1,30
 412 1306 412 1306 410 1211 c 1,31,-1
 410 1120 l 1,32,-1
 67 1120 l 1,33,-1
 67 1220 l 2,34,35
 67 1440 67 1440 193 1562 c 128,-1,36
 319 1684 319 1684 533 1684 c 0,37,38
 752 1684 752 1684 875 1568 c 128,-1,39
 998 1452 998 1452 998 1233 c 0,40,41
 998 1092 998 1092 940 992.5 c 128,-1,42
 882 893 882 893 794 869 c 1,43,44
 998 793 998 793 998 488 c 0,45,46
 998 370 998 370 973 277.5 c 128,-1,47
 948 185 948 185 895.5 115 c 128,-1,48
 843 45 843 45 754.5 7.5 c 128,-1,49
 666 -30 666 -30 545 -30 c 0,0,1
EndSplineSet
EndChar

StartChar: afii10026
Encoding: 1048 1048 271
Width: 1207
GlyphClass: 2
Flags: W
LayerCount: 2
UndoRedoHistory
Layer: 1
Undoes
EndUndoes
Redoes
EndRedoes
EndUndoRedoHistory
Fore
SplineSet
129 0 m 1,0,-1
 129 1658 l 1,1,-1
 419 1658 l 1,2,-1
 419 712 l 1,3,-1
 840 1658 l 1,4,-1
 1078 1658 l 1,5,-1
 1078 0 l 1,6,-1
 783 0 l 1,7,-1
 783 964 l 1,8,-1
 352 0 l 1,9,-1
 129 0 l 1,0,-1
EndSplineSet
EndChar

StartChar: afii10028
Encoding: 1050 1050 273
Width: 1172
GlyphClass: 2
Flags: W
LayerCount: 2
UndoRedoHistory
Layer: 1
Undoes
EndUndoes
Redoes
EndRedoes
EndUndoRedoHistory
Fore
SplineSet
129 0 m 1,0,-1
 129 1658 l 1,1,-1
 496 1658 l 1,2,-1
 496 999 l 1,3,-1
 531 999 l 1,4,-1
 775 1658 l 1,5,-1
 1138 1658 l 1,6,-1
 837 880 l 1,7,-1
 1149 0 l 1,8,-1
 773 0 l 1,9,-1
 531 726 l 1,10,-1
 496 726 l 1,11,-1
 496 0 l 1,12,-1
 129 0 l 1,0,-1
EndSplineSet
EndChar

StartChar: afii10029
Encoding: 1051 1051 274
Width: 1340
GlyphClass: 2
Flags: W
LayerCount: 2
UndoRedoHistory
Layer: 1
Undoes
EndUndoes
Redoes
EndRedoes
EndUndoRedoHistory
Fore
SplineSet
13 0 m 1,0,-1
 13 258 l 1,1,2
 65 258 65 258 94.5 261 c 128,-1,3
 124 264 124 264 152.5 279.5 c 128,-1,4
 181 295 181 295 195 317.5 c 128,-1,5
 209 340 209 340 223 389 c 128,-1,6
 237 438 237 438 243.5 497.5 c 128,-1,7
 250 557 250 557 259 657 c 128,-1,8
 268 757 268 757 276 870 c 0,9,10
 276 877 276 877 276.5 881 c 128,-1,11
 277 885 277 885 277.5 891.5 c 128,-1,12
 278 898 278 898 278 903 c 2,13,-1
 332 1658 l 1,14,-1
 1211 1658 l 1,15,-1
 1211 0 l 1,16,-1
 844 0 l 1,17,-1
 844 1379 l 1,18,-1
 662 1379 l 1,19,-1
 628 835 l 1,20,21
 605 487 605 487 584 367 c 0,22,23
 549 174 549 174 462 93 c 0,24,25
 365 3 365 3 146 -3 c 0,26,27
 134 -3 134 -3 122 -3 c 0,28,29
 72 -3 72 -3 13 0 c 1,0,-1
EndSplineSet
EndChar

StartChar: afii10030
Encoding: 1052 1052 275
Width: 1441
GlyphClass: 2
Flags: W
LayerCount: 2
UndoRedoHistory
Layer: 1
Undoes
EndUndoes
Redoes
EndRedoes
EndUndoRedoHistory
Fore
SplineSet
117 0 m 1,0,-1
 144 1658 l 1,1,-1
 531 1658 l 1,2,-1
 720 708 l 1,3,-1
 923 1658 l 1,4,-1
 1297 1658 l 1,5,-1
 1324 0 l 1,6,-1
 1063 0 l 1,7,-1
 1038 1073 l 1,8,-1
 818 0 l 1,9,-1
 633 0 l 1,10,-1
 403 1080 l 1,11,-1
 381 0 l 1,12,-1
 117 0 l 1,0,-1
EndSplineSet
EndChar

StartChar: afii10033
Encoding: 1055 1055 278
Width: 1238
GlyphClass: 2
Flags: W
LayerCount: 2
UndoRedoHistory
Layer: 1
Undoes
EndUndoes
Redoes
EndRedoes
EndUndoRedoHistory
Fore
SplineSet
122 0 m 1,0,-1
 122 1658 l 1,1,-1
 1117 1658 l 1,2,-1
 1117 0 l 1,3,-1
 756 0 l 1,4,-1
 756 1396 l 1,5,-1
 483 1396 l 1,6,-1
 483 0 l 1,7,-1
 122 0 l 1,0,-1
EndSplineSet
EndChar

StartChar: afii10034
Encoding: 1056 1056 279
Width: 1157
GlyphClass: 2
Flags: W
LayerCount: 2
UndoRedoHistory
Layer: 1
Undoes
EndUndoes
Redoes
EndRedoes
EndUndoRedoHistory
Fore
SplineSet
488 961 m 1,0,-1
 605 961 l 2,1,2
 704 961 704 961 736.5 1011.5 c 128,-1,3
 769 1062 769 1062 769 1183 c 0,4,5
 769 1226 769 1226 766.5 1255 c 128,-1,6
 764 1284 764 1284 754.5 1314 c 128,-1,7
 745 1344 745 1344 727.5 1361.5 c 128,-1,8
 710 1379 710 1379 679 1390 c 128,-1,9
 648 1401 648 1401 604 1401 c 2,10,-1
 488 1401 l 1,11,-1
 488 961 l 1,0,-1
122 0 m 1,12,-1
 122 1658 l 1,13,-1
 675 1658 l 2,14,15
 895 1658 895 1658 1004 1535 c 128,-1,16
 1113 1412 1113 1412 1113 1177 c 0,17,18
 1113 1084 1113 1084 1096.5 1010 c 128,-1,19
 1080 936 1080 936 1048 885 c 128,-1,20
 1016 834 1016 834 974 798.5 c 128,-1,21
 932 763 932 763 876 743 c 128,-1,22
 820 723 820 723 761.5 714.5 c 128,-1,23
 703 706 703 706 632 706 c 2,24,-1
 488 706 l 1,25,-1
 488 0 l 1,26,-1
 122 0 l 1,12,-1
EndSplineSet
EndChar

StartChar: afii10037
Encoding: 1059 1059 282
Width: 1127
GlyphClass: 2
Flags: W
LayerCount: 2
UndoRedoHistory
Layer: 1
Undoes
EndUndoes
Redoes
EndRedoes
EndUndoRedoHistory
Fore
SplineSet
108 -327 m 1,0,-1
 108 -84 l 1,1,2
 128 -85 128 -85 147 -85 c 0,3,4
 300 -85 300 -85 370 -34 c 0,5,6
 423 5 423 5 424 86 c 0,7,8
 424 122 424 122 413 167 c 2,9,-1
 44 1658 l 1,10,-1
 384 1658 l 1,11,-1
 525 980 l 1,12,-1
 591 532 l 1,13,-1
 641 980 l 1,14,-1
 759 1658 l 1,15,-1
 1104 1658 l 1,16,-1
 763 116 l 2,17,18
 741 19 741 19 717 -48 c 128,-1,19
 693 -115 693 -115 655.5 -167 c 128,-1,20
 618 -219 618 -219 573 -249.5 c 128,-1,21
 528 -280 528 -280 458.5 -299 c 128,-1,22
 389 -318 389 -318 307 -324 c 0,23,24
 247 -328 247 -328 168 -328 c 0,25,26
 139 -328 139 -328 108 -327 c 1,0,-1
EndSplineSet
EndChar

StartChar: afii10038
Encoding: 1060 1060 283
Width: 1553
GlyphClass: 2
Flags: W
LayerCount: 2
UndoRedoHistory
Layer: 1
Undoes
EndUndoes
Redoes
EndRedoes
EndUndoRedoHistory
Fore
SplineSet
958 412 m 0,0,1
 961 412 961 412 964 412 c 0,2,3
 1135 412 1135 412 1135 587 c 2,4,-1
 1135 1090 l 2,5,6
 1135 1274 1135 1274 954 1277 c 0,7,8
 951 1277 951 1277 939.5 1276.5 c 128,-1,9
 928 1276 928 1276 924 1276 c 1,10,-1
 924 414 l 1,11,12
 940 412 940 412 958 412 c 0,0,1
597 412 m 0,13,14
 600 412 600 412 611.5 412.5 c 128,-1,15
 623 413 623 413 627 413 c 1,16,-1
 627 1276 l 1,17,18
 622 1276 622 1276 610 1276.5 c 128,-1,19
 598 1277 598 1277 594 1277 c 0,20,21
 418 1276 418 1276 418 1091 c 2,22,-1
 418 588 l 2,23,24
 418 412 418 412 589 412 c 0,25,26
 593 412 593 412 597 412 c 0,13,14
627 -58 m 1,27,-1
 627 187 l 1,28,-1
 591 186 l 1,29,30
 561 184 561 184 533 184 c 0,31,32
 352 184 352 184 232 283 c 0,33,34
 94 398 94 398 95 592 c 2,35,-1
 95 1087 l 2,36,37
 95 1280 95 1280 231 1394 c 0,38,39
 350 1494 350 1494 529 1494 c 0,40,41
 554 1494 554 1494 580 1492 c 1,42,-1
 627 1491 l 1,43,-1
 627 1758 l 1,44,-1
 924 1758 l 1,45,-1
 924 1491 l 1,46,-1
 962 1492 l 1,47,48
 989 1494 989 1494 1015 1494 c 0,49,50
 1200 1494 1200 1494 1320 1394 c 0,51,52
 1458 1280 1458 1280 1458 1086 c 2,53,-1
 1458 591 l 2,54,55
 1458 399 1458 399 1322 283 c 0,56,57
 1205 183 1205 183 1031 183 c 0,58,59
 1003 183 1003 183 973 186 c 1,60,-1
 924 188 l 1,61,-1
 924 -58 l 1,62,-1
 627 -58 l 1,27,-1
EndSplineSet
EndChar

StartChar: afii10040
Encoding: 1062 1062 285
Width: 1405
GlyphClass: 2
Flags: W
LayerCount: 2
UndoRedoHistory
Layer: 1
Undoes
EndUndoes
Redoes
EndRedoes
EndUndoRedoHistory
Fore
SplineSet
1099 -358 m 1,0,-1
 1052 0 l 1,1,-1
 129 0 l 1,2,-1
 129 1658 l 1,3,-1
 496 1658 l 1,4,-1
 496 248 l 1,5,-1
 775 248 l 1,6,-1
 775 1658 l 1,7,-1
 1142 1658 l 1,8,-1
 1142 248 l 1,9,-1
 1368 248 l 1,10,-1
 1368 -358 l 1,11,-1
 1099 -358 l 1,0,-1
EndSplineSet
EndChar

StartChar: afii10041
Encoding: 1063 1063 286
Width: 1239
GlyphClass: 2
Flags: W
LayerCount: 2
UndoRedoHistory
Layer: 1
Undoes
EndUndoes
Redoes
EndRedoes
EndUndoRedoHistory
Fore
SplineSet
744 0 m 1,0,-1
 744 685 l 1,1,2
 635 669 635 669 551 669 c 0,3,4
 423 669 423 669 319.5 714.5 c 128,-1,5
 216 760 216 760 152.5 852.5 c 128,-1,6
 89 945 89 945 89 1071 c 2,7,-1
 89 1658 l 1,8,-1
 449 1658 l 1,9,-1
 449 1072 l 2,10,11
 449 1027 449 1027 454.5 1000 c 128,-1,12
 460 973 460 973 478.5 946 c 128,-1,13
 497 919 497 919 538 907 c 128,-1,14
 579 895 579 895 644 895 c 0,15,16
 688 895 688 895 744 904 c 1,17,-1
 744 1658 l 1,18,-1
 1111 1658 l 1,19,-1
 1111 0 l 1,20,-1
 744 0 l 1,0,-1
EndSplineSet
EndChar

StartChar: afii10042
Encoding: 1064 1064 287
Width: 1690
GlyphClass: 2
Flags: W
LayerCount: 2
UndoRedoHistory
Layer: 1
Undoes
EndUndoes
Redoes
EndRedoes
EndUndoRedoHistory
Fore
SplineSet
129 0 m 1,0,-1
 129 1658 l 1,1,-1
 475 1658 l 1,2,-1
 475 262 l 1,3,-1
 675 262 l 1,4,-1
 675 1658 l 1,5,-1
 1021 1658 l 1,6,-1
 1021 262 l 1,7,-1
 1215 262 l 1,8,-1
 1215 1658 l 1,9,-1
 1561 1658 l 1,10,-1
 1561 0 l 1,11,-1
 129 0 l 1,0,-1
EndSplineSet
EndChar

StartChar: afii10043
Encoding: 1065 1065 288
Width: 1875
GlyphClass: 2
Flags: W
LayerCount: 2
UndoRedoHistory
Layer: 1
Undoes
EndUndoes
Redoes
EndRedoes
EndUndoRedoHistory
Fore
SplineSet
1519 -358 m 1,0,-1
 1476 0 l 1,1,-1
 129 0 l 1,2,-1
 129 1658 l 1,3,-1
 475 1658 l 1,4,-1
 475 248 l 1,5,-1
 675 248 l 1,6,-1
 675 1658 l 1,7,-1
 1022 1658 l 1,8,-1
 1022 248 l 1,9,-1
 1215 248 l 1,10,-1
 1215 1658 l 1,11,-1
 1562 1658 l 1,12,-1
 1562 248 l 1,13,-1
 1787 248 l 1,14,-1
 1787 -358 l 1,15,-1
 1519 -358 l 1,0,-1
EndSplineSet
EndChar

StartChar: afii10044
Encoding: 1066 1066 289
Width: 1292
GlyphClass: 2
Flags: W
LayerCount: 2
UndoRedoHistory
Layer: 1
Undoes
EndUndoes
Redoes
EndRedoes
EndUndoRedoHistory
Fore
SplineSet
640 242 m 1,0,-1
 699 242 l 2,1,2
 802 242 802 242 844 300 c 0,3,4
 884 354 884 354 884 471 c 0,5,6
 884 479 884 479 884 488 c 0,7,8
 881 593 881 593 840.5 649 c 128,-1,9
 800 705 800 705 695 705 c 2,10,-1
 640 705 l 1,11,-1
 640 242 l 1,0,-1
273 0 m 1,12,-1
 273 1407 l 1,13,-1
 -23 1407 l 1,14,-1
 -23 1658 l 1,15,-1
 640 1658 l 1,16,-1
 640 958 l 1,17,-1
 729 958 l 2,18,19
 973 958 973 958 1098 842.5 c 128,-1,20
 1223 727 1223 727 1223 481 c 0,21,22
 1223 396 1223 396 1209 327 c 128,-1,23
 1195 258 1195 258 1170.5 208.5 c 128,-1,24
 1146 159 1146 159 1108.5 122 c 128,-1,25
 1071 85 1071 85 1028 62 c 128,-1,26
 985 39 985 39 930 25 c 128,-1,27
 875 11 875 11 819.5 5.5 c 128,-1,28
 764 0 764 0 697 0 c 2,29,-1
 273 0 l 1,12,-1
EndSplineSet
EndChar

StartChar: afii10045
Encoding: 1067 1067 290
Width: 1700
GlyphClass: 2
Flags: W
LayerCount: 2
UndoRedoHistory
Layer: 1
Undoes
EndUndoes
Redoes
EndRedoes
EndUndoRedoHistory
Fore
SplineSet
1204 0 m 1,0,-1
 1204 1658 l 1,1,-1
 1571 1658 l 1,2,-1
 1571 0 l 1,3,-1
 1204 0 l 1,0,-1
496 242 m 1,4,-1
 543 242 l 2,5,6
 646 242 646 242 688 300 c 0,7,8
 728 354 728 354 728 471 c 0,9,10
 728 479 728 479 728 488 c 0,11,12
 725 593 725 593 684 649 c 128,-1,13
 643 705 643 705 538 705 c 2,14,-1
 496 705 l 1,15,-1
 496 242 l 1,4,-1
129 0 m 1,16,-1
 129 1658 l 1,17,-1
 496 1658 l 1,18,-1
 496 958 l 1,19,-1
 572 958 l 2,20,21
 816 958 816 958 941.5 842.5 c 128,-1,22
 1067 727 1067 727 1067 481 c 0,23,24
 1067 396 1067 396 1053 327 c 128,-1,25
 1039 258 1039 258 1014.5 208.5 c 128,-1,26
 990 159 990 159 952.5 122 c 128,-1,27
 915 85 915 85 872 62 c 128,-1,28
 829 39 829 39 774 25 c 128,-1,29
 719 11 719 11 663.5 5.5 c 128,-1,30
 608 0 608 0 541 0 c 2,31,-1
 129 0 l 1,16,-1
EndSplineSet
EndChar

StartChar: afii10046
Encoding: 1068 1068 291
Width: 1137
GlyphClass: 2
Flags: W
LayerCount: 2
UndoRedoHistory
Layer: 1
Undoes
EndUndoes
Redoes
EndRedoes
EndUndoRedoHistory
Fore
SplineSet
496 242 m 1,0,-1
 541 242 l 2,1,2
 644 242 644 242 686 300 c 0,3,4
 726 354 726 354 726 471 c 0,5,6
 726 479 726 479 726 488 c 0,7,8
 723 593 723 593 682 649 c 128,-1,9
 641 705 641 705 536 705 c 2,10,-1
 496 705 l 1,11,-1
 496 242 l 1,0,-1
129 0 m 1,12,-1
 129 1658 l 1,13,-1
 496 1658 l 1,14,-1
 496 958 l 1,15,-1
 570 958 l 2,16,17
 814 958 814 958 939.5 842.5 c 128,-1,18
 1065 727 1065 727 1065 481 c 0,19,20
 1065 363 1065 363 1038 276 c 128,-1,21
 1011 189 1011 189 965.5 137 c 128,-1,22
 920 85 920 85 850.5 53.5 c 128,-1,23
 781 22 781 22 707.5 11 c 128,-1,24
 634 0 634 0 538 0 c 2,25,-1
 129 0 l 1,12,-1
EndSplineSet
EndChar

StartChar: afii10047
Encoding: 1069 1069 292
Width: 1175
GlyphClass: 2
Flags: W
LayerCount: 2
UndoRedoHistory
Layer: 1
Undoes
EndUndoes
Redoes
EndRedoes
EndUndoRedoHistory
Fore
SplineSet
578 -17 m 0,0,1
 470 -17 470 -17 388 6 c 128,-1,2
 306 29 306 29 252 70 c 128,-1,3
 198 111 198 111 164 171.5 c 128,-1,4
 130 232 130 232 115.5 303 c 128,-1,5
 101 374 101 374 101 462 c 2,6,-1
 101 549 l 1,7,-1
 460 549 l 1,8,-1
 460 441 l 2,9,10
 460 402 460 402 461 382 c 128,-1,11
 462 362 462 362 468 330.5 c 128,-1,12
 474 299 474 299 485.5 283 c 128,-1,13
 497 267 497 267 520.5 254.5 c 128,-1,14
 544 242 544 242 578 242 c 128,-1,15
 612 242 612 242 636 254.5 c 128,-1,16
 660 267 660 267 672.5 284.5 c 128,-1,17
 685 302 685 302 692.5 332.5 c 128,-1,18
 700 363 700 363 701.5 388 c 128,-1,19
 703 413 703 413 703 450 c 2,20,-1
 703 738 l 1,21,-1
 431 738 l 1,22,-1
 431 924 l 1,23,-1
 703 924 l 1,24,-1
 703 1223 l 2,25,26
 703 1323 703 1323 677 1375.5 c 128,-1,27
 651 1428 651 1428 578 1428 c 0,28,29
 545 1428 545 1428 521.5 1415.5 c 128,-1,30
 498 1403 498 1403 486 1386 c 128,-1,31
 474 1369 474 1369 468 1337.5 c 128,-1,32
 462 1306 462 1306 461 1284 c 128,-1,33
 460 1262 460 1262 460 1223 c 2,34,-1
 460 1111 l 1,35,-1
 101 1111 l 1,36,-1
 101 1192 l 2,37,38
 101 1281 101 1281 115 1353 c 128,-1,39
 129 1425 129 1425 162.5 1488.5 c 128,-1,40
 196 1552 196 1552 249.5 1595 c 128,-1,41
 303 1638 303 1638 386 1662.5 c 128,-1,42
 469 1687 469 1687 578 1687 c 0,43,44
 717 1687 717 1687 815 1648.5 c 128,-1,45
 913 1610 913 1610 969.5 1535 c 128,-1,46
 1026 1460 1026 1460 1051 1362 c 128,-1,47
 1076 1264 1076 1264 1076 1132 c 2,48,-1
 1076 541 l 2,49,50
 1076 406 1076 406 1051 306.5 c 128,-1,51
 1026 207 1026 207 969.5 132.5 c 128,-1,52
 913 58 913 58 815.5 20.5 c 128,-1,53
 718 -17 718 -17 578 -17 c 0,0,1
EndSplineSet
EndChar

StartChar: afii10048
Encoding: 1070 1070 293
Width: 1687
GlyphClass: 2
Flags: W
LayerCount: 2
UndoRedoHistory
Layer: 1
Undoes
EndUndoes
Redoes
EndRedoes
EndUndoRedoHistory
Fore
SplineSet
1129 236 m 0,0,1
 1160 236 1160 236 1182.5 248 c 128,-1,2
 1205 260 1205 260 1217 277 c 128,-1,3
 1229 294 1229 294 1235.5 322.5 c 128,-1,4
 1242 351 1242 351 1243.5 374.5 c 128,-1,5
 1245 398 1245 398 1245 433 c 2,6,-1
 1245 1228 l 2,7,8
 1245 1256 1245 1256 1244 1276.5 c 128,-1,9
 1243 1297 1243 1297 1239 1321 c 128,-1,10
 1235 1345 1235 1345 1227 1361.5 c 128,-1,11
 1219 1378 1219 1378 1207 1393 c 128,-1,12
 1195 1408 1195 1408 1175 1415 c 128,-1,13
 1155 1422 1155 1422 1129 1422 c 0,14,15
 1097 1422 1097 1422 1075 1410.5 c 128,-1,16
 1053 1399 1053 1399 1041 1382.5 c 128,-1,17
 1029 1366 1029 1366 1022 1338 c 128,-1,18
 1015 1310 1015 1310 1013.5 1286 c 128,-1,19
 1012 1262 1012 1262 1012 1228 c 2,20,-1
 1012 433 l 2,21,22
 1012 389 1012 389 1015.5 360 c 128,-1,23
 1019 331 1019 331 1029.5 299.5 c 128,-1,24
 1040 268 1040 268 1065 252 c 128,-1,25
 1090 236 1090 236 1129 236 c 0,0,1
1129 -23 m 128,-1,27
 1000 -23 1000 -23 909 16.5 c 128,-1,28
 818 56 818 56 766.5 133 c 128,-1,29
 715 210 715 210 692.5 310 c 128,-1,30
 670 410 670 410 670 545 c 2,31,-1
 670 705 l 1,32,-1
 491 705 l 1,33,-1
 491 0 l 1,34,-1
 129 0 l 1,35,-1
 129 1658 l 1,36,-1
 491 1658 l 1,37,-1
 491 975 l 1,38,-1
 670 975 l 1,39,-1
 670 1116 l 2,40,41
 670 1251 670 1251 692.5 1350.5 c 128,-1,42
 715 1450 715 1450 766.5 1526.5 c 128,-1,43
 818 1603 818 1603 908.5 1642 c 128,-1,44
 999 1681 999 1681 1129 1681 c 0,45,46
 1258 1681 1258 1681 1348.5 1642 c 128,-1,47
 1439 1603 1439 1603 1491 1526.5 c 128,-1,48
 1543 1450 1543 1450 1565.5 1350 c 128,-1,49
 1588 1250 1588 1250 1588 1116 c 2,50,-1
 1588 545 l 2,51,52
 1588 410 1588 410 1565.5 310 c 128,-1,53
 1543 210 1543 210 1491 133 c 128,-1,54
 1439 56 1439 56 1348.5 16.5 c 128,-1,26
 1258 -23 1258 -23 1129 -23 c 128,-1,27
EndSplineSet
EndChar

StartChar: afii10049
Encoding: 1071 1071 294
Width: 1238
GlyphClass: 2
Flags: W
LayerCount: 2
UndoRedoHistory
Layer: 1
Undoes
EndUndoes
Redoes
EndRedoes
EndUndoRedoHistory
Fore
SplineSet
695 915 m 2,0,-1
 743 915 l 1,1,-1
 743 1407 l 1,2,-1
 691 1407 l 2,3,4
 463 1407 463 1407 463 1161 c 128,-1,5
 463 915 463 915 695 915 c 2,0,-1
19 0 m 1,6,-1
 336 738 l 1,7,8
 238 795 238 795 180 906.5 c 128,-1,9
 122 1018 122 1018 122 1164 c 0,10,11
 122 1277 122 1277 147 1361.5 c 128,-1,12
 172 1446 172 1446 217.5 1502.5 c 128,-1,13
 263 1559 263 1559 334 1594 c 128,-1,14
 405 1629 405 1629 490 1643.5 c 128,-1,15
 575 1658 575 1658 685 1658 c 2,16,-1
 1109 1658 l 1,17,-1
 1109 0 l 1,18,-1
 743 0 l 1,19,-1
 743 655 l 1,20,-1
 681 655 l 1,21,-1
 659 655 l 1,22,-1
 416 0 l 1,23,-1
 19 0 l 1,6,-1
EndSplineSet
EndChar

StartChar: afii10051
Encoding: 1026 1026 295
Width: 1288
GlyphClass: 2
Flags: W
LayerCount: 2
UndoRedoHistory
Layer: 1
Undoes
EndUndoes
Redoes
EndRedoes
EndUndoRedoHistory
Fore
SplineSet
689 0 m 1,0,-1
 689 211 l 1,1,2
 785 211 785 211 829.5 258 c 128,-1,3
 874 305 874 305 874 410 c 2,4,-1
 874 668 l 2,5,6
 874 714 874 714 841 753.5 c 128,-1,7
 808 793 808 793 746 793 c 0,8,9
 676 793 676 793 583 732 c 1,10,-1
 583 0 l 1,11,-1
 222 0 l 1,12,-1
 222 1402 l 1,13,-1
 -12 1402 l 1,14,-1
 -12 1658 l 1,15,-1
 868 1658 l 1,16,-1
 868 1402 l 1,17,-1
 583 1402 l 1,18,-1
 583 913 l 1,19,20
 702 1003 702 1003 856 1003 c 0,21,22
 925 1003 925 1003 988.5 982.5 c 128,-1,23
 1052 962 1052 962 1101 924.5 c 128,-1,24
 1150 887 1150 887 1179 829.5 c 128,-1,25
 1208 772 1208 772 1208 704 c 2,26,-1
 1208 409 l 2,27,28
 1208 184 1208 184 1109 92 c 128,-1,29
 1010 0 1010 0 766 0 c 2,30,-1
 689 0 l 1,0,-1
EndSplineSet
EndChar

StartChar: afii10053
Encoding: 1028 1028 297
Width: 1132
GlyphClass: 2
Flags: W
LayerCount: 2
UndoRedoHistory
Layer: 1
Undoes
EndUndoes
Redoes
EndRedoes
EndUndoRedoHistory
Fore
SplineSet
597 -23 m 0,0,1
 458 -23 458 -23 360 15.5 c 128,-1,2
 262 54 262 54 205.5 129 c 128,-1,3
 149 204 149 204 124 302 c 128,-1,4
 99 400 99 400 99 532 c 2,5,-1
 99 1123 l 2,6,7
 99 1258 99 1258 124 1357.5 c 128,-1,8
 149 1457 149 1457 205.5 1531.5 c 128,-1,9
 262 1606 262 1606 359.5 1643.5 c 128,-1,10
 457 1681 457 1681 597 1681 c 0,11,12
 731 1681 731 1681 825.5 1647 c 128,-1,13
 920 1613 920 1613 973.5 1547 c 128,-1,14
 1027 1481 1027 1481 1050.5 1397 c 128,-1,15
 1074 1313 1074 1313 1074 1202 c 2,16,-1
 1074 1104 l 1,17,-1
 716 1104 l 1,18,-1
 716 1223 l 2,19,20
 716 1262 716 1262 715 1282 c 128,-1,21
 714 1302 714 1302 708 1333.5 c 128,-1,22
 702 1365 702 1365 690.5 1381 c 128,-1,23
 679 1397 679 1397 655 1409.5 c 128,-1,24
 631 1422 631 1422 597 1422 c 128,-1,25
 563 1422 563 1422 539 1409.5 c 128,-1,26
 515 1397 515 1397 502.5 1379.5 c 128,-1,27
 490 1362 490 1362 482.5 1331.5 c 128,-1,28
 475 1301 475 1301 473.5 1276 c 128,-1,29
 472 1251 472 1251 472 1214 c 2,30,-1
 472 936 l 1,31,-1
 740 936 l 1,32,-1
 740 736 l 1,33,-1
 472 736 l 1,34,-1
 472 441 l 2,35,36
 472 341 472 341 498 288.5 c 128,-1,37
 524 236 524 236 597 236 c 0,38,39
 630 236 630 236 653.5 248.5 c 128,-1,40
 677 261 677 261 689 278 c 128,-1,41
 701 295 701 295 707.5 326 c 128,-1,42
 714 357 714 357 715 380 c 128,-1,43
 716 403 716 403 716 441 c 2,44,-1
 716 553 l 1,45,-1
 1074 553 l 1,46,-1
 1074 472 l 2,47,48
 1074 383 1074 383 1060 311 c 128,-1,49
 1046 239 1046 239 1012.5 175.5 c 128,-1,50
 979 112 979 112 925.5 69 c 128,-1,51
 872 26 872 26 789 1.5 c 128,-1,52
 706 -23 706 -23 597 -23 c 0,0,1
EndSplineSet
EndChar

StartChar: afii10055
Encoding: 1030 1030 299
Width: 569
GlyphClass: 2
Flags: W
LayerCount: 2
UndoRedoHistory
Layer: 1
Undoes
EndUndoes
Redoes
EndRedoes
EndUndoRedoHistory
Fore
SplineSet
109 0 m 1,0,-1
 109 1658 l 1,1,-1
 475 1658 l 1,2,-1
 475 0 l 1,3,-1
 109 0 l 1,0,-1
EndSplineSet
EndChar

StartChar: afii10057
Encoding: 1032 1032 301
Width: 666
GlyphClass: 2
Flags: W
LayerCount: 2
UndoRedoHistory
Layer: 1
Undoes
EndUndoes
Redoes
EndRedoes
EndUndoRedoHistory
Fore
SplineSet
9 -40 m 1,0,-1
 9 215 l 1,1,2
 15 215 15 215 22 215 c 0,3,4
 126 214 126 214 166 246 c 0,5,6
 208 280 208 280 209 383 c 2,7,-1
 209 1658 l 1,8,-1
 575 1658 l 1,9,-1
 575 369 l 1,10,11
 573 262 573 262 554 189.5 c 128,-1,12
 535 117 535 117 491.5 63.5 c 128,-1,13
 448 10 448 10 373 -15 c 128,-1,14
 298 -40 298 -40 187 -40 c 2,15,-1
 9 -40 l 1,0,-1
EndSplineSet
EndChar

StartChar: afii10058
Encoding: 1033 1033 302
Width: 1817
GlyphClass: 2
Flags: W
LayerCount: 2
UndoRedoHistory
Layer: 1
Undoes
EndUndoes
Redoes
EndRedoes
EndUndoRedoHistory
Fore
SplineSet
1218 242 m 1,0,-1
 1249 242 l 2,1,2
 1352 242 1352 242 1394 300 c 0,3,4
 1434 354 1434 354 1434 471 c 0,5,6
 1434 479 1434 479 1434 488 c 0,7,8
 1431 593 1431 593 1390 649 c 128,-1,9
 1349 705 1349 705 1244 705 c 2,10,-1
 1218 705 l 1,11,-1
 1218 242 l 1,0,-1
21 0 m 1,12,-1
 21 258 l 1,13,14
 32 258 32 258 42 258 c 0,15,16
 95 258 95 258 128 266 c 0,17,18
 167 276 167 276 197 313.5 c 128,-1,19
 227 351 227 351 241.5 417.5 c 128,-1,20
 256 484 256 484 264 598 c 2,21,-1
 338 1658 l 1,22,-1
 1218 1658 l 1,23,-1
 1218 958 l 1,24,-1
 1278 958 l 2,25,26
 1522 958 1522 958 1647.5 842.5 c 128,-1,27
 1773 727 1773 727 1773 481 c 0,28,29
 1773 363 1773 363 1746 276 c 128,-1,30
 1719 189 1719 189 1673.5 137 c 128,-1,31
 1628 85 1628 85 1558.5 53.5 c 128,-1,32
 1489 22 1489 22 1415.5 11 c 128,-1,33
 1342 0 1342 0 1246 0 c 2,34,-1
 851 0 l 1,35,-1
 851 1379 l 1,36,-1
 669 1379 l 1,37,-1
 619 591 l 2,38,39
 604 360 604 360 553 231.5 c 128,-1,40
 502 103 502 103 407 50 c 0,41,42
 315 -1 315 -1 161 -1 c 0,43,44
 155 -1 155 -1 149 -1 c 2,45,-1
 21 0 l 1,12,-1
EndSplineSet
EndChar

StartChar: afii10059
Encoding: 1034 1034 303
Width: 1708
GlyphClass: 2
Flags: W
LayerCount: 2
UndoRedoHistory
Layer: 1
Undoes
EndUndoes
Redoes
EndRedoes
EndUndoRedoHistory
Fore
SplineSet
1096 242 m 1,0,-1
 1121 242 l 2,1,2
 1224 242 1224 242 1267 300 c 0,3,4
 1306 353 1306 353 1306 466 c 0,5,6
 1306 477 1306 477 1306 488 c 0,7,8
 1303 593 1303 593 1262.5 649 c 128,-1,9
 1222 705 1222 705 1117 705 c 2,10,-1
 1096 705 l 1,11,-1
 1096 242 l 1,0,-1
1119 0 m 2,12,-1
 729 1 l 1,13,-1
 729 703 l 1,14,-1
 496 703 l 1,15,-1
 496 1 l 1,16,-1
 129 1 l 1,17,-1
 129 1660 l 1,18,-1
 496 1660 l 1,19,-1
 496 981 l 1,20,-1
 729 981 l 1,21,-1
 729 1660 l 1,22,-1
 1096 1660 l 1,23,-1
 1096 958 l 1,24,-1
 1151 958 l 2,25,26
 1395 958 1395 958 1520.5 842.5 c 128,-1,27
 1646 727 1646 727 1646 481 c 0,28,29
 1646 363 1646 363 1619 276 c 128,-1,30
 1592 189 1592 189 1546.5 137 c 128,-1,31
 1501 85 1501 85 1431.5 53.5 c 128,-1,32
 1362 22 1362 22 1288.5 11 c 128,-1,33
 1215 0 1215 0 1119 0 c 2,12,-1
EndSplineSet
EndChar

StartChar: afii10060
Encoding: 1035 1035 304
Width: 1209
GlyphClass: 2
Flags: W
LayerCount: 2
UndoRedoHistory
Layer: 1
Undoes
EndUndoes
Redoes
EndRedoes
EndUndoRedoHistory
Fore
SplineSet
235 0 m 1,0,-1
 235 1387 l 1,1,-1
 13 1387 l 1,2,-1
 13 1658 l 1,3,-1
 833 1658 l 1,4,-1
 833 1387 l 1,5,-1
 600 1387 l 1,6,-1
 600 927 l 1,7,8
 613 933 613 933 636.5 942.5 c 128,-1,9
 660 952 660 952 725.5 967.5 c 128,-1,10
 791 983 791 983 849 983 c 0,11,12
 967 983 967 983 1034.5 921.5 c 128,-1,13
 1102 860 1102 860 1102 757 c 2,14,-1
 1102 0 l 1,15,-1
 768 0 l 1,16,-1
 768 717 l 2,17,18
 768 754 768 754 754 771.5 c 128,-1,19
 740 789 740 789 703 788 c 0,20,21
 664 787 664 787 600 756 c 1,22,-1
 600 0 l 1,23,-1
 235 0 l 1,0,-1
EndSplineSet
EndChar

StartChar: afii10066
Encoding: 1073 1073 308
Width: 986
GlyphClass: 2
Flags: W
LayerCount: 2
UndoRedoHistory
Layer: 1
Undoes
EndUndoes
Redoes
EndRedoes
EndUndoRedoHistory
Fore
SplineSet
504 195 m 0,0,1
 532 195 532 195 547.5 204.5 c 128,-1,2
 563 214 563 214 572 245 c 128,-1,3
 581 276 581 276 583.5 322 c 128,-1,4
 586 368 586 368 586 454 c 2,5,-1
 586 786 l 2,6,7
 586 885 586 885 570.5 922 c 128,-1,8
 555 959 555 959 508 959 c 0,9,10
 471 959 471 959 449.5 928.5 c 128,-1,11
 428 898 428 898 416 823 c 1,12,-1
 416 461 l 2,13,14
 416 292 416 292 430.5 243.5 c 128,-1,15
 445 195 445 195 504 195 c 0,0,1
488 -19 m 0,16,17
 392 -18 392 -18 322 3.5 c 128,-1,18
 252 25 252 25 208 62 c 128,-1,19
 164 99 164 99 138 159.5 c 128,-1,20
 112 220 112 220 102 288.5 c 128,-1,21
 92 357 92 357 92 451 c 2,22,-1
 92 1089 l 2,23,24
 92 1206 92 1206 106.5 1294 c 128,-1,25
 121 1382 121 1382 146 1439 c 128,-1,26
 171 1496 171 1496 212 1536.5 c 128,-1,27
 253 1577 253 1577 296.5 1598.5 c 128,-1,28
 340 1620 340 1620 402.5 1638.5 c 128,-1,29
 465 1657 465 1657 523 1669 c 128,-1,30
 581 1681 581 1681 659.5 1704 c 128,-1,31
 738 1727 738 1727 805 1755 c 1,32,-1
 822 1500 l 1,33,34
 742 1462 742 1462 660.5 1443 c 128,-1,35
 579 1424 579 1424 538 1420 c 128,-1,36
 497 1416 497 1416 461 1396 c 128,-1,37
 425 1376 425 1376 412 1327.5 c 128,-1,38
 399 1279 399 1279 398 1181 c 1,39,-1
 398 1103 l 1,40,41
 495 1154 495 1154 598 1154 c 0,42,43
 759 1154 759 1154 830.5 1053 c 128,-1,44
 902 952 902 952 902 713 c 2,45,-1
 902 424 l 2,46,47
 902 317 902 317 882 238 c 128,-1,48
 862 159 862 159 828 109.5 c 128,-1,49
 794 60 794 60 740 30.5 c 0,50,51
 686 0 686 0 626 -10 c 0,52,53
 572 -20 572 -20 502 -19 c 0,54,55
 495 -19 495 -19 488 -19 c 0,16,17
EndSplineSet
EndChar

StartChar: afii10067
Encoding: 1074 1074 309
Width: 1031
GlyphClass: 2
Flags: W
LayerCount: 2
UndoRedoHistory
Layer: 1
Undoes
EndUndoes
Redoes
EndRedoes
EndUndoRedoHistory
Fore
SplineSet
437 718 m 1,0,-1
 517 718 l 2,1,2
 575 718 575 718 599 753.5 c 128,-1,3
 623 789 623 789 623 860 c 0,4,5
 623 934 623 934 596 971 c 128,-1,6
 569 1008 569 1008 494 1008 c 2,7,-1
 437 1008 l 1,8,-1
 437 718 l 1,0,-1
437 187 m 1,9,-1
 489 187 l 2,10,11
 521 187 521 187 539.5 188.5 c 128,-1,12
 558 190 558 190 581 199 c 128,-1,13
 604 208 604 208 616.5 225 c 128,-1,14
 629 242 629 242 637.5 274 c 128,-1,15
 646 306 646 306 646 353 c 0,16,17
 646 397 646 397 641.5 429 c 128,-1,18
 637 461 637 461 625.5 481 c 128,-1,19
 614 501 614 501 603.5 512.5 c 128,-1,20
 593 524 593 524 571.5 529 c 128,-1,21
 550 534 550 534 535 535 c 128,-1,22
 520 536 520 536 491 536 c 2,23,-1
 437 536 l 1,24,-1
 437 187 l 1,9,-1
104 0 m 1,25,-1
 104 1184 l 1,26,-1
 523 1184 l 2,27,28
 627 1184 627 1184 702.5 1169.5 c 128,-1,29
 778 1155 778 1155 823.5 1131 c 128,-1,30
 869 1107 869 1107 896 1067.5 c 128,-1,31
 923 1028 923 1028 932.5 987 c 128,-1,32
 942 946 942 946 942 884 c 0,33,34
 942 776 942 776 896 722 c 0,35,36
 850 666 850 666 760 643 c 1,37,38
 881 613 881 613 926 540.5 c 128,-1,39
 971 468 971 468 971 344 c 0,40,41
 971 224 971 224 928 150.5 c 128,-1,42
 885 77 885 77 782.5 38.5 c 128,-1,43
 680 0 680 0 507 0 c 2,44,-1
 104 0 l 1,25,-1
EndSplineSet
EndChar

StartChar: afii10068
Encoding: 1075 1075 310
Width: 718
GlyphClass: 2
Flags: W
LayerCount: 2
UndoRedoHistory
Layer: 1
Undoes
EndUndoes
Redoes
EndRedoes
EndUndoRedoHistory
Fore
SplineSet
104 0 m 1,0,-1
 104 1184 l 1,1,-1
 692 1184 l 1,2,-1
 692 960 l 1,3,-1
 438 960 l 1,4,-1
 438 0 l 1,5,-1
 104 0 l 1,0,-1
EndSplineSet
EndChar

StartChar: afii10069
Encoding: 1076 1076 311
Width: 1239
GlyphClass: 2
Flags: W
LayerCount: 2
UndoRedoHistory
Layer: 1
Undoes
EndUndoes
Redoes
EndRedoes
EndUndoRedoHistory
Fore
SplineSet
423 207 m 1,0,-1
 727 207 l 1,1,-1
 727 982 l 1,2,-1
 629 982 l 1,3,-1
 607 736 l 1,4,5
 597 516 597 516 550 395 c 128,-1,6
 503 274 503 274 423 207 c 1,0,-1
63 -322 m 1,7,-1
 63 204 l 1,8,9
 198 270 198 270 267.5 414.5 c 128,-1,10
 337 559 337 559 350 813 c 1,11,-1
 382 1184 l 1,12,-1
 1033 1184 l 1,13,-1
 1033 207 l 1,14,-1
 1205 207 l 1,15,-1
 1205 -322 l 1,16,-1
 966 -322 l 1,17,-1
 943 0 l 1,18,-1
 325 0 l 1,19,-1
 305 -322 l 1,20,-1
 63 -322 l 1,7,-1
EndSplineSet
EndChar

StartChar: afii10072
Encoding: 1078 1078 314
Width: 1352
GlyphClass: 2
Flags: W
LayerCount: 2
UndoRedoHistory
Layer: 1
Undoes
EndUndoes
Redoes
EndRedoes
EndUndoRedoHistory
Fore
SplineSet
14 0 m 1,0,-1
 249 596 l 1,1,-1
 27 1184 l 1,2,-1
 320 1184 l 1,3,-1
 508 622 l 1,4,-1
 530 622 l 1,5,-1
 530 1184 l 1,6,-1
 809 1184 l 1,7,-1
 809 622 l 1,8,-1
 831 622 l 1,9,-1
 1032 1184 l 1,10,-1
 1325 1184 l 1,11,-1
 1091 596 l 1,12,-1
 1339 0 l 1,13,-1
 1060 0 l 1,14,-1
 831 572 l 1,15,-1
 809 572 l 1,16,-1
 809 0 l 1,17,-1
 530 0 l 1,18,-1
 530 572 l 1,19,-1
 508 572 l 1,20,-1
 293 0 l 1,21,-1
 14 0 l 1,0,-1
EndSplineSet
EndChar

StartChar: afii10073
Encoding: 1079 1079 315
Width: 918
GlyphClass: 2
Flags: W
LayerCount: 2
UndoRedoHistory
Layer: 1
Undoes
EndUndoes
Redoes
EndRedoes
EndUndoRedoHistory
Fore
SplineSet
454 -21 m 0,0,1
 360 -21 360 -21 290.5 1.5 c 128,-1,2
 221 24 221 24 180.5 60.5 c 128,-1,3
 140 97 140 97 116 152.5 c 128,-1,4
 92 208 92 208 84 264 c 128,-1,5
 76 320 76 320 76 393 c 1,6,-1
 344 393 l 1,7,8
 344 297 344 297 373 252 c 128,-1,9
 402 207 402 207 464 207 c 0,10,11
 527 207 527 207 551.5 249 c 128,-1,12
 576 291 576 291 576 367 c 0,13,14
 576 456 576 456 526.5 491 c 128,-1,15
 477 526 477 526 353 526 c 1,16,-1
 353 700 l 1,17,18
 475 700 475 700 515 731.5 c 128,-1,19
 555 763 555 763 555 846 c 0,20,21
 555 973 555 973 450 973 c 0,22,23
 387 973 387 973 361.5 938 c 128,-1,24
 336 903 336 903 336 813 c 1,25,-1
 72 813 l 1,26,27
 72 899 72 899 90 966 c 128,-1,28
 108 1033 108 1033 150.5 1088.5 c 128,-1,29
 193 1144 193 1144 272.5 1174 c 128,-1,30
 352 1204 352 1204 465 1204 c 0,31,32
 662 1204 662 1204 759 1112.5 c 128,-1,33
 856 1021 856 1021 856 873 c 0,34,35
 856 761 856 761 807.5 699 c 128,-1,36
 759 637 759 637 682 615 c 1,37,38
 724 599 724 599 753 580.5 c 128,-1,39
 782 562 782 562 808.5 530 c 128,-1,40
 835 498 835 498 848.5 446.5 c 128,-1,41
 862 395 862 395 862 325 c 0,42,43
 862 166 862 166 761.5 72.5 c 128,-1,44
 661 -21 661 -21 454 -21 c 0,0,1
EndSplineSet
EndChar

StartChar: afii10074
Encoding: 1080 1080 316
Width: 1042
GlyphClass: 2
Flags: W
LayerCount: 2
UndoRedoHistory
Layer: 1
Undoes
EndUndoes
Redoes
EndRedoes
EndUndoRedoHistory
Fore
SplineSet
104 0 m 1,0,-1
 104 1184 l 1,1,-1
 369 1184 l 1,2,-1
 369 552 l 1,3,-1
 678 1184 l 1,4,-1
 938 1184 l 1,5,-1
 938 0 l 1,6,-1
 668 0 l 1,7,-1
 668 626 l 1,8,-1
 367 0 l 1,9,-1
 104 0 l 1,0,-1
EndSplineSet
EndChar

StartChar: afii10076
Encoding: 1082 1082 318
Width: 1047
GlyphClass: 2
Flags: W
LayerCount: 2
UndoRedoHistory
Layer: 1
Undoes
EndUndoes
Redoes
EndRedoes
EndUndoRedoHistory
Fore
SplineSet
104 0 m 1,0,-1
 104 1184 l 1,1,-1
 438 1184 l 1,2,-1
 438 718 l 1,3,-1
 487 718 l 1,4,-1
 665 1184 l 1,5,-1
 1025 1184 l 1,6,-1
 791 625 l 1,7,-1
 1031 0 l 1,8,-1
 677 0 l 1,9,-1
 487 525 l 1,10,-1
 438 525 l 1,11,-1
 438 0 l 1,12,-1
 104 0 l 1,0,-1
EndSplineSet
EndChar

StartChar: afii10077
Encoding: 1083 1083 319
Width: 1159
GlyphClass: 2
Flags: W
LayerCount: 2
UndoRedoHistory
Layer: 1
Undoes
EndUndoes
Redoes
EndRedoes
EndUndoRedoHistory
Fore
SplineSet
27 -3 m 1,0,-1
 27 224 l 1,1,2
 51 221 51 221 71 221 c 0,3,4
 167 221 167 221 199 279 c 0,5,6
 237 349 237 349 253 572 c 1,7,-1
 302 1184 l 1,8,-1
 1054 1184 l 1,9,-1
 1054 0 l 1,10,-1
 720 0 l 1,11,-1
 720 956 l 1,12,-1
 585 956 l 1,13,-1
 553 539 l 2,14,15
 543 401 543 401 524.5 307 c 128,-1,16
 506 213 506 213 478.5 149 c 128,-1,17
 451 85 451 85 406.5 50 c 128,-1,18
 362 15 362 15 308 1 c 128,-1,19
 254 -13 254 -13 175 -13 c 0,20,21
 120 -13 120 -13 27 -3 c 1,0,-1
EndSplineSet
EndChar

StartChar: afii10078
Encoding: 1084 1084 320
Width: 1191
GlyphClass: 2
Flags: W
LayerCount: 2
UndoRedoHistory
Layer: 1
Undoes
EndUndoes
Redoes
EndRedoes
EndUndoRedoHistory
Fore
SplineSet
103 0 m 1,0,-1
 106 1184 l 1,1,-1
 353 1184 l 1,2,-1
 596 618 l 1,3,-1
 838 1184 l 1,4,-1
 1085 1184 l 1,5,-1
 1089 0 l 1,6,-1
 828 0 l 1,7,-1
 828 618 l 1,8,-1
 645 182 l 1,9,-1
 547 182 l 1,10,-1
 364 619 l 1,11,-1
 364 0 l 1,12,-1
 103 0 l 1,0,-1
EndSplineSet
EndChar

StartChar: afii10079
Encoding: 1085 1085 321
Width: 1074
GlyphClass: 2
Flags: W
LayerCount: 2
UndoRedoHistory
Layer: 1
Undoes
EndUndoes
Redoes
EndRedoes
EndUndoRedoHistory
Fore
SplineSet
104 0 m 1,0,-1
 104 1184 l 1,1,-1
 438 1184 l 1,2,-1
 438 726 l 1,3,-1
 636 726 l 1,4,-1
 636 1184 l 1,5,-1
 970 1184 l 1,6,-1
 970 0 l 1,7,-1
 636 0 l 1,8,-1
 636 496 l 1,9,-1
 438 496 l 1,10,-1
 438 0 l 1,11,-1
 104 0 l 1,0,-1
EndSplineSet
EndChar

StartChar: afii10081
Encoding: 1087 1087 323
Width: 1046
GlyphClass: 2
Flags: W
LayerCount: 2
UndoRedoHistory
Layer: 1
Undoes
EndUndoes
Redoes
EndRedoes
EndUndoRedoHistory
Fore
SplineSet
104 0 m 1,0,-1
 104 1184 l 1,1,-1
 942 1184 l 1,2,-1
 942 0 l 1,3,-1
 608 0 l 1,4,-1
 608 955 l 1,5,-1
 438 955 l 1,6,-1
 438 0 l 1,7,-1
 104 0 l 1,0,-1
EndSplineSet
EndChar

StartChar: afii10084
Encoding: 1090 1090 326
Width: 826
GlyphClass: 2
Flags: W
LayerCount: 2
UndoRedoHistory
Layer: 1
Undoes
EndUndoes
Redoes
EndRedoes
EndUndoRedoHistory
Fore
SplineSet
245 0 m 1,0,-1
 245 957 l 1,1,-1
 33 957 l 1,2,-1
 33 1184 l 1,3,-1
 793 1184 l 1,4,-1
 793 957 l 1,5,-1
 579 957 l 1,6,-1
 579 0 l 1,7,-1
 245 0 l 1,0,-1
EndSplineSet
EndChar

StartChar: afii10085
Encoding: 1091 1091 327
Width: 959
GlyphClass: 2
Flags: W
LayerCount: 2
UndoRedoHistory
Layer: 1
Undoes
EndUndoes
Redoes
EndRedoes
EndUndoRedoHistory
Fore
SplineSet
125 -377 m 1,0,-1
 100 -139 l 1,1,2
 163 -139 163 -139 202 -136 c 128,-1,3
 241 -133 241 -133 270 -123.5 c 128,-1,4
 299 -114 299 -114 311.5 -102 c 128,-1,5
 324 -90 324 -90 328 -64 c 128,-1,6
 332 -38 332 -38 327.5 -10 c 128,-1,7
 323 18 323 18 312 66 c 1,8,-1
 24 1184 l 1,9,-1
 310 1184 l 1,10,-1
 406 748 l 1,11,-1
 485 382 l 1,12,-1
 557 748 l 1,13,-1
 642 1184 l 1,14,-1
 939 1184 l 1,15,-1
 635 -20 l 2,16,17
 614 -101 614 -101 598 -150 c 128,-1,18
 582 -199 582 -199 554.5 -243.5 c 128,-1,19
 527 -288 527 -288 495.5 -310 c 128,-1,20
 464 -332 464 -332 410.5 -349.5 c 128,-1,21
 357 -367 357 -367 290.5 -372 c 128,-1,22
 224 -377 224 -377 125 -377 c 1,0,-1
EndSplineSet
EndChar

StartChar: afii10086
Encoding: 1092 1092 328
Width: 1426
GlyphClass: 2
Flags: W
LayerCount: 2
UndoRedoHistory
Layer: 1
Undoes
EndUndoes
Redoes
EndRedoes
EndUndoRedoHistory
Fore
SplineSet
878 217 m 2,0,1
 942 217 942 217 986 270.5 c 128,-1,2
 1030 324 1030 324 1030 417 c 2,3,-1
 1030 799 l 2,4,5
 1030 891 1030 891 987 942 c 128,-1,6
 944 993 944 993 879 993 c 2,7,-1
 856 993 l 1,8,-1
 856 217 l 1,9,-1
 878 217 l 2,0,1
542 217 m 2,10,-1
 566 217 l 1,11,-1
 566 993 l 1,12,-1
 541 993 l 2,13,14
 477 993 477 993 436.5 942.5 c 128,-1,15
 396 892 396 892 396 799 c 2,16,-1
 396 417 l 2,17,18
 396 322 396 322 435 269.5 c 128,-1,19
 474 217 474 217 542 217 c 2,10,-1
566 -354 m 1,20,-1
 566 17 l 1,21,-1
 533 17 l 2,22,23
 477 17 477 17 419.5 29 c 128,-1,24
 362 41 362 41 300.5 71.5 c 128,-1,25
 239 102 239 102 192 148 c 128,-1,26
 145 194 145 194 115 269.5 c 128,-1,27
 85 345 85 345 85 440 c 2,28,-1
 85 771 l 2,29,30
 85 854 85 854 111.5 923 c 128,-1,31
 138 992 138 992 182 1038.5 c 128,-1,32
 226 1085 226 1085 284.5 1117.5 c 128,-1,33
 343 1150 343 1150 406 1164.5 c 128,-1,34
 469 1179 469 1179 534 1179 c 2,35,-1
 566 1179 l 1,36,-1
 566 1657 l 1,37,-1
 856 1657 l 1,38,-1
 856 1179 l 1,39,-1
 895 1179 l 2,40,41
 978 1179 978 1179 1055.5 1154.5 c 128,-1,42
 1133 1130 1133 1130 1198 1082.5 c 128,-1,43
 1263 1035 1263 1035 1302 954.5 c 128,-1,44
 1341 874 1341 874 1341 771 c 2,45,-1
 1341 440 l 2,46,47
 1341 345 1341 345 1310.5 269.5 c 128,-1,48
 1280 194 1280 194 1233 148 c 128,-1,49
 1186 102 1186 102 1125 71.5 c 128,-1,50
 1064 41 1064 41 1007 29 c 128,-1,51
 950 17 950 17 895 17 c 2,52,-1
 856 17 l 1,53,-1
 856 -354 l 1,54,-1
 566 -354 l 1,20,-1
EndSplineSet
EndChar

StartChar: afii10088
Encoding: 1094 1094 330
Width: 1163
GlyphClass: 2
Flags: W
LayerCount: 2
UndoRedoHistory
Layer: 1
Undoes
EndUndoes
Redoes
EndRedoes
EndUndoRedoHistory
Fore
SplineSet
883 -322 m 1,0,-1
 861 0 l 1,1,-1
 104 0 l 1,2,-1
 104 1184 l 1,3,-1
 437 1184 l 1,4,-1
 437 207 l 1,5,-1
 616 207 l 1,6,-1
 616 1184 l 1,7,-1
 950 1184 l 1,8,-1
 950 207 l 1,9,-1
 1122 207 l 1,10,-1
 1122 -322 l 1,11,-1
 883 -322 l 1,0,-1
EndSplineSet
EndChar

StartChar: afii10089
Encoding: 1095 1095 331
Width: 1016
GlyphClass: 2
Flags: W
LayerCount: 2
UndoRedoHistory
Layer: 1
Undoes
EndUndoes
Redoes
EndRedoes
EndUndoRedoHistory
Fore
SplineSet
577 0 m 1,0,-1
 577 476 l 1,1,2
 503 470 503 470 469 470 c 0,3,4
 357 470 357 470 280.5 489.5 c 128,-1,5
 204 509 204 509 160 549 c 128,-1,6
 116 589 116 589 97.5 642 c 128,-1,7
 79 695 79 695 79 768 c 2,8,-1
 79 1184 l 1,9,-1
 413 1184 l 1,10,-1
 413 786 l 2,11,12
 413 720 413 720 438 691.5 c 128,-1,13
 463 663 463 663 537 661 c 0,14,15
 562 661 562 661 577 663 c 1,16,-1
 577 1184 l 1,17,-1
 911 1184 l 1,18,-1
 911 0 l 1,19,-1
 577 0 l 1,0,-1
EndSplineSet
EndChar

StartChar: afii10090
Encoding: 1096 1096 332
Width: 1458
GlyphClass: 2
Flags: W
LayerCount: 2
UndoRedoHistory
Layer: 1
Undoes
EndUndoes
Redoes
EndRedoes
EndUndoRedoHistory
Fore
SplineSet
104 0 m 1,0,-1
 104 1184 l 1,1,-1
 417 1184 l 1,2,-1
 417 226 l 1,3,-1
 571 226 l 1,4,-1
 571 1184 l 1,5,-1
 884 1184 l 1,6,-1
 884 226 l 1,7,-1
 1041 226 l 1,8,-1
 1041 1184 l 1,9,-1
 1353 1184 l 1,10,-1
 1353 0 l 1,11,-1
 104 0 l 1,0,-1
EndSplineSet
EndChar

StartChar: afii10091
Encoding: 1097 1097 333
Width: 1593
GlyphClass: 2
Flags: W
LayerCount: 2
UndoRedoHistory
Layer: 1
Undoes
EndUndoes
Redoes
EndRedoes
EndUndoRedoHistory
Fore
SplineSet
1287 -322 m 1,0,-1
 1265 0 l 1,1,-1
 104 0 l 1,2,-1
 104 1184 l 1,3,-1
 419 1184 l 1,4,-1
 419 207 l 1,5,-1
 569 207 l 1,6,-1
 569 1184 l 1,7,-1
 885 1184 l 1,8,-1
 885 207 l 1,9,-1
 1039 207 l 1,10,-1
 1039 1184 l 1,11,-1
 1354 1184 l 1,12,-1
 1354 207 l 1,13,-1
 1526 207 l 1,14,-1
 1526 -322 l 1,15,-1
 1287 -322 l 1,0,-1
EndSplineSet
EndChar

StartChar: afii10092
Encoding: 1098 1098 334
Width: 1139
GlyphClass: 2
Flags: W
LayerCount: 2
UndoRedoHistory
Layer: 1
Undoes
EndUndoes
Redoes
EndRedoes
EndUndoRedoHistory
Fore
SplineSet
570 191 m 1,0,-1
 576 191 l 1,1,2
 690 193 690 193 735 225 c 128,-1,3
 780 257 780 257 780 345 c 0,4,5
 780 440 780 440 735.5 474 c 128,-1,6
 691 508 691 508 579 510 c 1,7,-1
 570 510 l 1,8,-1
 570 191 l 1,0,-1
236 0 m 1,9,-1
 236 958 l 1,10,-1
 11 958 l 1,11,-1
 11 1184 l 1,12,-1
 570 1184 l 1,13,-1
 570 707 l 1,14,-1
 580 707 l 2,15,16
 709 707 709 707 797.5 690 c 128,-1,17
 886 673 886 673 953 633 c 128,-1,18
 1020 593 1020 593 1051.5 522.5 c 128,-1,19
 1083 452 1083 452 1083 347 c 0,20,21
 1083 159 1083 159 966 79.5 c 128,-1,22
 849 0 849 0 580 0 c 2,23,-1
 236 0 l 1,9,-1
EndSplineSet
EndChar

StartChar: afii10093
Encoding: 1099 1099 335
Width: 1516
GlyphClass: 2
Flags: W
LayerCount: 2
UndoRedoHistory
Layer: 1
Undoes
EndUndoes
Redoes
EndRedoes
EndUndoRedoHistory
Fore
SplineSet
1077 0 m 1,0,-1
 1077 1184 l 1,1,-1
 1411 1184 l 1,2,-1
 1411 0 l 1,3,-1
 1077 0 l 1,0,-1
438 191 m 1,4,-1
 444 191 l 1,5,6
 558 192 558 192 603 224.5 c 128,-1,7
 648 257 648 257 648 345 c 0,8,9
 648 440 648 440 603.5 474 c 128,-1,10
 559 508 559 508 448 510 c 1,11,-1
 438 510 l 1,12,-1
 438 191 l 1,4,-1
104 0 m 1,13,-1
 104 1184 l 1,14,-1
 438 1184 l 1,15,-1
 438 707 l 1,16,-1
 448 707 l 2,17,18
 577 707 577 707 665.5 690 c 128,-1,19
 754 673 754 673 821 633 c 128,-1,20
 888 593 888 593 919.5 522.5 c 128,-1,21
 951 452 951 452 951 347 c 0,22,23
 951 159 951 159 834 79.5 c 128,-1,24
 717 0 717 0 448 0 c 2,25,-1
 104 0 l 1,13,-1
EndSplineSet
EndChar

StartChar: afii10094
Encoding: 1100 1100 336
Width: 1005
GlyphClass: 2
Flags: W
LayerCount: 2
UndoRedoHistory
Layer: 1
Undoes
EndUndoes
Redoes
EndRedoes
EndUndoRedoHistory
Fore
SplineSet
438 191 m 1,0,-1
 444 191 l 1,1,2
 558 192 558 192 603 224.5 c 128,-1,3
 648 257 648 257 648 345 c 0,4,5
 648 440 648 440 603.5 474 c 128,-1,6
 559 508 559 508 448 510 c 1,7,-1
 438 510 l 1,8,-1
 438 191 l 1,0,-1
104 0 m 1,9,-1
 104 1184 l 1,10,-1
 438 1184 l 1,11,-1
 438 707 l 1,12,-1
 448 707 l 2,13,14
 577 707 577 707 665.5 690 c 128,-1,15
 754 673 754 673 821 633 c 128,-1,16
 888 593 888 593 919.5 522.5 c 128,-1,17
 951 452 951 452 951 347 c 0,18,19
 951 159 951 159 834 79.5 c 128,-1,20
 717 0 717 0 448 0 c 2,21,-1
 104 0 l 1,9,-1
EndSplineSet
EndChar

StartChar: afii10095
Encoding: 1101 1101 337
Width: 974
GlyphClass: 2
Flags: W
LayerCount: 2
UndoRedoHistory
Layer: 1
Undoes
EndUndoes
Redoes
EndRedoes
EndUndoRedoHistory
Fore
SplineSet
484 -21 m 0,0,1
 293 -21 293 -21 189 69 c 128,-1,2
 85 159 85 159 85 336 c 2,3,-1
 85 396 l 1,4,-1
 407 396 l 1,5,-1
 407 334 l 2,6,7
 407 266 407 266 425.5 241 c 128,-1,8
 444 216 444 216 483 216 c 128,-1,9
 522 216 522 216 540 247 c 128,-1,10
 558 278 558 278 558 354 c 2,11,-1
 558 513 l 1,12,-1
 288 513 l 1,13,-1
 288 655 l 1,14,-1
 558 655 l 1,15,-1
 558 830 l 2,16,17
 558 907 558 907 539.5 936.5 c 128,-1,18
 521 966 521 966 483 966 c 0,19,20
 443 966 443 966 425 939.5 c 128,-1,21
 407 913 407 913 407 851 c 2,22,-1
 407 765 l 1,23,-1
 85 765 l 1,24,-1
 85 845 l 2,25,26
 85 1021 85 1021 189.5 1112.5 c 128,-1,27
 294 1204 294 1204 484 1204 c 0,28,29
 679 1204 679 1204 786 1099 c 128,-1,30
 893 994 893 994 893 805 c 2,31,-1
 893 377 l 2,32,33
 893 188 893 188 786 83.5 c 128,-1,34
 679 -21 679 -21 484 -21 c 0,0,1
EndSplineSet
EndChar

StartChar: afii10096
Encoding: 1102 1102 338
Width: 1432
GlyphClass: 2
Flags: W
LayerCount: 2
UndoRedoHistory
Layer: 1
Undoes
EndUndoes
Redoes
EndRedoes
EndUndoRedoHistory
Fore
SplineSet
961 218 m 0,0,1
 1005 218 1005 218 1022 253 c 128,-1,2
 1039 288 1039 288 1039 360 c 2,3,-1
 1039 824 l 2,4,5
 1039 895 1039 895 1022 930.5 c 128,-1,6
 1005 966 1005 966 961 966 c 0,7,8
 919 966 919 966 902 930 c 128,-1,9
 885 894 885 894 885 824 c 2,10,-1
 885 360 l 2,11,12
 885 290 885 290 901.5 254 c 128,-1,13
 918 218 918 218 961 218 c 0,0,1
960 -21 m 0,14,15
 778 -21 778 -21 676 79 c 128,-1,16
 574 179 574 179 574 368 c 2,17,-1
 574 477 l 1,18,-1
 430 477 l 1,19,-1
 430 0 l 1,20,-1
 104 0 l 1,21,-1
 104 1184 l 1,22,-1
 430 1184 l 1,23,-1
 430 712 l 1,24,-1
 574 712 l 1,25,-1
 574 815 l 2,26,27
 574 1005 574 1005 676 1104.5 c 128,-1,28
 778 1204 778 1204 960 1204 c 0,29,30
 1143 1204 1143 1204 1247 1104 c 128,-1,31
 1351 1004 1351 1004 1351 815 c 2,32,-1
 1351 368 l 2,33,34
 1351 179 1351 179 1247 79 c 128,-1,35
 1143 -21 1143 -21 960 -21 c 0,14,15
EndSplineSet
EndChar

StartChar: afii10097
Encoding: 1103 1103 339
Width: 1055
GlyphClass: 2
Flags: W
LayerCount: 2
UndoRedoHistory
Layer: 1
Undoes
EndUndoes
Redoes
EndRedoes
EndUndoRedoHistory
Fore
SplineSet
606 620 m 2,0,-1
 617 620 l 1,1,-1
 617 995 l 1,2,-1
 607 995 l 1,3,4
 376 993 376 993 376 815 c 0,5,6
 376 620 376 620 606 620 c 2,0,-1
33 0 m 1,7,-1
 217 490 l 1,8,9
 147 528 147 528 110 613 c 128,-1,10
 73 698 73 698 73 813 c 0,11,12
 73 988 73 988 179.5 1086 c 128,-1,13
 286 1184 286 1184 516 1184 c 2,14,-1
 951 1184 l 1,15,-1
 951 0 l 1,16,-1
 617 0 l 1,17,-1
 617 424 l 1,18,19
 547 424 547 424 521 425 c 1,20,-1
 388 0 l 1,21,-1
 33 0 l 1,7,-1
EndSplineSet
EndChar

StartChar: afii10098
Encoding: 1169 1169 340
Width: 721
GlyphClass: 2
Flags: W
LayerCount: 2
UndoRedoHistory
Layer: 1
Undoes
EndUndoes
Redoes
EndRedoes
EndUndoRedoHistory
Fore
SplineSet
104 0 m 1,0,-1
 104 1184 l 1,1,-1
 531 1184 l 1,2,-1
 531 1434 l 1,3,-1
 703 1434 l 1,4,-1
 703 960 l 1,5,-1
 438 960 l 1,6,-1
 438 0 l 1,7,-1
 104 0 l 1,0,-1
EndSplineSet
EndChar

StartChar: afii10099
Encoding: 1106 1106 341
Width: 1046
GlyphClass: 2
Flags: W
LayerCount: 2
UndoRedoHistory
Layer: 1
Undoes
EndUndoes
Redoes
EndRedoes
EndUndoRedoHistory
Fore
SplineSet
392 -330 m 1,0,-1
 392 -163 l 1,1,-1
 428 -163 l 2,2,3
 474 -163 474 -163 507.5 -153.5 c 128,-1,4
 541 -144 541 -144 563 -122 c 128,-1,5
 585 -100 585 -100 598.5 -73.5 c 128,-1,6
 612 -47 612 -47 619 -2 c 128,-1,7
 626 43 626 43 628 86 c 128,-1,8
 630 129 630 129 630 196 c 2,9,-1
 630 640 l 2,10,11
 630 703 630 703 613.5 734 c 128,-1,12
 597 765 597 765 554 765 c 0,13,14
 512 765 512 765 449 735 c 1,15,-1
 449 0 l 1,16,-1
 115 0 l 1,17,-1
 115 1214 l 1,18,-1
 -17 1214 l 1,19,-1
 -17 1381 l 1,20,-1
 115 1381 l 1,21,-1
 115 1658 l 1,22,-1
 449 1658 l 1,23,-1
 449 1381 l 1,24,-1
 711 1381 l 1,25,-1
 711 1214 l 1,26,-1
 449 1214 l 1,27,-1
 449 927 l 1,28,29
 504 948 504 948 530 957 c 128,-1,30
 556 966 556 966 607 977.5 c 128,-1,31
 658 989 658 989 699 989 c 0,32,33
 964 989 964 989 964 630 c 2,34,-1
 964 210 l 2,35,36
 964 96 964 96 953.5 14 c 128,-1,37
 943 -68 943 -68 916.5 -129.5 c 128,-1,38
 890 -191 890 -191 852.5 -228.5 c 128,-1,39
 815 -266 815 -266 753.5 -289.5 c 128,-1,40
 692 -313 692 -313 619 -321.5 c 128,-1,41
 546 -330 546 -330 442 -330 c 2,42,-1
 392 -330 l 1,0,-1
EndSplineSet
EndChar

StartChar: afii10101
Encoding: 1108 1108 343
Width: 942
GlyphClass: 2
Flags: W
LayerCount: 2
UndoRedoHistory
Layer: 1
Undoes
EndUndoes
Redoes
EndRedoes
EndUndoRedoHistory
Fore
SplineSet
490 -21 m 0,0,1
 295 -21 295 -21 188 84.5 c 128,-1,2
 81 190 81 190 81 379 c 2,3,-1
 81 807 l 2,4,5
 81 995 81 995 188 1099.5 c 128,-1,6
 295 1204 295 1204 490 1204 c 0,7,8
 682 1204 682 1204 785.5 1114.5 c 128,-1,9
 889 1025 889 1025 889 848 c 2,10,-1
 889 766 l 1,11,-1
 567 766 l 1,12,-1
 567 849 l 2,13,14
 567 917 567 917 548.5 942.5 c 128,-1,15
 530 968 530 968 491 968 c 128,-1,16
 452 968 452 968 434.5 937 c 128,-1,17
 417 906 417 906 417 829 c 2,18,-1
 417 677 l 1,19,-1
 690 677 l 1,20,-1
 690 528 l 1,21,-1
 417 528 l 1,22,-1
 417 353 l 2,23,24
 417 277 417 277 435.5 247.5 c 128,-1,25
 454 218 454 218 492 218 c 0,26,27
 531 218 531 218 549 244.5 c 128,-1,28
 567 271 567 271 567 333 c 2,29,-1
 567 439 l 1,30,-1
 889 439 l 1,31,-1
 889 339 l 2,32,33
 889 163 889 163 784.5 71 c 128,-1,34
 680 -21 680 -21 490 -21 c 0,0,1
EndSplineSet
EndChar

StartChar: afii10103
Encoding: 1110 1110 345
Width: 517
GlyphClass: 2
Flags: W
LayerCount: 2
UndoRedoHistory
Layer: 1
Undoes
EndUndoes
Redoes
EndRedoes
EndUndoRedoHistory
Fore
SplineSet
95 1376 m 1,0,-1
 95 1611 l 1,1,-1
 430 1611 l 1,2,-1
 430 1376 l 1,3,-1
 95 1376 l 1,0,-1
96 0 m 1,4,-1
 96 1184 l 1,5,-1
 430 1184 l 1,6,-1
 430 0 l 1,7,-1
 96 0 l 1,4,-1
EndSplineSet
EndChar

StartChar: afii10105
Encoding: 1112 1112 347
Width: 526
GlyphClass: 2
Flags: W
LayerCount: 2
UndoRedoHistory
Layer: 1
Undoes
EndUndoes
Redoes
EndRedoes
EndUndoRedoHistory
Fore
SplineSet
125 1383 m 1,0,-1
 125 1618 l 1,1,-1
 461 1618 l 1,2,-1
 461 1383 l 1,3,-1
 125 1383 l 1,0,-1
-23 -339 m 1,4,-1
 -23 -100 l 1,5,6
 25 -108 25 -108 36 -108 c 0,7,8
 126 -108 126 -108 126 -8 c 2,9,-1
 126 1184 l 1,10,-1
 460 1184 l 1,11,-1
 460 -48 l 2,12,13
 460 -193 460 -193 381 -279.5 c 128,-1,14
 302 -366 302 -366 154 -366 c 0,15,16
 68 -366 68 -366 -23 -339 c 1,4,-1
EndSplineSet
EndChar

StartChar: afii10106
Encoding: 1113 1113 348
Width: 1653
GlyphClass: 2
Flags: W
LayerCount: 2
UndoRedoHistory
Layer: 1
Undoes
EndUndoes
Redoes
EndRedoes
EndUndoRedoHistory
Fore
SplineSet
1096 191 m 1,0,-1
 1104 191 l 1,1,2
 1210 192 1210 192 1253.5 225.5 c 128,-1,3
 1297 259 1297 259 1297 345 c 0,4,5
 1297 439 1297 439 1253 474 c 128,-1,6
 1209 509 1209 509 1102 510 c 1,7,-1
 1096 510 l 1,8,-1
 1096 191 l 1,0,-1
69 -3 m 1,9,-1
 69 224 l 1,10,11
 90 223 90 223 107 223 c 0,12,13
 140 224 140 224 162 228 c 0,14,15
 196 236 196 236 222 256.5 c 128,-1,16
 248 277 248 277 262 334.5 c 128,-1,17
 276 392 276 392 285.5 465.5 c 128,-1,18
 295 539 295 539 304 673 c 1,19,-1
 343 1184 l 1,20,-1
 1096 1184 l 1,21,-1
 1096 707 l 1,22,-1
 1108 707 l 2,23,24
 1233 707 1233 707 1320.5 690 c 128,-1,25
 1408 673 1408 673 1472.5 632.5 c 128,-1,26
 1537 592 1537 592 1568 521.5 c 128,-1,27
 1599 451 1599 451 1599 347 c 0,28,29
 1599 161 1599 161 1484.5 81.5 c 128,-1,30
 1370 2 1370 2 1108 0 c 1,31,-1
 762 0 l 1,32,-1
 762 956 l 1,33,-1
 627 956 l 1,34,-1
 600 601 l 2,35,36
 592 485 592 485 581 400 c 128,-1,37
 570 315 570 315 553.5 246.5 c 128,-1,38
 537 178 537 178 512.5 133 c 128,-1,39
 488 88 488 88 457 56.5 c 128,-1,40
 426 25 426 25 381 9.5 c 128,-1,41
 336 -6 336 -6 284 -11 c 0,42,43
 255 -14 255 -14 221 -14 c 0,44,45
 193 -14 193 -14 162 -12 c 0,46,47
 107 -8 107 -8 69 -3 c 1,9,-1
EndSplineSet
EndChar

StartChar: afii10107
Encoding: 1114 1114 349
Width: 1483
GlyphClass: 2
Flags: W
LayerCount: 2
UndoRedoHistory
Layer: 1
Undoes
EndUndoes
Redoes
EndRedoes
EndUndoRedoHistory
Fore
SplineSet
942 192 m 1,0,1
 943 192 943 192 946.5 192.5 c 128,-1,2
 950 193 950 193 952 193 c 0,3,4
 1050 197 1050 197 1090 230 c 128,-1,5
 1130 263 1130 263 1130 346 c 0,6,7
 1130 437 1130 437 1089.5 472 c 128,-1,8
 1049 507 1049 507 951 511 c 1,9,-1
 942 511 l 1,10,-1
 942 192 l 1,0,1
104 0 m 1,11,-1
 104 1184 l 1,12,-1
 438 1184 l 1,13,-1
 438 711 l 1,14,-1
 608 711 l 1,15,-1
 608 1185 l 1,16,-1
 942 1185 l 1,17,-1
 942 708 l 1,18,-1
 963 708 l 1,19,20
 1083 706 1083 706 1166.5 687.5 c 128,-1,21
 1250 669 1250 669 1311.5 628.5 c 128,-1,22
 1373 588 1373 588 1402.5 518.5 c 128,-1,23
 1432 449 1432 449 1432 348 c 0,24,25
 1432 162 1432 162 1318 82.5 c 128,-1,26
 1204 3 1204 3 942 2 c 2,27,-1
 608 1 l 1,28,-1
 608 439 l 1,29,-1
 438 439 l 1,30,-1
 438 0 l 1,31,-1
 104 0 l 1,11,-1
EndSplineSet
EndChar

StartChar: afii10108
Encoding: 1115 1115 350
Width: 1061
GlyphClass: 2
Flags: W
LayerCount: 2
UndoRedoHistory
Layer: 1
Undoes
EndUndoes
Redoes
EndRedoes
EndUndoRedoHistory
Fore
SplineSet
115 0 m 1,0,-1
 115 1214 l 1,1,-1
 -17 1214 l 1,2,-1
 -17 1381 l 1,3,-1
 115 1381 l 1,4,-1
 115 1658 l 1,5,-1
 449 1658 l 1,6,-1
 449 1381 l 1,7,-1
 711 1381 l 1,8,-1
 711 1214 l 1,9,-1
 449 1214 l 1,10,-1
 449 927 l 1,11,12
 504 948 504 948 530 957 c 128,-1,13
 556 966 556 966 607 977.5 c 128,-1,14
 658 989 658 989 699 989 c 0,15,16
 964 989 964 989 964 630 c 2,17,-1
 964 0 l 1,18,-1
 630 0 l 1,19,-1
 630 640 l 2,20,21
 630 703 630 703 613.5 734 c 128,-1,22
 597 765 597 765 554 765 c 0,23,24
 512 765 512 765 449 735 c 1,25,-1
 449 0 l 1,26,-1
 115 0 l 1,0,-1
EndSplineSet
EndChar

StartChar: afii10145
Encoding: 1039 1039 353
Width: 1226
GlyphClass: 2
Flags: W
LayerCount: 2
UndoRedoHistory
Layer: 1
Undoes
EndUndoes
Redoes
EndRedoes
EndUndoRedoHistory
Fore
SplineSet
485 -358 m 1,0,-1
 471 0 l 1,1,-1
 122 0 l 1,2,-1
 122 1658 l 1,3,-1
 488 1658 l 1,4,-1
 488 277 l 1,5,-1
 738 277 l 1,6,-1
 738 1658 l 1,7,-1
 1104 1658 l 1,8,-1
 1104 0 l 1,9,-1
 763 0 l 1,10,-1
 749 -358 l 1,11,-1
 485 -358 l 1,0,-1
EndSplineSet
EndChar

StartChar: afii10193
Encoding: 1119 1119 354
Width: 1059
GlyphClass: 2
Flags: W
LayerCount: 2
UndoRedoHistory
Layer: 1
Undoes
EndUndoes
Redoes
EndRedoes
EndUndoRedoHistory
Fore
SplineSet
422 -323 m 1,0,-1
 400 0 l 1,1,-1
 104 0 l 1,2,-1
 104 1184 l 1,3,-1
 438 1184 l 1,4,-1
 438 205 l 1,5,-1
 621 205 l 1,6,-1
 621 1184 l 1,7,-1
 955 1184 l 1,8,-1
 955 0 l 1,9,-1
 675 0 l 1,10,-1
 657 -323 l 1,11,-1
 422 -323 l 1,0,-1
EndSplineSet
EndChar

StartChar: afii61289
Encoding: 8467 8467 355
Width: 1251
GlyphClass: 2
Flags: W
LayerCount: 2
UndoRedoHistory
Layer: 1
Undoes
EndUndoes
Redoes
EndRedoes
EndUndoRedoHistory
Fore
SplineSet
747 1107 m 1,0,1
 994 1429 994 1429 994 1552 c 0,2,3
 994 1589 994 1589 972 1608 c 0,4,5
 950 1626 950 1626 913 1626 c 0,6,7
 880 1626 880 1626 835 1612 c 1,8,-1
 828 1610 l 1,9,-1
 747 1107 l 1,0,1
446 491 m 1,10,-1
 278 295 l 1,11,-1
 178 411 l 1,12,-1
 491 792 l 1,13,-1
 613 1610 l 2,14,15
 638 1775 638 1775 764 1866 c 0,16,17
 856 1931 856 1931 959 1931 c 0,18,19
 974 1931 974 1931 989 1930 c 0,20,21
 1109 1918 1109 1918 1168 1826 c 0,22,23
 1211 1760 1211 1760 1211 1670 c 0,24,25
 1211 1575 1211 1575 1164 1454 c 0,26,27
 1078 1231 1078 1231 841 953 c 1,28,-1
 695 783 l 1,29,-1
 626 352 l 2,30,31
 619 311 619 311 619 277 c 0,32,33
 619 212 619 212 645 178.5 c 128,-1,34
 671 145 671 145 711 145 c 0,35,36
 732 144 732 144 758 154 c 0,37,38
 832 180 832 180 911 272 c 1,39,-1
 1004 148 l 1,40,41
 945 82 945 82 873 39 c 128,-1,42
 801 -4 801 -4 732 -19 c 0,43,44
 698 -26 698 -26 665 -26 c 0,45,46
 632 -26 632 -26 600 -18 c 0,47,48
 536 -2 536 -2 491.5 40.5 c 128,-1,49
 447 83 447 83 428 164 c 0,50,51
 418 208 418 208 418 260 c 0,52,53
 418 304 418 304 425 353 c 2,54,-1
 446 491 l 1,10,-1
EndSplineSet
EndChar

StartChar: approxequal
Encoding: 8776 8776 359
Width: 989
GlyphClass: 2
Flags: W
LayerCount: 2
UndoRedoHistory
Layer: 1
Undoes
EndUndoes
Redoes
EndRedoes
EndUndoRedoHistory
Fore
SplineSet
672 852 m 0,0,1
 633 852 633 852 580 871 c 128,-1,2
 527 890 527 890 485 912.5 c 128,-1,3
 443 935 443 935 398.5 954 c 128,-1,4
 354 973 354 973 328 973 c 128,-1,5
 302 973 302 973 260.5 946 c 128,-1,6
 219 919 219 919 187 875 c 1,7,-1
 82 1015 l 1,8,9
 125 1088 125 1088 194 1147 c 128,-1,10
 263 1206 263 1206 324 1206 c 0,11,12
 374 1206 374 1206 443 1176 c 128,-1,13
 512 1146 512 1146 573 1116.5 c 128,-1,14
 634 1087 634 1087 664 1087 c 0,15,16
 716 1087 716 1087 803 1185 c 1,17,-1
 919 1065 l 1,18,19
 883 983 883 983 811.5 917.5 c 128,-1,20
 740 852 740 852 672 852 c 0,0,1
672 410 m 0,21,22
 633 410 633 410 580 429 c 128,-1,23
 527 448 527 448 485 470.5 c 128,-1,24
 443 493 443 493 398.5 512 c 128,-1,25
 354 531 354 531 328 531 c 128,-1,26
 302 531 302 531 260.5 504 c 128,-1,27
 219 477 219 477 187 433 c 1,28,-1
 82 572 l 1,29,30
 125 645 125 645 194 704.5 c 128,-1,31
 263 764 263 764 324 764 c 0,32,33
 374 764 374 764 443 734 c 128,-1,34
 512 704 512 704 573 674.5 c 128,-1,35
 634 645 634 645 664 645 c 0,36,37
 716 645 716 645 803 742 c 1,38,-1
 919 622 l 1,39,40
 883 541 883 541 811 475.5 c 128,-1,41
 739 410 739 410 672 410 c 0,21,22
EndSplineSet
EndChar

StartChar: breve
Encoding: 728 728 360
Width: 667
GlyphClass: 2
Flags: W
LayerCount: 2
UndoRedoHistory
Layer: 1
Undoes
EndUndoes
Redoes
EndRedoes
EndUndoRedoHistory
Fore
SplineSet
319 1400 m 0,0,1
 193 1400 193 1400 124.5 1468 c 128,-1,2
 56 1536 56 1536 56 1658 c 1,3,-1
 202 1658 l 1,4,5
 202 1594 202 1594 228.5 1565.5 c 128,-1,6
 255 1537 255 1537 319 1537 c 128,-1,7
 383 1537 383 1537 410 1566 c 128,-1,8
 437 1595 437 1595 437 1658 c 1,9,-1
 583 1658 l 1,10,11
 583 1536 583 1536 514.5 1468 c 128,-1,12
 446 1400 446 1400 319 1400 c 0,0,1
EndSplineSet
EndChar

StartChar: bullet
Encoding: 8226 8226 361
Width: 979
GlyphClass: 2
Flags: W
LayerCount: 2
UndoRedoHistory
Layer: 1
Undoes
EndUndoes
Redoes
EndRedoes
EndUndoRedoHistory
Fore
SplineSet
487 386 m 128,-1,1
 416 386 416 386 351.5 410.5 c 128,-1,2
 287 435 287 435 235.5 480.5 c 128,-1,3
 184 526 184 526 153.5 599 c 128,-1,4
 123 672 123 672 123 762 c 0,5,6
 123 854 123 854 153.5 928 c 128,-1,7
 184 1002 184 1002 235.5 1048 c 128,-1,8
 287 1094 287 1094 351.5 1118.5 c 128,-1,9
 416 1143 416 1143 487 1143 c 0,10,11
 583 1143 583 1143 665 1101 c 128,-1,12
 747 1059 747 1059 800.5 970.5 c 128,-1,13
 854 882 854 882 854 762 c 0,14,15
 854 672 854 672 823 599 c 128,-1,16
 792 526 792 526 740 480.5 c 128,-1,17
 688 435 688 435 623 410.5 c 128,-1,0
 558 386 558 386 487 386 c 128,-1,1
EndSplineSet
EndChar

StartChar: caron
Encoding: 711 711 363
Width: 823
GlyphClass: 2
Flags: W
LayerCount: 2
UndoRedoHistory
Layer: 1
Undoes
EndUndoes
Redoes
EndRedoes
EndUndoRedoHistory
Fore
SplineSet
248 1278 m 1,0,-1
 71 1658 l 1,1,-1
 307 1658 l 1,2,-1
 409 1435 l 1,3,-1
 514 1658 l 1,4,-1
 751 1658 l 1,5,-1
 569 1278 l 1,6,-1
 248 1278 l 1,0,-1
EndSplineSet
EndChar

StartChar: circumflex
Encoding: 710 710 367
Width: 829
GlyphClass: 2
Flags: W
LayerCount: 2
UndoRedoHistory
Layer: 1
Undoes
EndUndoes
Redoes
EndRedoes
EndUndoRedoHistory
Fore
SplineSet
90 1258 m 1,0,-1
 283 1658 l 1,1,-1
 558 1658 l 1,2,-1
 757 1258 l 1,3,-1
 512 1258 l 1,4,-1
 423 1509 l 1,5,-1
 334 1258 l 1,6,-1
 90 1258 l 1,0,-1
EndSplineSet
EndChar

StartChar: dagger
Encoding: 8224 8224 368
Width: 840
GlyphClass: 2
Flags: W
LayerCount: 2
UndoRedoHistory
Layer: 1
Undoes
EndUndoes
Redoes
EndRedoes
EndUndoRedoHistory
Fore
SplineSet
288 0 m 1,0,-1
 288 1011 l 1,1,-1
 66 1011 l 1,2,-1
 66 1212 l 1,3,-1
 288 1212 l 1,4,-1
 288 1656 l 1,5,-1
 558 1656 l 1,6,-1
 558 1212 l 1,7,-1
 775 1212 l 1,8,-1
 775 1011 l 1,9,-1
 558 1011 l 1,10,-1
 558 0 l 1,11,-1
 288 0 l 1,0,-1
EndSplineSet
EndChar

StartChar: daggerdbl
Encoding: 8225 8225 369
Width: 840
GlyphClass: 2
Flags: W
LayerCount: 2
UndoRedoHistory
Layer: 1
Undoes
EndUndoes
Redoes
EndRedoes
EndUndoRedoHistory
Fore
SplineSet
289 0 m 1,0,-1
 289 491 l 1,1,-1
 61 491 l 1,2,-1
 61 674 l 1,3,-1
 289 674 l 1,4,-1
 289 991 l 1,5,-1
 61 991 l 1,6,-1
 61 1185 l 1,7,-1
 289 1185 l 1,8,-1
 289 1656 l 1,9,-1
 557 1656 l 1,10,-1
 557 1185 l 1,11,-1
 781 1185 l 1,12,-1
 781 991 l 1,13,-1
 557 991 l 1,14,-1
 557 674 l 1,15,-1
 781 674 l 1,16,-1
 781 491 l 1,17,-1
 557 491 l 1,18,-1
 557 0 l 1,19,-1
 289 0 l 1,0,-1
EndSplineSet
EndChar

StartChar: dcroat
Encoding: 273 273 371
Width: 1024
GlyphClass: 2
Flags: W
LayerCount: 2
UndoRedoHistory
Layer: 1
Undoes
EndUndoes
Redoes
EndRedoes
EndUndoRedoHistory
Fore
SplineSet
500 194 m 0,0,1
 533 194 533 194 583 223 c 1,2,-1
 583 969 l 1,3,4
 538 994 538 994 502 994 c 0,5,6
 458 994 458 994 437 958.5 c 128,-1,7
 416 923 416 923 416 866 c 2,8,-1
 416 326 l 2,9,10
 416 268 416 268 436 231 c 128,-1,11
 456 194 456 194 500 194 c 0,0,1
356 -21 m 1,12,13
 222 -21 222 -21 151.5 72 c 128,-1,14
 81 165 81 165 81 348 c 2,15,-1
 81 829 l 2,16,17
 81 998 81 998 151.5 1101 c 128,-1,18
 222 1204 222 1204 356 1204 c 0,19,20
 477 1204 477 1204 583 1111 c 1,21,-1
 583 1393 l 1,22,-1
 309 1393 l 1,23,-1
 309 1529 l 1,24,-1
 583 1529 l 1,25,-1
 583 1658 l 1,26,-1
 917 1658 l 1,27,-1
 917 1529 l 1,28,-1
 1018 1529 l 1,29,-1
 1018 1393 l 1,30,-1
 917 1393 l 1,31,-1
 917 0 l 1,32,-1
 583 0 l 1,33,-1
 583 90 l 1,34,35
 472 -20 472 -20 356 -21 c 1,12,13
EndSplineSet
EndChar

StartChar: dotlessi
Encoding: 305 305 373
Width: 573
GlyphClass: 2
Flags: W
LayerCount: 2
UndoRedoHistory
Layer: 1
Undoes
EndUndoes
Redoes
EndRedoes
EndUndoRedoHistory
Fore
SplineSet
121 0 m 1,0,-1
 121 1184 l 1,1,-1
 455 1184 l 1,2,-1
 455 0 l 1,3,-1
 121 0 l 1,0,-1
EndSplineSet
EndChar

StartChar: ellipsis
Encoding: 8230 8230 377
Width: 1356
GlyphClass: 2
Flags: W
LayerCount: 2
UndoRedoHistory
Layer: 1
Undoes
EndUndoes
Redoes
EndRedoes
EndUndoRedoHistory
Fore
SplineSet
979 1 m 1,0,-1
 979 315 l 1,1,-1
 1296 315 l 1,2,-1
 1296 1 l 1,3,-1
 979 1 l 1,0,-1
516 0 m 1,4,-1
 516 314 l 1,5,-1
 833 314 l 1,6,-1
 833 0 l 1,7,-1
 516 0 l 1,4,-1
60 0 m 1,8,-1
 60 314 l 1,9,-1
 377 314 l 1,10,-1
 377 0 l 1,11,-1
 60 0 l 1,8,-1
EndSplineSet
EndChar

StartChar: emdash
Encoding: 8212 8212 379
Width: 2047
GlyphClass: 2
Flags: W
LayerCount: 2
UndoRedoHistory
Layer: 1
Undoes
EndUndoes
Redoes
EndRedoes
EndUndoRedoHistory
Fore
SplineSet
1 671 m 1,0,-1
 1 898 l 1,1,-1
 2046 898 l 1,2,-1
 2046 671 l 1,3,-1
 1 671 l 1,0,-1
EndSplineSet
EndChar

StartChar: endash
Encoding: 8211 8211 380
Width: 1024
GlyphClass: 2
Flags: W
LayerCount: 2
UndoRedoHistory
Layer: 1
Undoes
EndUndoes
Redoes
EndRedoes
EndUndoRedoHistory
Fore
SplineSet
1 629 m 1,0,-1
 1 858 l 1,1,-1
 1023 858 l 1,2,-1
 1023 629 l 1,3,-1
 1 629 l 1,0,-1
EndSplineSet
EndChar

StartChar: eng
Encoding: 331 331 381
Width: 970
GlyphClass: 2
Flags: W
LayerCount: 2
UndoRedoHistory
Layer: 1
Undoes
EndUndoes
Redoes
EndRedoes
EndUndoRedoHistory
Fore
SplineSet
362 -400 m 1,0,-1
 362 -189 l 1,1,2
 435 -189 435 -189 478 -181 c 128,-1,3
 521 -173 521 -173 547 -151.5 c 128,-1,4
 573 -130 573 -130 581.5 -97.5 c 128,-1,5
 590 -65 590 -65 590 -10 c 2,6,-1
 590 879 l 2,7,8
 590 924 590 924 576 945.5 c 128,-1,9
 562 967 562 967 524 966 c 1,10,11
 482 966 482 966 420 925 c 1,12,-1
 420 0 l 1,13,-1
 86 0 l 1,14,-1
 86 1184 l 1,15,-1
 420 1184 l 1,16,-1
 420 1080 l 1,17,18
 545 1204 545 1204 706 1204 c 0,19,20
 811 1204 811 1204 867.5 1127 c 128,-1,21
 924 1050 924 1050 924 929 c 2,22,-1
 924 -12 l 2,23,24
 924 -223 924 -223 825.5 -311.5 c 128,-1,25
 727 -400 727 -400 484 -400 c 2,26,-1
 362 -400 l 1,0,-1
EndSplineSet
EndChar

StartChar: estimated
Encoding: 8494 8494 383
Width: 953
GlyphClass: 2
Flags: W
LayerCount: 2
UndoRedoHistory
Layer: 1
Undoes
EndUndoes
Redoes
EndRedoes
EndUndoRedoHistory
Fore
SplineSet
364 662 m 1,0,-1
 634 662 l 1,1,-1
 634 971 l 2,2,3
 634 1047 634 1047 605 1085 c 128,-1,4
 576 1123 576 1123 496 1123 c 128,-1,5
 416 1123 416 1123 390 1084 c 128,-1,6
 364 1045 364 1045 364 957 c 2,7,-1
 364 662 l 1,0,-1
499 -21 m 0,8,9
 79 -21 79 -21 79 333 c 2,10,-1
 79 844 l 2,11,12
 79 1204 79 1204 492 1204 c 0,13,14
 694 1204 694 1204 789 1120 c 128,-1,15
 884 1036 884 1036 884 844 c 2,16,-1
 884 571 l 1,17,-1
 364 571 l 1,18,-1
 364 239 l 2,19,20
 364 193 364 193 368 166 c 128,-1,21
 372 139 372 139 386.5 112 c 128,-1,22
 401 85 401 85 432.5 72.5 c 128,-1,23
 464 60 464 60 514 60 c 0,24,25
 563 60 563 60 593.5 72 c 128,-1,26
 624 84 624 84 638 110 c 128,-1,27
 652 136 652 136 656 163 c 128,-1,28
 660 190 660 190 660 235 c 2,29,-1
 660 457 l 1,30,-1
 883 457 l 1,31,-1
 883 299 l 2,32,33
 883 125 883 125 788.5 52 c 128,-1,34
 694 -21 694 -21 499 -21 c 0,8,9
EndSplineSet
EndChar

StartChar: florin
Encoding: 402 402 384
Width: 939
GlyphClass: 2
Flags: W
LayerCount: 2
UndoRedoHistory
Layer: 1
Undoes
EndUndoes
Redoes
EndRedoes
EndUndoRedoHistory
Fore
SplineSet
201 -363 m 0,0,1
 129 -363 129 -363 43 -353 c 1,2,-1
 68 -105 l 1,3,4
 128 -114 128 -114 138 -114 c 0,5,6
 218 -114 218 -114 227 -22 c 2,7,-1
 328 949 l 1,8,-1
 212 949 l 1,9,-1
 212 1184 l 1,10,-1
 353 1184 l 1,11,-1
 361 1271 l 2,12,13
 367 1328 367 1328 375.5 1370 c 128,-1,14
 384 1412 384 1412 400 1453.5 c 128,-1,15
 416 1495 416 1495 442 1523 c 128,-1,16
 468 1551 468 1551 505.5 1573.5 c 128,-1,17
 543 1596 543 1596 597.5 1606.5 c 128,-1,18
 652 1617 652 1617 722 1617 c 0,19,20
 794 1617 794 1617 880 1607 c 1,21,-1
 855 1359 l 1,22,23
 795 1368 795 1368 785 1368 c 0,24,25
 705 1368 705 1368 696 1277 c 2,26,-1
 686 1184 l 1,27,-1
 818 1184 l 1,28,-1
 818 949 l 1,29,-1
 662 949 l 1,30,-1
 562 -17 l 2,31,32
 555 -87 555 -87 543.5 -134.5 c 128,-1,33
 532 -182 532 -182 508 -228.5 c 128,-1,34
 484 -275 484 -275 446 -302.5 c 128,-1,35
 408 -330 408 -330 346.5 -346.5 c 128,-1,36
 285 -363 285 -363 201 -363 c 0,0,1
EndSplineSet
EndChar

StartChar: foundryicon
Encoding: 65539 -1 385
Width: 1514
GlyphClass: 2
Flags: W
LayerCount: 2
UndoRedoHistory
Layer: 1
Undoes
EndUndoes
Redoes
EndRedoes
EndUndoRedoHistory
Fore
SplineSet
335 251 m 1,0,-1
 487 743 l 1,1,-1
 71 1052 l 1,2,-1
 590 1059 l 1,3,-1
 752 1551 l 1,4,-1
 922 1059 l 1,5,-1
 1441 1059 l 1,6,-1
 1023 743 l 1,7,-1
 1177 251 l 1,8,-1
 752 548 l 1,9,-1
 335 251 l 1,0,-1
EndSplineSet
EndChar

StartChar: fraction
Encoding: 8260 8260 386
Width: 653
GlyphClass: 2
Flags: W
LayerCount: 2
UndoRedoHistory
Layer: 1
Undoes
EndUndoes
Redoes
EndRedoes
EndUndoRedoHistory
Fore
SplineSet
29 0 m 1,0,-1
 384 1658 l 1,1,-1
 624 1658 l 1,2,-1
 270 0 l 1,3,-1
 29 0 l 1,0,-1
EndSplineSet
EndChar

